<svg width="689" height="692" viewBox="0 0 689 692" fill="none" xmlns="http://www.w3.org/2000/svg">
<rect x="43.6372" y="24.5203" width="645.09" height="645.09" rx="24" transform="rotate(1.9795 43.6372 24.5203)" fill="#191919" fill-opacity="0.08"/>
<rect x="23.8354" y="1.44908" width="648.09" height="648.09" rx="22.5" transform="rotate(1.9795 23.8354 1.44908)" fill="#191919" stroke="black" stroke-width="3"/>
<rect x="28.4243" y="6.82921" width="648.09" height="648.09" rx="22.5" transform="rotate(1.9795 28.4243 6.82921)" fill="#191919" stroke="#191919" stroke-width="3"/>
<mask id="mask0_673_2" style="mask-type:alpha" maskUnits="userSpaceOnUse" x="3" y="3" width="667" height="667">
<rect x="25.25" y="3" width="645.094" height="645.094" rx="21" transform="rotate(1.97658 25.25 3)" fill="#D9D9D9"/>
</mask>
<g mask="url(#mask0_673_2)">
<path d="M655.596 25.2176L46.2219 4.1872C34.6308 3.78718 24.9101 12.8593 24.5101 24.4504L3.47962 633.825C3.07959 645.416 12.1517 655.136 23.7428 655.536L633.117 676.567C644.708 676.967 654.429 667.895 654.829 656.304L675.859 46.9295C676.259 35.3384 667.187 25.6177 655.596 25.2176Z" fill="#997F54"/>
<path opacity="0.35" d="M400.502 710.39C620.16 717.971 804.373 546.048 811.954 326.39C819.535 106.732 647.612 -77.4811 427.954 -85.0618C208.296 -92.6426 24.0826 79.2801 16.5019 298.938C8.92115 518.596 180.844 702.81 400.502 710.39Z" fill="url(#paint0_radial_673_2)"/>
<path d="M146.837 -3.91483C138.099 0.157697 133.905 10.2191 137.163 19.2925C137.487 20.195 137.741 21.1211 137.923 22.0626L144.516 56.2294L152.093 98.8523L161.835 136.686L171.064 178.37L181.286 221.991L187.974 250.759L188.738 257.468C188.928 259.132 188.918 260.813 188.708 262.475L187.564 271.537L184.928 289.778L181.213 313.922L180.187 329.825C180.117 330.909 180.131 331.998 180.23 333.08L182.136 354.025L184.207 372.806C184.359 374.18 184.374 375.565 184.254 376.942L182.714 394.514C182.598 395.838 182.608 397.171 182.743 398.494L184.169 412.368L184.592 432.675C184.629 434.438 184.887 436.189 185.361 437.887L188.717 449.901L190.955 462.592C191.168 463.803 191.275 465.03 191.274 466.259L191.249 491.912L191.716 525.525L191.496 551.829L193.724 568.894L194.283 588.346L197.571 610.312L198.658 625.727L200.665 637.936L201.25 644.431L203.312 655.024L204.487 664.594C204.859 667.627 207.92 669.555 210.817 668.582C211.438 668.373 212.095 668.293 212.748 668.346L609.522 700.801C616.715 701.389 623.019 696.024 623.588 688.829L625.84 660.352C626.417 653.06 636.515 651.679 639.028 658.549C639.271 659.214 639.409 659.913 639.437 660.62L639.774 669.156C640.073 676.74 644.442 683.573 651.2 687.027L673.683 698.519C687.375 705.517 703.698 695.911 704.228 680.544L727.682 0.954523C728.065 -10.1637 719.712 -19.652 708.635 -20.68L275.782 -60.847C272.076 -61.191 268.344 -60.5436 264.971 -58.9712L146.837 -3.91483Z" fill="#8F6A38"/>
<path d="M230.323 258.606C230.314 258.687 230.194 258.7 230.166 258.624C227.648 251.895 225.002 245.211 222.399 238.523C222.317 238.313 222.574 238.148 222.728 238.313C227.2 243.105 231.252 251.848 230.323 258.606Z" fill="#8F6A38"/>
<path d="M227.98 654.299C228.971 662.276 222.375 669.134 214.363 668.478L212.749 668.346C212.095 668.293 211.438 668.373 210.817 668.582C207.92 669.555 204.859 667.627 204.487 664.594L203.313 655.024L201.25 644.431L200.665 637.936L198.658 625.727L197.572 610.312L194.283 588.346L193.732 568.894L191.496 551.829L191.716 525.524L191.258 491.912L191.275 466.25C191.276 465.027 191.169 463.806 190.958 462.601L188.726 449.901L185.365 437.892C184.888 436.19 184.629 434.436 184.592 432.669L184.169 412.368L182.75 398.48C182.616 397.161 182.606 395.832 182.722 394.512L184.262 376.946C184.383 375.567 184.367 374.179 184.214 372.802L182.136 354.025L180.237 333.063C180.14 331.987 180.125 330.904 180.194 329.826L181.213 313.922L184.936 289.778L187.573 271.537L188.713 262.449C188.92 260.804 188.931 259.141 188.746 257.493L188.609 256.276C191.275 267.222 194.088 278.115 197.276 288.917C201.885 304.545 207.508 320.385 218.223 332.655C218.286 332.728 218.365 332.785 218.454 332.823L219.111 333.102C219.394 333.222 219.391 333.623 219.106 333.739C218.956 333.8 218.868 333.958 218.896 334.118C219.109 335.334 219.322 336.547 219.535 337.762C219.618 338.236 219.631 338.72 219.574 339.198C219.162 342.664 218.774 346.126 218.442 349.596C217.093 363.6 216.559 377.672 215.864 391.723C214.505 418.902 212.308 446.215 214.639 473.4C214.644 473.498 214.657 473.603 214.669 473.701C216.227 488.849 217.78 503.859 217.132 519.134C216.534 533.414 215.702 547.444 216.869 561.688C220.11 592.594 224.148 623.45 227.98 654.299Z" fill="#8F6A38"/>
<g style="mix-blend-mode:overlay" opacity="0.14">
<path d="M227.98 654.299C228.971 662.276 222.375 669.134 214.363 668.478L212.749 668.346C212.095 668.293 211.438 668.373 210.817 668.582C207.92 669.555 204.859 667.627 204.487 664.594L203.313 655.024L201.25 644.431L200.665 637.936L198.658 625.727L197.572 610.312L194.283 588.346L193.732 568.894L191.496 551.829L191.716 525.524L191.258 491.912L191.275 466.25C191.276 465.027 191.169 463.806 190.958 462.601L188.726 449.901L185.365 437.892C184.888 436.19 184.629 434.436 184.592 432.669L184.169 412.368L182.75 398.48C182.616 397.161 182.606 395.832 182.722 394.512L184.262 376.946C184.383 375.567 184.367 374.179 184.214 372.802L182.136 354.025L180.237 333.063C180.14 331.987 180.125 330.904 180.194 329.826L181.213 313.922L184.936 289.778L187.573 271.537L188.713 262.449C188.92 260.804 188.931 259.141 188.746 257.493L188.609 256.276C191.275 267.222 194.088 278.115 197.276 288.917C201.885 304.545 207.508 320.385 218.223 332.655C218.286 332.728 218.365 332.785 218.454 332.823L219.111 333.102C219.394 333.222 219.391 333.623 219.106 333.739C218.956 333.8 218.868 333.958 218.896 334.118C219.109 335.334 219.322 336.547 219.535 337.762C219.618 338.236 219.631 338.72 219.574 339.198C219.162 342.664 218.774 346.126 218.442 349.596C217.093 363.6 216.559 377.672 215.864 391.723C214.505 418.902 212.308 446.215 214.639 473.4C214.644 473.498 214.657 473.603 214.669 473.701C216.227 488.849 217.78 503.859 217.132 519.134C216.534 533.414 215.702 547.444 216.869 561.688C220.11 592.594 224.148 623.45 227.98 654.299Z" fill="white"/>
</g>
<path d="M402.755 270.054C402.756 270.053 402.758 270.053 402.759 270.054L428.015 279.026L438.803 283.494L450.889 288.924C452.143 289.487 453.338 290.172 454.458 290.969L475.85 306.191C476.737 306.823 477.575 307.523 478.354 308.285L492.412 322.027C493.505 323.095 494.477 324.28 495.313 325.559L498.903 331.053C500.497 333.494 501.566 336.24 502.041 339.116L503.556 348.291L505.065 365.315L508.421 381.343L513.866 406.022L516.016 417.091C516.318 418.648 516.443 420.234 516.388 421.818L516.098 430.227C516.058 431.404 515.915 432.575 515.672 433.727L513.368 444.647C512.973 446.523 513.8 448.446 515.435 449.449L521.753 453.776C523.472 454.953 525.006 456.379 526.305 458.008L534.594 468.401L548.793 483.087L565.029 496.185L576.271 504.156L593.075 513.451C594.312 514.135 595.614 514.693 596.962 515.115L611.951 519.811C613.34 520.246 614.769 520.535 616.217 520.675L624.301 521.453C625.583 521.576 626.873 521.581 628.156 521.468L635.089 520.858C636.135 520.766 637.172 520.595 638.192 520.348L644.81 518.745C646.002 518.456 647.166 518.063 648.289 517.571L657.86 513.38C658.45 513.121 659.021 512.82 659.568 512.479C663.346 510.125 665.704 506.044 665.858 501.595L672.18 318.388C672.342 313.7 668.191 310.026 663.557 310.756L651.074 313.993C649.833 314.315 648.568 314.522 647.289 314.612C642.01 314.984 627.616 315.99 626.956 315.967C626.275 315.944 617.872 315.447 615.247 315.291C614.728 315.26 614.211 315.21 613.696 315.141L593.088 312.37L579.334 311.896C578.265 311.859 577.201 311.74 576.151 311.541L567.275 309.861L550.355 307.658L516.626 300.019L476.541 288.924L443.649 280.504L402.756 270.064C402.751 270.063 402.75 270.056 402.755 270.054Z" fill="#A0FF83"/>
<path d="M382.198 267.866C382.194 267.862 382.198 267.855 382.204 267.855C394.205 268.894 406.085 272.265 417.402 276.264C429.844 280.659 442.278 285.75 453.755 292.305C465.232 298.861 474.784 306.07 483.858 314.735C488.378 319.06 492.939 323.62 496.559 328.738C498.295 331.194 499.829 333.869 500.766 336.742C501.85 340.058 502.158 343.54 502.298 347.001C502.572 353.615 502.946 360.119 504.064 366.665C505.181 373.21 506.782 379.813 508.403 386.328C511.437 398.548 514.773 410.933 515.007 423.608C515.198 434.039 513.569 444.876 508.651 454.192C506.295 458.651 503.202 462.68 499.351 465.939C497.225 467.727 494.744 469.017 492.627 470.805C490.509 472.594 489.424 475.211 488.418 477.847C481.471 495.996 459.858 506.637 441.123 502.13C438.844 501.582 436.637 500.81 434.501 499.846C434.015 499.627 433.381 499.945 433.115 500.357C427.472 509.097 418.306 515.312 408.124 517.429C405.532 517.971 402.918 518.197 400.271 518.21C397.624 518.224 394.773 518.28 392.291 519.61C389.809 520.941 388.049 522.92 386.03 524.663C383.828 526.562 381.509 528.327 379.075 529.919C374.264 533.063 369.053 535.611 363.592 537.421C357.656 539.385 351.487 540.378 345.315 541.234C338.825 542.127 332.292 543.107 325.728 542.889C319.738 542.682 313.839 541.459 308.176 539.523C296.881 535.661 286.214 529.101 277.199 521.312C268.185 513.523 262.086 504.272 257.731 493.511C253.376 482.75 250.721 471.036 247.876 459.655C244.654 446.773 241.473 433.883 238.39 420.965C232.261 395.243 226.548 369.405 221.789 343.391C221.189 340.124 220.606 336.851 220.039 333.586C219.768 332.047 217.41 332.613 217.681 334.152C222.331 360.98 228.056 387.619 234.28 414.122C237.385 427.332 240.605 440.514 243.89 453.682C246.868 465.65 249.532 477.81 253.638 489.46C257.479 500.349 262.855 510.619 271.043 518.89C279.231 527.161 289.791 534.259 300.622 539.133C306.129 541.613 311.908 543.496 317.862 544.511C324.17 545.587 330.455 545.464 336.8 544.776C349.197 543.432 361.736 541.728 373.04 536.169C378.161 533.651 382.964 530.482 387.309 526.787C389.51 524.913 391.561 522.458 394.303 521.355C397.044 520.252 400.159 520.756 403.022 520.572C413.397 519.886 423.41 515.157 430.551 507.585C432.087 505.956 433.479 504.2 434.727 502.346C434.872 502.129 434.656 501.857 434.411 501.948C434.183 502.032 434.173 502.349 434.396 502.445C452.382 510.206 474.973 502.954 486.194 487.175C487.606 485.184 488.813 483.065 489.82 480.842C491.047 478.132 491.673 474.981 493.947 472.907C496.044 470.988 498.679 469.687 500.871 467.861C502.846 466.213 504.626 464.356 506.241 462.348C512.912 454.072 516.071 443.457 517.095 433.011C519.685 406.514 507.149 381.865 505.134 355.808C504.62 349.129 505.242 342.141 502.995 335.727C500.969 329.935 497.081 325.098 492.994 320.619C484.291 311.076 474.369 302.616 463.591 295.51C452.093 287.926 439.652 282.349 426.885 277.295C415.219 272.684 403.23 268.782 390.849 266.607C388.009 266.112 385.166 265.706 382.294 265.454C380.742 265.319 380.661 267.726 382.192 267.877C382.198 267.878 382.202 267.871 382.198 267.866Z" fill="#1A1A1A"/>
<path d="M459.824 382.62C463.292 394.459 463.31 407.547 460.759 419.566C460.439 421.085 462.753 421.82 463.073 420.294C465.712 407.848 465.782 394.318 462.183 382.054C461.748 380.566 459.382 381.115 459.824 382.62Z" fill="#1A1A1A"/>
<path d="M464.287 400.927C464.285 400.923 464.287 400.918 464.292 400.916C469.882 398.793 475.179 402.771 478.089 407.288C479.695 409.771 480.904 412.5 482.081 415.203C483.349 418.096 484.535 421.026 485.606 424.001C489.741 435.515 492.155 447.642 491.796 459.915C491.727 462.381 491.513 464.834 491.493 467.31C491.486 468.427 491.464 469.543 491.361 470.657C491.313 471.116 491.265 471.568 491.144 472.017C491.113 472.133 491.079 472.253 491.036 472.372C490.993 472.492 490.947 472.577 491.054 472.507C489.77 473.37 490.902 475.513 492.203 474.643C493.752 473.604 493.784 471.274 493.866 469.602C493.967 467.614 493.897 465.637 494.039 463.651C494.51 457.047 494.205 450.4 493.225 443.859C492.244 437.318 490.565 430.882 488.385 424.631C487.303 421.51 486.098 418.434 484.802 415.403C483.507 412.371 482.218 409.357 480.501 406.578C477.082 401.053 470.557 395.964 463.725 398.569C463.11 398.807 462.671 399.334 462.824 400.035C462.958 400.612 463.669 401.16 464.282 400.939C464.287 400.937 464.289 400.932 464.287 400.927Z" fill="#1A1A1A"/>
<path d="M456.307 418.409C466.968 424.685 475.012 435.015 478.422 446.917C478.848 448.413 481.214 447.863 480.78 446.351C477.197 433.86 468.8 422.952 457.6 416.358C456.251 415.567 454.958 417.618 456.307 418.409Z" fill="#1A1A1A"/>
<path d="M468.608 427.814C468.608 427.811 468.61 427.81 468.612 427.81C473.745 428.895 478.889 432.447 481.126 437.266C481.781 438.68 483.917 437.532 483.262 436.117C481.981 433.37 479.841 431.103 477.443 429.296C475.045 427.489 472.26 426.115 469.335 425.496C468.692 425.36 468.02 425.62 467.81 426.293C467.629 426.868 467.964 427.671 468.604 427.817C468.606 427.817 468.608 427.816 468.608 427.814Z" fill="#1A1A1A"/>
<path d="M390.251 467.563C397.95 468.663 405.642 469.762 413.341 470.853C414.888 471.076 414.955 468.643 413.425 468.428C405.726 467.329 398.034 466.23 390.334 465.138C388.788 464.915 388.72 467.349 390.251 467.563Z" fill="#1A1A1A"/>
<path d="M403.127 469.691C404.687 469.745 404.771 467.32 403.211 467.266C401.65 467.212 401.567 469.638 403.127 469.691Z" fill="#1A1A1A"/>
<path d="M401.499 469.255C408.259 479.03 418.135 485.773 426.511 494.018C428.898 496.367 431.151 498.856 433.155 501.548C434.091 502.802 435.856 501.131 434.928 499.893C427.927 490.522 418.093 483.959 409.978 475.666C407.68 473.312 405.508 470.817 403.635 468.106C402.756 466.838 400.612 467.97 401.499 469.255Z" fill="#1A1A1A"/>
<path d="M188.292 292.443C184.667 293.208 181.966 296.248 181.633 299.937L179.861 319.581L179.966 340.207L180.489 344.732C180.622 345.882 182.208 346.082 182.622 345.001C182.7 344.798 182.836 344.622 183.013 344.496L192.472 337.74C193.506 337.001 194.606 336.358 195.756 335.818L201.489 333.128C203.115 332.365 204.839 331.828 206.611 331.532L212.986 330.468C213.19 330.434 213.4 330.469 213.582 330.568C214.406 331.016 215.299 330.1 214.83 329.288L211.63 323.745L203.24 306.758L200.764 299.377C199.024 294.189 193.617 291.183 188.292 292.443Z" fill="#A0FF83"/>
<path d="M361.626 506.088C361.625 506.088 361.625 506.089 361.626 506.09C372.125 511.138 382.669 516.098 393.37 520.716C394.805 521.332 395.517 519.009 394.097 518.402C383.594 513.871 373.233 508.998 362.923 504.037C361.531 503.366 360.223 505.405 361.626 506.086C361.627 506.087 361.627 506.088 361.626 506.088Z" fill="#1A1A1A"/>
<path d="M324.752 525.207C324.752 525.21 324.753 525.212 324.754 525.214C332.976 533.468 344.436 538.824 356.059 539.686C359.329 539.929 362.62 539.775 365.853 539.191C367.393 538.912 366.827 536.554 365.287 536.832C354.383 538.787 342.829 535.402 333.704 529.397C331.116 527.697 328.707 525.752 326.525 523.549C325.423 522.443 323.652 524.094 324.749 525.2C324.751 525.202 324.752 525.205 324.752 525.207Z" fill="#1A1A1A"/>
<path d="M128.058 0.524316C128.058 0.526978 128.058 0.529628 128.06 0.532043C137.394 20.5933 140.031 42.9076 143.639 64.5029C147.489 87.5646 153.043 110.256 158.377 133.005C163.767 155.982 169.149 178.967 174.54 201.945C179.859 224.644 184.932 247.433 190.79 269.997C193.512 280.475 196.339 290.973 199.903 301.196C203.165 310.568 207.186 319.771 212.951 327.894C214.348 329.868 215.836 331.765 217.424 333.592C218.452 334.777 220.225 333.114 219.197 331.938C205.504 316.193 200.003 295.033 194.709 275.336C188.72 253.059 183.727 230.516 178.464 208.069C173.201 185.622 167.699 162.139 162.316 139.179C156.933 116.218 151.18 93.6488 147.128 70.5801C143.375 49.1728 141.118 27.1211 133.292 6.6901C132.342 4.21306 131.309 1.77365 130.194 -0.628124C129.539 -2.04157 127.407 -0.896451 128.056 0.516517C128.058 0.518928 128.058 0.521663 128.058 0.524316Z" fill="#1A1A1A"/>
<path d="M383.223 266.206C376.278 246.744 369.408 227.261 362.619 207.748C359.225 197.991 355.839 188.227 352.485 178.464C349.131 168.701 345.886 159.297 343.115 149.554C337.946 131.416 335.061 112.758 332.939 94.0458C330.817 75.3333 329.426 56.5407 327.092 37.8533C324.79 19.4178 321.549 1.01464 315.806 -16.6898C315.097 -18.8833 314.339 -21.0704 313.548 -23.2425C313.023 -24.6932 310.657 -24.1516 311.189 -22.6764C317.546 -5.16936 321.268 13.129 323.83 31.5411C326.411 50.0995 327.853 68.7967 329.8 87.4303C331.747 106.064 334.198 124.618 338.776 142.76C343.767 162.559 351.059 181.798 357.742 201.072C364.523 220.593 371.369 240.084 378.297 259.553C379.153 261.962 380.016 264.371 380.872 266.788C381.388 268.239 383.762 267.697 383.23 266.222L383.223 266.206Z" fill="#1A1A1A"/>
<path d="M187.441 256.349C187.438 256.346 187.432 256.348 187.432 256.352C185.962 266.577 184.485 276.809 183.015 287.033C181.545 297.261 179.913 307.038 178.886 317.095C177.859 327.152 178.222 336.343 179.394 346.007C180.565 355.67 182.298 365.725 182.44 375.685C182.507 380.333 182.112 384.973 182.032 389.616C181.953 394.259 181.999 398.801 182.091 403.394C182.272 412.456 182.452 421.535 183.582 430.542C184.712 439.549 187.016 449.227 188.124 458.646C189.306 468.714 189.124 478.93 189.26 489.052C189.526 509.472 189.346 529.951 190.317 550.348C190.775 560.068 191.541 569.766 192.307 579.456C192.66 583.992 192.966 588.519 193.676 593.019C194.321 597.096 195.201 601.141 195.813 605.225C196.51 609.879 196.518 614.565 197.061 619.229C197.604 623.894 198.187 628.131 198.786 632.57C200.147 642.621 201.565 652.657 203.072 662.688C203.302 664.242 203.418 670.017 205.855 669.543C206.046 669.506 206.297 669.397 206.483 669.257C206.505 669.241 206.789 668.977 206.808 668.959C206.824 668.944 206.794 668.934 206.773 668.937L206.175 669.005C206.021 669.023 205.93 669.185 205.991 669.327C206.051 669.466 206.107 669.607 206.155 669.747C206.279 670.367 206.753 671.184 207.3 671.511C208.648 672.334 209.664 671.018 210.1 669.891C210.606 668.59 212.386 662.265 209.745 662.101C208.235 662.009 207.649 664.441 207.822 665.523C207.982 666.532 209.067 668.14 209.789 668.812C210.51 669.485 211.34 669.368 212.131 668.95C213.862 668.038 215.707 665.714 216.249 663.831C216.682 662.333 214.368 661.605 213.935 663.104C213.641 664.122 212.832 665.049 212.118 665.809C211.992 665.942 211.003 666.685 210.983 666.814C211.002 666.718 211.84 668.017 211.389 666.779C211.277 666.484 210.948 666.173 210.755 665.924C210.545 665.65 210.286 665.438 210.241 665.081C210.222 664.926 210.403 664.609 210.358 664.518C210.347 664.495 210.416 664.333 210.455 664.249C210.463 664.233 210.506 664.165 210.516 664.151C210.755 663.766 210.576 663.577 209.975 663.582C209.107 663.59 208.668 664.265 208.597 665.129C208.542 665.783 208.454 666.443 208.335 667.087C208.216 667.73 207.774 668.565 207.785 669.172C207.781 669.31 207.622 669.458 207.645 669.499C206.578 668.03 208.793 669.539 208.733 669.618C208.759 669.586 208.512 669.238 208.506 669.157C208.396 668.36 207.757 667.172 206.984 666.83C206.514 666.619 205.487 666.6 205.176 667.156C205.101 667.294 205.098 667.353 205.255 667.366L205.558 667.391C205.621 667.396 205.683 667.412 205.743 667.435C205.831 667.469 205.91 667.495 205.979 667.512C206.481 667.639 206.213 666.782 206.083 666.281C206.073 666.246 206.065 666.213 206.059 666.183C205.884 665.173 205.741 664.165 205.581 663.155C204.994 659.299 204.439 655.435 203.876 651.58C202.486 641.925 201.12 632.262 199.891 622.589C199.573 620.077 199.167 617.538 199.053 615C198.702 607.567 197.336 600.47 196.14 593.145C194.698 584.297 194.355 575.221 193.709 566.287C193.062 557.354 192.546 548.377 192.354 539.403C191.95 520.612 191.854 501.815 191.605 483.022C191.49 473.921 191.457 464.782 190.183 455.746C188.987 447.247 187.083 438.87 185.993 430.35C183.84 413.449 184.434 396.247 184.858 379.257C185.302 361.24 180.018 343.616 180.714 325.576C181.061 316.466 182.537 307.444 183.827 298.44L187.895 270.173L189.874 256.442C190.097 254.899 187.684 254.828 187.451 256.346C187.45 256.351 187.444 256.353 187.441 256.349Z" fill="#1A1A1A"/>
<path d="M390.251 268.933C390.247 268.936 390.249 268.942 390.254 268.942C396.7 269.659 403.097 271.328 409.395 272.831C419.509 275.252 429.567 277.89 439.624 280.56C462.393 286.614 485.095 292.95 507.863 299.005C516.365 301.265 524.882 303.525 533.457 305.513C543.67 307.881 554.12 309.026 564.494 310.493C578.911 312.529 593.344 314.564 607.853 315.818C618.852 316.764 629.932 317.235 640.945 316.361C650.935 315.573 660.771 313.63 670.314 310.56C681.379 307 691.98 302.13 702.304 296.812C705.353 295.242 708.371 293.631 711.382 291.986C712.751 291.24 711.603 289.096 710.233 289.85C690.437 300.644 669.738 310.37 647.161 313.29C623.292 316.383 598.829 312.771 575.178 309.535C566.72 308.377 558.271 307.162 549.815 305.948C545.643 305.351 541.921 304.874 537.936 304.025C530.142 302.355 522.419 300.316 514.719 298.294C492.349 292.423 470.072 286.192 447.738 280.2C437.169 277.367 426.599 274.558 415.974 271.925C408.615 270.101 401.225 268.252 393.741 266.99C392.615 266.797 391.479 266.629 390.343 266.5C388.791 266.326 388.712 268.738 390.247 268.924C390.252 268.925 390.254 268.93 390.251 268.933Z" fill="#1A1A1A"/>
<path d="M196.573 289.824C192.316 290.737 187.972 291.137 183.723 292.091C182.197 292.435 182.755 294.794 184.289 294.45C188.539 293.496 192.882 293.096 197.139 292.182C198.663 291.854 198.105 289.496 196.573 289.824Z" fill="#1A1A1A"/>
<path d="M220.023 333.573C220.023 333.57 220.023 333.568 220.022 333.565C219.16 330.851 216.522 329.215 213.802 328.814C212.361 328.594 210.958 328.902 209.555 329.201C207.966 329.535 206.398 329.942 204.843 330.423C198.928 332.258 193.477 335.202 188.549 338.941C185.623 341.155 182.907 343.635 180.325 346.241C179.226 347.352 180.881 349.125 181.979 348.014C186.004 343.952 190.366 340.21 195.299 337.296C200.231 334.383 205.404 332.473 210.912 331.409C212.33 331.134 213.562 331.072 214.935 331.613C216.085 332.065 217.278 332.916 217.665 334.143C218.131 335.623 220.493 335.075 220.024 333.581C220.024 333.578 220.023 333.576 220.023 333.573Z" fill="#1A1A1A"/>
<path d="M637.719 522.026C637.717 522.026 637.715 522.028 637.715 522.03C634.972 542.411 632.527 562.826 630.389 583.276C628.251 603.727 626.411 624.213 624.886 644.718C624.028 656.205 623.267 667.704 622.595 679.206C622.5 680.765 624.926 680.849 625.02 679.29C626.214 658.757 627.707 638.251 629.506 617.764C631.306 597.277 633.412 576.825 635.817 556.399C637.166 544.961 638.613 533.526 640.148 522.11C640.355 520.565 637.934 520.488 637.724 522.022C637.724 522.025 637.722 522.027 637.719 522.026Z" fill="#1A1A1A"/>
<path d="M627.826 607.347L627.743 609.772C627.732 610.079 627.858 610.415 628.069 610.641C628.279 610.867 628.614 611.032 628.913 611.026C629.213 611.021 629.556 610.935 629.782 610.7C630.009 610.465 630.156 610.187 630.168 609.856L630.251 607.43C630.262 607.123 630.136 606.787 629.925 606.561C629.715 606.336 629.38 606.17 629.081 606.176C628.781 606.182 628.438 606.267 628.212 606.502C627.985 606.737 627.838 607.015 627.826 607.347Z" fill="#1A1A1A"/>
<path d="M627.952 612.151C628.479 617.753 627.767 623.378 628.221 628.978C628.608 633.718 629.769 638.323 631.182 642.847C633.944 651.7 637.933 660.643 637.907 670.071C637.904 671.342 637.82 672.618 637.663 673.875C637.506 675.132 637.016 676.426 636.981 677.688C636.946 678.949 637.669 680.034 638.954 680.079C639.965 680.114 641.009 679.389 640.934 678.294C640.846 676.951 638.989 676.702 638.583 677.69C638.509 677.871 638.728 677.959 638.857 677.811C638.932 677.726 639.058 677.715 639.159 677.768C639.268 677.825 639.343 677.835 639.385 677.797C639.479 677.712 639.461 677.55 639.488 677.427C639.533 677.227 639.549 676.943 639.576 676.822C639.682 676.348 639.779 675.866 639.861 675.391C640.043 674.337 640.184 673.282 640.254 672.208C640.398 670.149 640.315 668.083 640.095 666.027C639.661 661.933 638.609 657.939 637.393 654.02C634.872 645.921 631.459 637.896 630.676 629.379C630.145 623.671 630.909 617.934 630.378 612.226C630.237 610.692 627.804 610.592 627.953 612.143L627.952 612.151Z" fill="#1A1A1A"/>
<path d="M684.926 491.286C684.926 491.289 684.924 491.291 684.922 491.293C679.888 495.796 674.881 500.422 669.442 504.434C664.833 507.836 659.467 510.896 654.16 513.4C649.421 515.64 644.509 517.494 639.473 518.947C637.977 519.381 638.527 521.739 640.039 521.306C651.696 517.944 663.246 512.532 672.768 504.913C677.513 501.119 682.054 497.107 686.58 493.055C687.748 492.012 686.09 490.241 684.929 491.279C684.927 491.281 684.926 491.283 684.926 491.286Z" fill="#1A1A1A"/>
<path d="M639.472 518.963C639.474 518.961 639.472 518.957 639.469 518.957C628.573 521.241 617.374 520.571 606.704 517.492C596.927 514.67 587.788 510.033 579.218 504.606C570.648 499.179 562.308 492.724 554.344 486.16C550.26 482.79 546.193 479.38 542.445 475.633C539.105 472.28 536.214 468.595 533.407 464.799C528.071 457.574 522.149 449.316 512.76 447.454C511.241 447.151 510.505 449.465 512.032 449.768C520.44 451.442 525.849 458.654 530.659 465.149C533.35 468.779 536.009 472.416 539.117 475.704C542.833 479.644 546.96 483.178 551.122 486.64C566.897 499.769 583.849 512.77 603.645 519.11C615.421 522.884 627.899 523.873 640.03 521.329C641.551 521.01 640.999 518.663 639.475 518.968C639.472 518.969 639.47 518.965 639.472 518.963Z" fill="#1A1A1A"/>
<path d="M601.255 490.575C601.255 490.577 601.253 490.578 601.251 490.578C589.8 485.205 579.844 476.833 572.703 466.382C571.832 465.105 569.68 466.245 570.567 467.53C577.948 478.323 588.111 487.074 599.962 492.623C601.363 493.278 602.671 491.239 601.259 490.573C601.257 490.572 601.255 490.573 601.255 490.575Z" fill="#1A1A1A"/>
<path d="M623.074 235.121C623.072 235.119 623.072 235.115 623.075 235.114C636.178 227.37 651.856 224.472 666.886 226.747C671.153 227.396 675.348 228.496 679.4 229.987C680.87 230.523 681.59 228.209 680.127 227.673C665.373 222.259 648.75 222.236 633.93 227.422C629.752 228.881 625.73 230.733 621.929 232.989C620.592 233.784 621.728 235.915 623.073 235.128C623.075 235.127 623.076 235.123 623.074 235.121Z" fill="#232323"/>
<path d="M73.163 621.55C73.1645 621.55 73.1654 621.548 73.1643 621.547C64.2489 611.39 55.9089 600.735 48.2158 589.626C40.5378 578.524 33.4899 566.99 27.1265 555.083C23.523 548.338 20.1419 541.48 16.9746 534.524C16.3277 533.101 14.1916 534.258 14.8388 535.672C20.4729 548.071 26.8142 560.147 33.8334 571.809C40.8527 583.471 48.5259 594.711 56.8219 605.495C61.485 611.556 66.348 617.454 71.386 623.204C72.4209 624.38 74.1838 622.721 73.1617 621.553C73.1607 621.551 73.1614 621.55 73.163 621.55Z" fill="#1A1A1A"/>
<path d="M34.8709 103.208C37.2089 91.2777 41.5073 79.7633 47.6402 69.2673C49.4034 66.2526 51.3093 63.3238 53.3496 60.4886C54.2676 59.2173 52.2076 57.9322 51.298 59.1957C44.0805 69.2254 38.5611 80.471 35.0446 92.3118C34.0549 95.6607 33.2255 99.0557 32.557 102.48C32.2617 104 34.5754 104.735 34.8709 103.208Z" fill="#1A1A1A"/>
<path d="M53.0704 207.413C53.0704 207.413 53.071 207.413 53.0711 207.413C55.9406 194.151 59.894 181.136 64.8777 168.514C69.8522 155.938 75.8563 143.779 82.8044 132.178C86.7375 125.62 90.9717 119.251 95.4902 113.086C96.4159 111.823 94.356 110.538 93.4386 111.793C85.3864 122.789 78.2347 134.432 72.0847 146.595C65.9348 158.757 60.7724 171.383 56.6744 184.361C54.3572 191.703 52.3842 199.154 50.7566 206.681C50.4293 208.198 52.7385 208.934 53.0697 207.413C53.0697 207.412 53.0704 207.412 53.0704 207.413Z" fill="#1A1A1A"/>
<path d="M100.622 471.979C100.625 471.976 100.626 471.973 100.624 471.969C90.9177 452.139 83.7044 431.116 79.198 409.506C77.9413 403.474 76.8964 397.4 76.0547 391.301C75.841 389.755 73.4821 390.33 73.6962 391.867C76.7097 413.831 82.4813 435.381 90.7965 455.926C93.1529 461.754 95.7228 467.492 98.4823 473.131C99.1697 474.529 101.301 473.385 100.621 471.988C100.619 471.985 100.62 471.981 100.622 471.979Z" fill="#1A1A1A"/>
<path d="M139.181 269.467C139.18 269.467 139.181 269.467 139.181 269.467C142.996 256.035 147.811 242.897 153.615 230.197C155.261 226.596 156.986 223.038 158.791 219.515C159.494 218.131 157.451 216.83 156.739 218.222C150.308 230.804 144.823 243.863 140.386 257.275C139.13 261.068 137.962 264.896 136.867 268.735C136.443 270.233 138.752 270.96 139.18 269.467C139.18 269.466 139.181 269.466 139.181 269.467Z" fill="#1A1A1A"/>
<path d="M109.989 571.706C109.989 571.709 109.989 571.711 109.99 571.714C115.966 583.816 123.704 595.04 132.888 604.931C135.479 607.724 138.194 610.407 141.003 612.973C142.149 614.024 143.93 612.37 142.776 611.318C132.961 602.352 124.448 591.99 117.598 580.584C115.639 577.32 113.812 573.971 112.125 570.554C111.437 569.155 109.297 570.3 109.987 571.698C109.988 571.701 109.989 571.703 109.989 571.706Z" fill="#1A1A1A"/>
<g style="mix-blend-mode:overlay" opacity="0.14">
<path d="M343.59 539.246C345.381 539.83 345.205 542.451 343.338 542.703C337.654 543.47 331.938 544.244 326.196 544.103C311.333 543.736 297.207 537.259 284.986 528.792C278.409 524.243 272.211 519.052 267.239 512.794C256.776 499.621 252.42 482.766 248.321 466.453C237.67 424.008 227.327 381.556 219.66 338.477C219.405 337.022 219.151 335.573 218.896 334.118C218.868 333.958 218.956 333.8 219.106 333.739C219.391 333.623 219.394 333.222 219.111 333.102L218.454 332.823C218.365 332.785 218.286 332.728 218.223 332.655C207.508 320.385 201.885 304.545 197.276 288.917C194.088 278.116 191.275 267.222 188.609 256.277C186.8 248.906 185.072 241.521 183.336 234.129C180.746 223.097 178.165 212.066 175.575 201.026C168.711 171.741 161.847 142.449 154.975 113.164C152.245 101.512 149.515 89.8605 147.282 78.1126C145.479 68.662 144.002 59.1578 142.428 49.6665C140.612 38.6723 138.638 27.6048 135.488 16.9385C132.949 8.34508 138.255 -1.19018 147.146 -2.30178C152.827 -3.01202 158.383 0.00345912 160.353 5.37891C163.234 13.2405 165.323 21.4416 166.862 29.7338C169.927 46.2288 172.343 62.7582 176.246 79.1042C180.581 97.2537 185.749 115.205 190.786 133.177C200.384 167.436 208.845 202.279 221.282 235.665C221.311 235.747 221.349 235.829 221.379 235.911C221.594 236.477 221.817 237.035 222.041 237.601C224.798 244.697 227.613 251.787 230.28 258.929C233.874 268.538 237.206 278.236 239.817 288.16C244.003 304.054 246.833 320.314 250.017 336.425C253.249 352.756 256.481 369.079 259.714 385.41C262.993 402.001 266.273 418.593 269.561 435.185C272.241 448.753 274.285 462.72 278.662 475.893C280.44 479.937 282.574 483.766 285.045 487.461C295.268 501.281 306.76 514.902 319.658 526.225C324.459 529.944 329.517 533.251 334.899 536.059C337.76 537.237 340.66 538.29 343.59 539.246Z" fill="white"/>
</g>
<g style="mix-blend-mode:overlay" opacity="0.06">
<path d="M498.237 468.344C498.234 468.344 498.231 468.341 498.231 468.338C496.014 447.455 493.456 426.609 490.54 405.815C488.774 393.185 492.687 385.356 490.661 372.766C488.958 362.174 488.062 358.818 485.083 348.474C485.05 348.357 484.989 348.24 484.931 348.134C478.557 337.238 469.574 328.074 458.457 322.106C448.222 316.613 437.552 311.777 427.436 306.58C407.435 296.307 388.464 284.589 372.356 268.704C371.951 268.304 371.52 267.933 371.033 267.638C369.565 266.747 368.121 265.769 366.716 264.673C356.487 256.68 348.679 246.536 343.448 234.628C334.752 214.823 328.572 193.615 321.843 173.076C315.458 153.577 309.369 133.943 304.702 113.944C294.217 69.0474 291.733 22.8162 304.29 -21.9412C304.292 -21.9479 304.295 -21.954 304.301 -21.9587C304.306 -21.9641 304.314 -21.9676 304.322 -21.9686L306.639 -22.2584C309.994 -22.6781 313.208 -20.7268 314.271 -17.5166C331.44 34.3389 326.612 91.4523 340.466 144.453C343.376 155.593 347.103 166.502 350.846 177.395C361.066 207.119 371.457 236.784 382.02 266.382C382.044 266.447 382.083 266.505 382.135 266.551C382.201 266.609 382.283 266.645 382.371 266.652C395.081 267.738 411.704 272.594 423.552 277.253C430.889 280.153 438.244 283.045 445.344 286.495C463.024 295.077 479.048 307.067 492.264 321.613C496.381 326.142 500.322 331.078 502.103 336.926C503.681 342.096 503.467 347.6 503.726 352.999C504.715 373.574 512.691 393.177 515.45 413.587C518.146 433.508 514.3 456.554 498.242 468.343C498.24 468.344 498.239 468.344 498.237 468.344Z" fill="black"/>
</g>
<g style="mix-blend-mode:overlay" opacity="0.06">
<path d="M624.903 680.397C629.802 685.53 631.144 696.452 624.122 697.47C622.701 697.677 621.24 697.79 619.744 697.804C604.944 697.949 591.221 683.312 592.427 668.534C594.792 639.649 597.479 610.791 600.513 581.97C602.197 566.003 603.443 549.843 606.384 534.049C606.432 533.788 606.483 533.527 606.535 533.267C608.167 525.091 616.779 521.418 625.115 521.551C629.376 521.621 633.64 521.272 637.833 520.511C638.647 520.363 639.316 521.18 638.991 521.941C638.955 522.026 638.93 522.115 638.918 522.206C632.12 572.686 627.178 623.426 624.103 674.274C623.911 677.447 622.708 678.098 624.903 680.397Z" fill="black"/>
</g>
</g>
<defs>
<radialGradient id="paint0_radial_673_2" cx="0" cy="0" r="1" gradientUnits="userSpaceOnUse" gradientTransform="translate(414.228 312.664) rotate(1.97658) scale(397.963)">
<stop stop-color="#D97A08"/>
<stop offset="1" stop-color="#FFC520" stop-opacity="0"/>
</radialGradient>
</defs>
</svg>
