<svg width="973" height="713" viewBox="0 0 973 713" fill="none" xmlns="http://www.w3.org/2000/svg">
<path d="M7.61274 27.7943C6.55658 16.3648 15.5519 6.5 27.03 6.5H940.816C952.005 6.5 960.9 15.8961 960.286 27.0688L928.007 615.114C927.473 624.851 919.827 632.696 910.107 633.482L89.0715 699.833C78.4242 700.693 69.0663 692.827 68.0834 682.19L7.61274 27.7943Z" fill="#191919" stroke="#191919" stroke-width="3"/>
<path d="M16.1191 37.9323C14.9817 25.6237 24.6689 15 37.03 15H950.816C962.866 15 972.445 25.1188 971.784 37.151L939.505 625.196C938.929 635.682 930.696 644.131 920.228 644.977L99.1923 711.328C87.726 712.254 77.6483 703.783 76.5898 692.328L16.1191 37.9323Z" fill="#191919" fill-opacity="0.08"/>
<path d="M3.61274 22.7943C2.55658 11.3648 11.5519 1.5 23.03 1.5H936.816C948.005 1.5 956.9 10.8961 956.286 22.0688L924.007 610.114C923.473 619.851 915.827 627.696 906.107 628.482L85.0715 694.833C74.4242 695.693 65.0663 687.827 64.0834 677.19L3.61274 22.7943Z" fill="#E9E9E9" stroke="#191919" stroke-width="3"/>
</svg>
