<?xml version="1.0" encoding="UTF-8"?>
<svg xmlns:xodm="http://www.corel.com/coreldraw/odm/2003" xmlns="http://www.w3.org/2000/svg" xmlns:xlink="http://www.w3.org/1999/xlink" version="1.1" id="Layer_1" x="0px" y="0px" viewBox="0 0 2500 422" style="enable-background:new 0 0 2500 422;" xml:space="preserve">
<style type="text/css">
	.st0{fill:#2C2236;}
</style>
<g id="Layer_x0020_1">
	<path class="st0" d="M599,3.1c-15.6-6.3-33.2-2.9-45.1,9L399.2,165.9v83.5L565,84.8v274.4H289.5l-31.8-51.1L146.8,418.3h436.4   c22.7,0,41.2-18.3,41.2-41V41.2C624.4,24.5,614.4,9.6,599,3.1L599,3.1z"></path>
	<path class="st0" d="M145,359.3l182.6-181.6v169.5h59.4V133.9c0-16.7-10-31.6-25.4-37.9c-15.6-6.3-33.2-2.9-45.1,9L1.3,418.3h128.1   l59.4-59.1H145L145,359.3z"></path>
	<polygon class="st0" points="2060.7,417.5 2252.1,417.5 2252.1,374.9 2108.6,374.9 2108.6,292.2 2252.1,292.2 2252.1,250.5    2108.6,250.5 2108.6,165.5 2252.1,165.5 2252.1,125.2 2060.7,125.2  "></polygon>
	<path class="st0" d="M2406.2,263.7l86.1-138.5h-49l-44.9,71.9c-3.3,5.5-6.3,10.8-9,15.3c-2.7,4.7-4.9,8.9-7.2,13.2l-3.1-5.7   c-6.1-11.8-10.5-19.3-12.7-23.2l-42.4-71.5h-50.2l84.5,139.3l-95.5,153h50.6l51.5-83.5c3.1-5.1,5.9-10,8.6-14.9   c2.7-4.9,5.1-9.6,7.4-14.1c4.5,8.8,9.4,18.1,14.9,28.1l0.8,1.4l49.2,82.9h52.9L2406.2,263.7L2406.2,263.7z"></path>
	<path class="st0" d="M844.4,129.9h-43.3L688,417.5h48.6l32-82.5h107.2l31.3,82.5h50.2L845,131.3L844.4,129.9L844.4,129.9z    M785.1,290.6l37.5-98.6l36.7,98.6H785.1z"></path>
	<path class="st0" d="M1313.3,335.6c-5.9,12.4-14.4,22.2-24.8,29.2c-10.5,6.7-22.5,10.2-35.4,10.2c-19.5,0-35.9-6.9-49-20.6   c-13.1-13.7-19.7-31.2-19.7-52c0-20.4,6.6-37.9,19.5-51.7c12.9-13.9,28.7-20.8,47.2-20.8c14.3,0,26.8,3.1,37.1,9.4   s18.9,15.9,25.4,28.5l0.6,1.2h47.2l-1-3.1c-8.4-24.8-21.9-44.4-40.4-58.3c-18.4-13.9-40.6-20.8-65.6-20.8c-16,0-31.3,3.1-45.3,9.4   c-14.2,6.1-26.9,15.5-38.1,27.3c-10.3,11-18,23.2-23.2,36.5c-5.3,13.3-7.8,27.7-7.8,42.8c0,14.7,2.9,29.4,8.6,43.6   c5.7,14.1,14,26.7,24,37.3c10.7,11.2,23,19.8,36.3,25.3c13.3,5.7,28.3,8.3,44.5,8.3c25.8,0,48.2-6.9,66.2-20.4   c18-13.5,31.8-33.6,41-59.7l1-3.1h-47.1L1313.3,335.6L1313.3,335.6z"></path>
	<path class="st0" d="M1576.5,237.8c-10.7-15.9-24.6-28.5-41-37.5c-16.6-9-34.6-13.5-53.9-13.5c-16.2,0-31.3,3.1-44.9,9   c-13.7,5.9-26,15.1-36.9,26.9c-10.2,11-18,23.2-23.2,36.5c-5.3,13.3-7.8,27.7-7.8,43c0,14.7,2.9,29.4,8.6,43.6   c5.7,14.1,14,26.7,24,37.3c10.9,11.4,23.2,20,36.5,25.7c13.3,5.7,28.3,8.5,44.5,8.5c24,0,45.3-6.5,63.6-19.3   c18-12.8,32.4-31.4,42.4-55.4l1.5-3.3h-48.6l-0.6,1.2c-5.9,10.8-14.2,19.2-24.2,25.1c-10,5.9-21.5,8.7-33.8,8.7   c-17.2,0-32.2-5.5-44.7-16.1c-11.9-10.2-19.5-23.4-23-39.3h180.6v-8.4c0-15.1-1.6-28.5-4.5-40.3   C1587.6,258.6,1582.9,247.6,1576.5,237.8L1576.5,237.8z M1416,280c4.7-15.3,12.7-27.5,24-36.5c11.9-9.6,26.2-14.3,42.6-14.3   c16,0,29.7,4.7,41.2,14.1c10.7,8.7,18.6,21.2,23.4,36.9H1416V280L1416,280z"></path>
	<path class="st0" d="M1991.8,221.3c-9.6-8.8-19.9-15.5-31.1-20.2c-12.7-5.3-26.7-8-41.4-8c-16.6,0-31.8,2.9-44.9,8.4   c-13.1,5.5-25.2,14-36.3,25.5c-10,10.4-18.1,22.6-23.4,36.3c-5.3,13.7-8.2,28.3-8.2,43.6c0,32.8,11.1,60.5,32.8,82.3   c21.7,21.8,49.4,32.8,82.2,32.8c14.1,0,27.5-2.7,40-8.2c10.9-4.7,20.9-11.2,29.9-19.7v23.4h43.9V125.2h-43.5V221.3L1991.8,221.3   L1991.8,221.3z M1972.3,359.3c-14,14.2-30.4,21.4-48.8,21.4c-20.1,0-37.3-7.1-51.2-21.2c-14-14.1-20.9-32-20.9-52.8   c0-20,7-36.9,20.9-50.7c13.9-13.8,30.9-20.8,50.4-20.8c19,0,35.9,7.3,49.6,21.8c13.9,14.5,20.9,32,20.9,52.4   C1993.4,328.3,1986.2,345,1972.3,359.3L1972.3,359.3z"></path>
	<path class="st0" d="M1043.6,229.1c1.4-0.2,2.7-0.2,4.3-0.2c4.7,0,9,0.8,13.1,2c9.2,3.3,16.6,10.2,20.3,19.2h47.2   c-2.3-14.3-10-27.1-21.5-37.1c-4.3-4.5-9.4-8.1-15.4-11.2c-7.2-3.7-15.4-6.3-24.6-7.7c-5.9-1.2-12.1-1.8-18.4-1.8   c-13.5,0-26.4,2.4-37.7,7.1c-1,0.4-2,0.8-3.1,1.2c-0.6,0.2-1,0.4-1.7,0.8c-5.3,2.4-10.2,5.3-14.5,8.8   c-14.8,11.6-21.9,26.7-21.9,45.2c0,13.7,4.5,25.3,13.3,34.9c9,9.6,24.6,18.9,47,28.1c3.9,1.8,9.6,3.9,17,6.5   c21.9,8.1,32.8,17.7,32.8,29.1c0,8.6-3.1,15.3-9.2,20.2c-6.1,4.9-14.6,7.3-25.4,7.3c-12.5,0-22.7-2.7-30.7-8.2   c-0.2-0.2-0.4-0.2-0.8-0.4c-7.6-5.5-13.3-13.4-15.6-23.2h-45.5c0.4,9.4,3.5,18.1,8.4,26.5c7.4,13.3,17.2,23.2,29.3,30   c12.9,7.1,28.9,11,48,11.4c0.4,0,0.8,0,1,0c0.6,0,1.3,0,2.1,0c26.7,0,47.7-5.9,62.9-17.7c15.2-11.8,22.7-28.1,22.7-48.9   c0-14.5-4.1-26.3-12.5-36.1c-8.4-9.6-22.1-18.1-41.4-25.9c-4.3-1.8-10.2-4.1-18.2-6.7c-24.8-9-37.1-18.8-37.1-29.7   c0-1.6,0.2-3.1,0.4-4.7C1022.9,238,1032.3,230.9,1043.6,229.1z"></path>
	<path class="st0" d="M1702.2,192.6c-52.3,0-94.7,42.2-94.7,94.1v130.8h43.7V290.6c0-27.9,23-50.7,51-50.7c28.1,0,51,22.8,51,50.7   v126.9h43.7V286.7C1796.9,234.8,1754.4,192.6,1702.2,192.6L1702.2,192.6z"></path>
</g>
</svg>
