<?xml version="1.0" encoding="UTF-8"?>
<svg id="Layer_2" data-name="Layer 2" xmlns="http://www.w3.org/2000/svg" viewBox="0 0 229.49 181.29">
  <defs>
    <style>
      .cls-1 {
        fill: #1b1b1b;
      }
    </style>
  </defs>
  <path class="cls-1" d="M221.08,132.97c-3.1,0-5.8,1.68-7.26,4.18-8.91.1-17.76-1.5-26.09-4.65.09-.13.18-.29.27-.54.52-1.44,1.28-2.77,1.72-4.24.83-2.75.88-5.56.44-8.37-.41-2.65-1.16-5.23-1.98-7.78.15-.04.3-.08.45-.12.35-.11.69-.24,1.02-.38.07-.03.14-.05.22-.08.1-.04.19-.1.29-.14.04-.02.08-.04.12-.06.49-.26.94-.58,1.25-1.02.01-.02.03-.03.04-.05.07-.09.1-.17.12-.26h0c.06-.1.12-.2.17-.31.35-.94.25-2.01.23-2.99,0-.09,0-.18-.01-.26,0-.29-.02-.58-.03-.87,0-.2-.02-.4-.03-.6,0-.14-.01-.29-.02-.43-.01-.19-.04-.38-.05-.57-.01-.13-.02-.27-.04-.4-.04-.45-.1-.9-.17-1.35,0,0,0-.02,0-.03-.17-1.11-.41-2.21-.81-3.26-.12-.32-.27-.62-.41-.92-.02-.05-.04-.09-.06-.14-.12-.24-.25-.46-.38-.68-.22-.39-.46-.76-.73-1.12.03-.07.05-.14.05-.22,0-.31.01-.62.02-.93,0-.03,0-.06,0-.09,0-.99-.05-2-.27-2.96,0,0,0,0,0-.01-.06-.28-.14-.56-.24-.83-.02-.07-.05-.14-.07-.2-.09-.23-.19-.45-.3-.67-.03-.06-.05-.12-.08-.17,0-.01-.01-.03-.02-.04-.1-.17-.22-.32-.33-.48-.26-.35-.54-.69-.91-.97-.45-.36-.96-.62-1.49-.83,0-.03.02-.06.02-.09.13-1.42-.33-2.65-1.12-3.67-.01-.02-.02-.04-.04-.06-.01-.02-.03-.03-.04-.04-.05-.06-.1-.12-.15-.18-1.26-8.48-3.85-17.42-9.87-23.76h.04s-1.34-1.28-1.34-1.28c0,0,0,0,0,0-1.54-7-3.79-13.84-7.02-20.25-3.07-6.09-7.04-11.76-11.91-16.54-3.73-3.66-7.98-6.8-12.6-9.24-3.28-1.73-6.75-3.12-10.33-4.08-1.08-.29-2.16-.53-3.26-.72-.54-.09-1.14-.25-1.69-.24-.02,0-.04,0-.07,0-.57-.05-.87.75-.46,1.12,2.75,2.52,5.06,5.5,6.83,8.77,1.64,3.03,2.88,6.4,3.12,9.86.03.46-.07.94-.19,1.42-6.36-5.88-13.47-10.95-21.06-15.11-8.31-4.56-17.23-8.08-26.44-10.31C79.14.53,69.83-.44,60.6.19c-1.12.08-2.23.18-3.35.3-.72.08-.92,1.05-.17,1.29,9.61,3.13,18.32,8.21,26.5,14.07-1.4-.45-2.8-.88-4.22-1.26-8.12-2.17-16.53-3.18-24.93-3.31-7.52-.12-15.06.46-22.46,1.78-5.41.96-10.9,2.27-15.92,4.56-.44.2-.88.41-1.31.64-.63.33-.27,1.17.33,1.22,7.26.66,14.31,2.29,21.07,5.04,3.42,1.39,6.76,3.01,10.01,4.76,2.74,1.47,5.43,3.08,7.87,5.01.4.32.79.66,1.18.99-3.62-.55-7.27-.86-10.93-1.04-7.27-.36-14.61-.45-21.87.14-6.41.52-12.77,1.54-19.07,2.81-.96.19-1.92.39-2.88.59-.52.11-.67.97-.16,1.2,4.25,1.87,8.32,4.16,12,6.99,3.64,2.8,6.87,6.13,9.62,9.8,3.17,4.24,5.75,8.89,7.94,13.71,2.69,5.92,4.82,12.08,6.68,18.3,1.79,5.99,3.33,12.04,4.73,18.13-3.09-1.41-6.07-3.05-8.98-4.81-3.7-2.24-7.3-4.66-10.89-7.08-3.42-2.31-6.82-4.7-9.72-7.65-.72-.74-1.41-1.51-2.06-2.31-.43-.54-1.25.05-1.1.64,2.64,10.35,6.79,20.31,12.21,29.51,5.42,9.2,12.12,17.66,19.84,25.04,3.86,3.68,7.97,7.09,12.31,10.2.87.62,1.76,1.22,2.64,1.82.18.29.35.6.55.89,1.75,2.64,3.83,5.03,6.34,6.97,1.83,1.42,3.72,2.74,5.63,4.05,3.5,2.41,7.02,4.78,10.95,6.43,3.14,1.32,6.35,2.49,9.59,3.56,8.24,2.72,16.71,4.82,25.27,6.24,9.19,1.53,18.58,2.33,27.88,1.62,8.4-.64,17-2.53,24.21-7.08,3.4-2.15,6.4-4.87,8.79-8.11.59-.8,1.14-1.62,1.64-2.47,1.27-.13,2.53-.31,3.78-.52,4.47-.75,8.84-1.8,13.17-3.12,7.84-2.39,15.96-4.72,23.04-8.96.73-.44,1.43-.91,2.13-1.39.81.26,1.67.4,2.56.4,4.64,0,8.4-3.76,8.4-8.4s-3.76-8.41-8.4-8.41Z"/>
</svg>