<svg width="555" height="496" viewBox="0 0 555 496" fill="none" xmlns="http://www.w3.org/2000/svg">
<path d="M403.684 27.6033L396.756 34.5455V27.6033H362.624C347.236 51.3835 314.746 67.8213 277.027 67.8213C239.32 67.8213 206.831 51.3835 191.443 27.6033H157.311V34.5455L150.369 27.6033L27.6171 150.424L94.7621 217.624L157.311 155.048V467.959H396.728V155.061L459.291 217.638L526.422 150.424L403.684 27.6033Z" fill="#1D1D1D"/>
<path d="M396.728 495.562H157.311C142.074 495.562 129.708 483.196 129.708 467.959V221.71L114.278 237.14C109.102 242.329 102.077 245.228 94.7483 245.228C87.4334 245.228 80.3946 242.315 75.219 237.14L8.07396 169.94C-2.69132 159.161 -2.69132 141.701 8.07396 130.909L130.853 8.08776C136.843 2.08405 145.497 -0.828098 153.833 0.220827C154.979 0.0828103 156.138 0 157.311 0H191.443C200.8 0 209.537 4.74776 214.616 12.6009C225.477 29.3837 249.975 40.218 277.027 40.218C304.078 40.218 328.59 29.3837 339.451 12.6009C344.53 4.74776 353.253 0 362.624 0H396.756C397.929 0 399.088 0.0690087 400.234 0.220827C401.366 0.0828103 402.511 0 403.67 0C410.985 0 418.024 2.91215 423.214 8.08776L545.965 130.895C556.731 141.674 556.731 159.133 545.965 169.926L478.834 237.14C473.659 242.315 466.634 245.228 459.319 245.228C452.004 245.241 444.965 242.329 439.789 237.154L424.345 221.696V467.959C424.332 483.209 411.979 495.562 396.728 495.562ZM184.914 440.355H369.125V155.061C369.125 143.896 375.846 133.835 386.156 129.556C396.48 125.264 408.335 127.638 416.244 135.546L459.277 178.579L487.405 150.424L399.088 62.0522C394.686 62.4524 390.352 61.7624 386.198 60.051C383.313 58.864 380.705 57.2078 378.441 55.2066H376.067C353.281 80.3256 316.762 95.4246 277.027 95.4246C237.292 95.4246 200.786 80.3256 177.986 55.2066H175.612C173.362 57.2078 170.754 58.8502 167.869 60.051C163.688 61.7762 159.243 62.3834 154.951 62.0522L66.6205 150.438L94.7483 178.593L137.768 135.546C145.663 127.638 157.532 125.278 167.856 129.556C178.179 133.835 184.901 143.896 184.901 155.061V440.355H184.914Z" fill="#1D1D1D"/>
</svg>