<?xml version="1.0" encoding="UTF-8"?>
<svg id="Layer_1" data-name="Layer 1" xmlns="http://www.w3.org/2000/svg" viewBox="0 0 90 90">
  <defs>
    <style>
      .cls-1 {
        fill: #1d1d1d;
      }
    </style>
  </defs>
  <path class="cls-1" d="M70.39,53.14l12.67-12.67c9.25-9.24,9.25-24.29,0-33.53-9.24-9.25-24.29-9.25-33.53,0l-18.29,18.29c-9.24,9.24-9.24,24.29,0,33.53,1.37,1.37,2.86,2.52,4.44,3.49l9.79-9.79c-1.87-.45-3.63-1.39-5.09-2.84-4.2-4.2-4.2-11.04,0-15.24l18.29-18.29c4.2-4.2,11.04-4.2,15.24,0,4.2,4.2,4.2,11.04,0,15.24l-5.37,5.37c2.21,5.21,2.83,10.94,1.84,16.45Z"/>
  <path class="cls-1" d="M19.61,36.86l-12.67,12.67c-9.25,9.24-9.25,24.29,0,33.53,9.24,9.25,24.29,9.25,33.53,0l18.29-18.29c9.25-9.24,9.24-24.29,0-33.53-1.36-1.37-2.86-2.52-4.44-3.49l-9.79,9.79c1.86.45,3.63,1.39,5.09,2.84,4.2,4.2,4.2,11.04,0,15.24l-18.29,18.29c-4.2,4.2-11.04,4.2-15.24,0-4.2-4.2-4.2-11.04,0-15.24l5.37-5.37c-2.21-5.21-2.83-10.94-1.84-16.45Z"/>
</svg>