<?xml version="1.0" encoding="UTF-8"?>
<svg id="Layer_1" data-name="Layer 1" xmlns="http://www.w3.org/2000/svg" viewBox="0 0 97.97 88.67">
  <defs>
    <style>
      .cls-1 {
        fill: #1d1d1d;
      }
    </style>
  </defs>
  <path class="cls-1" d="M21.61,72.98v12.19c0,1.93-1.57,3.5-3.5,3.5h-9.46c-1.93,0-3.5-1.57-3.5-3.5v-12.19c0-1.93,1.57-3.5,3.5-3.5h9.46c1.93,0,3.5,1.57,3.5,3.5h0ZM41.56,65.39h-9.46c-1.93,0-3.5,1.57-3.5,3.5h0v16.28c0,1.93,1.57,3.5,3.5,3.5h9.46c1.93,0,3.5-1.57,3.5-3.5v-16.28c0-1.93-1.57-3.5-3.5-3.5ZM64.97,56.18h-9.42c-1.93,0-3.5,1.57-3.5,3.5v25.49c0,1.93,1.57,3.5,3.5,3.5h9.42c1.93,0,3.5-1.57,3.5-3.5v-25.49c0-1.93-1.57-3.5-3.5-3.5ZM88.45,38.74h-9.48c-1.95.02-3.52,1.61-3.5,3.56,0,0,0,0,0,.01v42.79c-.02,1.95,1.54,3.55,3.49,3.57,0,0,0,0,.01,0h9.46c1.95,0,3.53-1.57,3.54-3.52,0-.02,0-.03,0-.05v-42.79c.02-1.95-1.54-3.55-3.49-3.57-.01,0-.02,0-.03,0ZM97.85,19.32l-3.23-15.22c-.62-2.79-3.36-4.56-6.16-4l-15.18,3.29c-2.81.6-4.59,3.36-4,6.16s3.36,4.59,6.17,4l2.83-.6c-11.36,16.82-26.53,28.46-45.15,34.62-8.3,2.77-16.98,4.25-25.73,4.37h-1.84c-2.86-.2-5.35,1.95-5.55,4.81-.2,2.86,1.95,5.35,4.81,5.55h0c.18,0,1.15.08,2.78.08,9.72-.14,19.36-1.78,28.57-4.88,10.08-3.29,19.54-8.23,28-14.62,8.93-6.81,16.66-15.05,22.88-24.4l.64,3c.59,2.8,3.35,4.6,6.15,4,0,0,0,0,0,0,2.8-.59,4.6-3.35,4-6.15,0,0,0,0,0,0h0Z"/>
</svg>