<svg viewBox="-6 0 91 91" fill="none" xmlns="http://www.w3.org/2000/svg">
<path d="M39.7381 0.879883C46.7047 0.879883 53.1214 2.05322 58.9881 4.39988C64.9281 6.74655 69.6214 10.0099 73.0681 14.1899C76.5147 18.3699 78.2381 23.1732 78.2381 28.5999C78.2381 32.9999 77.1747 36.7766 75.048 39.9299C72.9214 43.0832 70.2081 45.6499 66.9081 47.6299L61.0781 50.9299C57.9247 52.6899 55.8347 53.8999 54.8081 54.5599C53.1214 55.5866 51.9481 56.7232 51.2881 57.9699C50.6281 59.2166 50.2981 60.6832 50.2981 62.3699H25.1081C25.1081 56.7966 26.4281 52.1399 29.0681 48.3999C31.7081 44.5866 36.1447 41.2866 42.3781 38.4999C45.1647 37.2532 47.1814 35.8966 48.4281 34.4299C49.7481 32.8899 50.4081 31.1666 50.4081 29.2599C50.4081 27.1332 49.3814 25.2999 47.3281 23.7599C45.3481 22.2199 42.8181 21.4499 39.7381 21.4499C35.5581 21.4499 32.2947 22.4766 29.9481 24.5299C27.6747 26.5832 26.538 29.4799 26.538 33.2199C26.538 34.6866 26.7581 36.3732 27.1981 38.2799C21.3314 36.5932 12.5681 35.7499 0.90805 35.7499C0.834716 35.0899 0.79805 34.1732 0.79805 32.9999C0.79805 26.8399 2.41138 21.3399 5.63805 16.4999C8.93805 11.5866 13.5214 7.77322 19.3881 5.05989C25.328 2.27322 32.1114 0.879883 39.7381 0.879883ZM50.4081 90.1999H24.8881V70.6199H50.4081V90.1999Z" fill="black"/>
</svg>