<?xml version="1.0" encoding="UTF-8"?>
<svg id="Layer_1" xmlns="http://www.w3.org/2000/svg" version="1.1" viewBox="0 0 389.2 364">
  <!-- Generator: Adobe Illustrator 29.1.0, SVG Export Plug-In . SVG Version: 2.1.0 Build 142)  -->
  <defs>
    <style>
      .st0 {
        font-family: DelaGothicOne-Regular, 'Dela Gothic One';
        font-size: 121.9px;
      }

      .st0, .st1 {
        fill: #1a1a1a;
      }

      .st2 {
        isolation: isolate;
      }

      .st3 {
        fill: #fb9300;
      }

      .st4 {
        fill: #fff;
      }

      .st5 {
        fill: #f0f0f0;
      }

      .st6 {
        opacity: 0;
      }

      .st7 {
        opacity: .1;
      }

      .st8 {
        opacity: 0;
      }

      .st9 {
        mix-blend-mode: overlay;
        opacity: .3;
      }
    </style>
  </defs>
  <g class="st2">
    <g id="Layer_11" data-name="Layer_1">
      <g>
        <g class="st8">
          <path class="st1" d="M371.4,288.5c-9.7-10.9-9.4-28.5,6.2-33.3,4.2-1.3,8.4-3.3,8.8-8.3.4-6.3-5.9-12.8-9.1-17.7-16.3-25.7-30.5-52.6-43.6-80.1-13.3-27.8-25.6-56-38.1-84.1-3.2-7.2-6.4-14.3-9.5-21.5-3-6.7-5.5-13.9-10-19.7-7.4-9.6-19.3-12.6-31-13-16.2-.5-32.7,1.8-48.8,3.2-18.3,1.7-36.6,3.6-54.8,5.8-36,4.4-71.8,9.8-107.4,16.2-1,0-2,.5-2.7,1.5-12.4,16.4-18.2,36.2-27.5,54.4,0,0,0,0,0,0-.4.6-.5,1.4-.3,2.3,10.4,37.9,19.2,76.3,28.2,114.6,8,33.6,15,68,28.4,100,7.2,17.2,16.5,33.3,28.6,47.5h0c0,0,.1.2.2.3.5.6,1.2.9,1.8.9,14,4.1,28.3,6.7,43,6.7,16.2,0,32.5-1.4,48.6-2.5,31.5-2.2,63-5.3,94.2-9.9,3.1-.5,6.2-1.1,9.2-1.8h1.2l1.3-.6c10.8-2.7,21.2-6.6,32-9.4,7-1.8,14.1-3.6,21.1-5.6,6.7-1.9,12.6-5.4,18.8-8.4,6-3,11.8-3.9,18.2-5.5,4.2-1,8.5-3.1,10.1-7.4,4.2-11.3-11.2-17.7-17.1-24.4h0Z"/>
        </g>
        <g>
          <polygon class="st4" points="105.3 286.1 97.1 296.8 92.3 312.2 89.7 326.5 94.8 329.5 166 326.1 234 318 282.5 311.7 303.8 307.8 343.9 295.1 365.2 289.1 370.4 282.8 361.2 273.4 359.5 253.9 360.7 246.8 358.9 245.5 287.4 262.1 246.5 269.1 213.2 274.6 171.9 280 139.9 284.8 105.3 286.1"/>
          <path class="st1" d="M94.8,329.9l-5.4-3.1,2.7-14.6,4.8-15.6,8.3-10.8,34.7-1.3,31.9-4.8,41.3-5.3,33.3-5.5,40.9-7,71.7-16.7,2,1.6-1.2,7.3,1.7,19.3,9.2,9.6-5.5,6.7-21.4,6-40.1,12.7-21.4,3.9-48.5,6.3-68,8.1-71.3,3.4h0ZM90.1,326.3l4.8,2.8,71.1-3.4,67.9-8.1,48.5-6.3,21.3-3.9,40-12.7,21.2-5.9,4.9-6-9-9.3-1.8-19.6,1.1-6.9-1.4-1.1-71.4,16.6-40.9,7-33.4,5.5-41.3,5.3-32,4.8-34.4,1.3-8.1,10.5-4.8,15.4-2.6,14h0Z"/>
        </g>
        <polygon class="st3" points="3.4 88.5 3.4 78.4 25.1 37.9 31.5 31.4 35.1 34.5 41.7 56.6 46.9 95.8 52.9 117.9 63.8 146.5 72.9 168.8 85.6 218.4 93.6 253.2 99.6 280 99 298.7 92 317.8 88.8 336.8 86.4 343.4 72.8 323.8 51.9 280.5 38.6 227.6 23.5 163.9 3.4 88.5"/>
        <polygon class="st3" points="87.7 330.7 94.8 329.5 111.8 330.5 163 326.2 234 318 273.6 312.9 310.5 306 336.4 296.4 362.2 288.8 374.6 285.3 383.9 294.4 382.6 299.8 377.2 305.8 359.6 310.4 341.5 320.6 303.8 329.5 283.7 339.1 265.9 339.1 212.5 345 155.9 349.3 115.7 350.4 89.7 344.3 87.7 330.7"/>
        <polygon class="st3" points="243 3.1 36.3 25.5 33.9 32 41.7 58.6 44.3 86.9 51.5 121.1 66.8 148 77.3 186.1 87.7 229.3 101.1 280.6 99.8 291.2 109.9 286.2 180.8 279.6 276.1 264.1 332.6 252.5 367.9 242.8 381 234.9 366 211.6 331.2 147.2 302.6 85.1 279.7 33.5 270.5 15.3 259.2 6.4 243 3.1"/>
        <path class="st1" d="M.1,83.4c10.4,37.9,19.2,76.3,28.2,114.6,8,33.6,15,68,28.4,100,7.3,17.3,16.6,33.5,28.8,47.7,1.8,2.1,5,.3,5.1-2.1.7-11.2,1.9-22,6-32.6,3.8-9.8,7.2-18.6,5.9-29.3s-4.5-21.6-6.9-32.3c-2.7-11.6-5.3-23.1-7.9-34.7-4.9-21.4-9.5-42.8-18.2-63.1-4.4-10.2-9.4-20.2-13.2-30.7s-5.9-20.6-7.5-31.1c-1.9-12.2-2.9-24.5-4.8-36.7-1.5-9.9-3.8-20-11.4-27.1-1.5-1.5-3.5-1-4.7.6C15.5,43.2,9.7,63,.4,81.1c-1.8,3.4,3.4,6.5,5.2,3,9.2-18.1,15-38,27.5-54.4l-4.7.6c7.2,6.8,8.8,16.9,10.1,26.3,1.5,10.4,2.5,20.8,4,31.2,1.5,10.6,3.5,21.2,6.9,31.4,3.1,9.4,7.3,18.3,11.4,27.3,9.1,20.1,14.6,40.7,19.5,62.2,5.1,22.1,10.4,44.2,15.2,66.3,1.4,6.5,2.3,13,.8,19.5-1.2,5.2-3.4,10-5.3,15-4.3,11.1-5.5,22.4-6.2,34.2l5.1-2.1c-22.2-25.7-33.7-58.1-42.3-90.5-9.4-35-17-70.5-25.4-105.8-5.1-21.2-10.4-42.4-16.1-63.4-1-3.7-6.8-2.1-5.8,1.6h0Z"/>
        <path class="st1" d="M31.8,31.2c61-11,122.6-19,184.5-23.8,12.3-1,25.6-3,37.7.4,14.7,4.2,19,18.1,24.6,30.8,12,27,23.8,54.1,36.1,81,12.2,26.5,25,52.8,39.5,78.1,3.4,5.9,6.9,11.8,10.4,17.6,2,3.2,3.9,6.3,6,9.4,1.6,2.4,5,6,5.6,8.9,1.2,5.4-4.4,5.1-7.6,6.4-1.8.7-3.4,1.7-4.8,2.8-4.4,3.5-7.3,8.7-8.3,14.2-2,10.7,3.5,21.4,11.5,28.3,3.7,3.2,9.6,6,11.9,10.7,3.6,7.5-7.5,8-12.1,9-5.7,1.2-10.9,3.7-16,6.4-7,3.6-13.8,6.1-21.5,8.2-6.5,1.7-12.9,3.4-19.4,5.1-7.1,1.9-13.9,4.6-20.9,6.8-15.8,4.9-33,5.9-49.4,7.8s-33.9,3.6-50.9,4.9-34,2.4-51.1,3.1-33-1.6-49.2-6.4c-3.7-1.1-5.3,4.7-1.6,5.8,14.2,4.2,28.7,6.8,43.5,6.8,16.2,0,32.5-1.4,48.6-2.5,31.5-2.2,63-5.3,94.2-9.9,15.1-2.2,29-8,43.8-11.9,7-1.8,14.1-3.6,21.1-5.6s12.6-5.4,18.8-8.4,11.8-3.9,18.2-5.5c4.2-1,8.5-3.1,10.1-7.4,4.2-11.3-11.2-17.7-17.1-24.4-9.7-10.9-9.4-28.5,6.2-33.3,4.2-1.3,8.4-3.3,8.8-8.3.4-6.3-5.9-12.8-9.1-17.7-16.3-25.7-30.5-52.6-43.6-80.1-13.3-27.8-25.6-56-38.1-84.1-3.2-7.2-6.4-14.3-9.5-21.5-3-6.7-5.5-13.9-10-19.7C265.2,3.5,253.3.5,241.6,0c-16.2-.5-32.7,1.8-48.8,3.2-18.3,1.7-36.6,3.6-54.8,5.8-36.1,4.4-72,9.8-107.8,16.3-3.8.7-2.2,6.5,1.6,5.8h0Z"/>
        <path class="st1" d="M88.2,329.9c6.9,3.6,14.3,4,21.9,3.7,9.3-.4,18.7-1.1,28-1.9,19.2-1.6,38.4-3.6,57.6-5.9s38.7-4.8,58-7.3c18.1-2.3,36.5-3.9,54.1-8.6,20.6-5.4,40.6-13.2,60.8-20.1,3.6-1.2,2.1-7-1.6-5.8-17.2,5.9-34.3,12.1-51.7,17.5-17.7,5.4-35.7,7.6-54,10-36.5,4.7-72.9,9.6-109.5,13-10.4,1-20.8,1.8-31.3,2.5-9.6.6-20.5,2.5-29.3-2.2-3.4-1.8-6.4,3.4-3,5.2h0Z"/>
        <path class="st1" d="M101.1,290.9c36.6-2.1,72.9-6.9,109.1-12.7,35.8-5.7,71.7-11.2,107.1-19,20.1-4.4,40-9.7,59.6-16,3.7-1.2,2.1-7-1.6-5.8-33.8,10.9-68.4,18.5-103.4,24.5-34.9,6.1-72.5,12.5-108.9,17.2-20.6,2.7-41.2,4.6-62,5.8-3.8.2-3.9,6.2,0,6h0Z"/>
        <path class="st1" d="M357.5,272.2c-4.3,2.8-10.4,4.1-15.2,5.7-5.7,1.9-11.4,3.7-17.3,4.7-5.4,1-10.8,1.6-15.9,3.6-2.9,1.2-5.5,2.6-8.6,3.2-2.8.6-5.2,1.1-7.7,2.4-3.5,1.7-.4,6.9,3,5.2,2.8-1.4,5.8-1.5,8.7-2.3s5.4-2.5,8.2-3.4c5.6-1.9,11.6-2.3,17.4-3.6s11-3,16.4-4.9c4.6-1.6,10-2.8,14.1-5.5,3.2-2.1.2-7.3-3-5.2h0Z"/>
        <path class="st1" d="M355.5,256.6c-10.8,3.8-21.7,7.2-32.9,10-3.7.9-2.2,6.7,1.6,5.8,11.1-2.8,22-6.2,32.9-10,3.6-1.3,2.1-7.1-1.6-5.8h0Z"/>
        <g class="st7">
          <polygon points="88.1 328.4 95.3 327.2 112.2 328.2 163.4 323.9 234.4 315.6 274 310.5 311 303.7 336.8 294.1 362.6 286.5 375 283 384.3 292.1 383.1 297.5 377.6 303.4 360.1 308.1 341.9 318.3 304.2 327.2 284.1 336.8 266.3 336.8 212.9 342.7 156.3 347 116.1 348 90.2 341.9 88.1 328.4"/>
        </g>
        <g class="st9">
          <path class="st5" d="M46,36.9c4.9,14.2,7.2,29,10.5,43.6,3.5,15.4,8.8,30.1,14.2,44.9,5.4,14.9,10.9,29.8,16.3,44.8,5.4,14.9,6.9,30.8,9.4,46.4.8,5.1,8.5,2.9,7.7-2.1-2.4-15.3-3.8-30.9-9.1-45.5-5.5-15.2-11.1-30.4-16.6-45.6-5.3-14.5-10.6-28.9-14-44-3.4-14.9-5.6-30-10.7-44.5-1.7-4.8-9.4-2.8-7.7,2.1h0Z"/>
        </g>
        <g class="st9">
          <path class="st5" d="M102.9,242.9c1.3,10.3,4.1,20,8.4,29.4,2.1,4.7,9,.6,6.9-4-3.7-8-6.2-16.6-7.3-25.4-.7-5-8.7-5.1-8,0h0Z"/>
        </g>
        <g class="st9">
          <path class="st5" d="M25.3,55c3.2,15.7,4.9,31.6,7.6,47.4,2.7,15.8,7.1,31,12.5,46.2,1.7,4.8,9.4,2.7,7.7-2.1-5.4-15.2-9.8-30.3-12.5-46.2s-4.4-31.7-7.6-47.4c-1-5-8.7-2.9-7.7,2.1h0Z"/>
        </g>
        <g class="st6">
          <path d="M333.3,188.9c2.9,6.7,5.9,13.3,9.3,19.8,1.7,3.2,3.4,6.4,5.2,9.6,1.5,2.6,4.4,6.1,4.8,9l.4-3.1c-.5.9-5.1,1.4-6.1,1.7-2.5.6-5.1,1.3-7.6,1.9-5.1,1.3-10.1,2.6-15.2,3.9s-2.9,9,2.1,7.7c7.9-2,15.9-4,23.8-6.1,4.6-1.2,12.2-2.6,10.2-9.3-.9-2.9-3.1-5.6-4.6-8.2-1.8-3.2-3.5-6.4-5.2-9.6-3.6-7-7-14.1-10.1-21.4-2-4.7-8.9-.6-6.9,4h0Z"/>
        </g>
        <g class="st6">
          <path d="M316,152.9c1.9,4,3.4,8.2,4.7,12.5,1.5,4.9,9.2,2.8,7.7-2.1s-3.4-9.7-5.5-14.4-9.1-.6-6.9,4h0Z"/>
        </g>
      </g>
    </g>
  </g>
  <text class="st0" transform="translate(118.6 198.2) rotate(-10.9) scale(.9 1) skewX(9.6)"><tspan x="0" y="0">S2</tspan></text>
</svg>