<svg width="480" height="100" viewBox="0 0 480 100" fill="none" xmlns="http://www.w3.org/2000/svg">
<path d="M0.75 10.75C0.75 6.33172 4.33172 2.75 8.75 2.75H235.75V69.75H8.75C4.33172 69.75 0.75 66.1683 0.75 61.75V10.75Z" fill="#303030"/>
<path fill-rule="evenodd" clip-rule="evenodd" d="M0 10.75C0 5.91751 3.91751 2 8.75 2H236.5V70.5H8.75C3.9175 70.5 0 66.5825 0 61.75V10.75ZM8.75 3.5C4.74594 3.5 1.5 6.74594 1.5 10.75V61.75C1.5 65.7541 4.74593 69 8.75 69H235V3.5H8.75Z" fill="#303030"/>
<path d="M235.75 2.75H447.75V69.75H235.75V2.75Z" fill="#303030"/>
<path fill-rule="evenodd" clip-rule="evenodd" d="M235 2H448.5V70.5H235V2ZM236.5 3.5V69H447V3.5H236.5Z" fill="#303030"/>
<path d="M447.75 2.75H462.75C467.168 2.75 470.75 6.33172 470.75 10.75V61.75C470.75 66.1683 467.168 69.75 462.75 69.75H447.75V2.75Z" fill="#303030"/>
<path fill-rule="evenodd" clip-rule="evenodd" d="M447 2H462.75C467.582 2 471.5 5.91751 471.5 10.75V61.75C471.5 66.5825 467.582 70.5 462.75 70.5H447V2ZM448.5 3.5V69H462.75C466.754 69 470 65.7541 470 61.75V10.75C470 6.74594 466.754 3.5 462.75 3.5H448.5Z" fill="#303030"/>
<g style="mix-blend-mode:overlay" opacity="0.3">
<path d="M0.75 15.75C0.75 11.3317 4.33172 7.75 8.75 7.75H235.75V74.75H8.75C4.33172 74.75 0.75 71.1683 0.75 66.75V15.75Z" fill="#303030"/>
</g>
<g style="mix-blend-mode:overlay" opacity="0.3">
<path d="M235.75 7.75H447.75V74.75H235.75V7.75Z" fill="#303030"/>
</g>
<g style="mix-blend-mode:overlay" opacity="0.3">
<path d="M447.75 7.75H462.75C467.168 7.75 470.75 11.3317 470.75 15.75V66.75C470.75 71.1683 467.168 74.75 462.75 74.75H447.75V7.75Z" fill="#303030"/>
</g>
<path d="M180.94 95.9422C180.407 95.9422 180.018 95.8088 179.772 95.5422C179.538 95.2755 179.42 94.9182 179.42 94.4702C179.42 94.2568 179.452 93.9795 179.516 93.6382L181.116 85.3022H178.396L178.636 83.9102H183.1L181.068 94.4382L181.404 94.5502L184.252 91.9742L185.212 92.8542L183.836 94.1982C183.495 94.5288 183.191 94.8062 182.924 95.0302C182.658 95.2542 182.412 95.4355 182.188 95.5742C181.964 95.7022 181.751 95.7928 181.548 95.8462C181.346 95.9102 181.143 95.9422 180.94 95.9422Z" fill="#282828"/>
<path d="M171.459 95.942C170.915 95.942 170.435 95.8567 170.019 95.686C169.603 95.5153 169.251 95.2807 168.963 94.982C168.685 94.6727 168.472 94.3047 168.323 93.878C168.173 93.4407 168.099 92.9553 168.099 92.422C168.099 91.6327 168.211 90.9233 168.435 90.294C168.659 89.6647 168.968 89.1313 169.363 88.694C169.768 88.246 170.243 87.9047 170.787 87.67C171.341 87.4247 171.939 87.302 172.579 87.302C173.123 87.302 173.603 87.3873 174.019 87.558C174.435 87.7287 174.781 87.9687 175.059 88.278C175.347 88.5767 175.565 88.9447 175.715 89.382C175.864 89.8193 175.939 90.2993 175.939 90.822C175.939 91.6113 175.827 92.3207 175.603 92.95C175.379 93.5793 175.064 94.118 174.659 94.566C174.264 95.0033 173.789 95.3447 173.235 95.59C172.691 95.8247 172.099 95.942 171.459 95.942ZM171.571 94.582C172.243 94.582 172.781 94.3793 173.187 93.974C173.592 93.558 173.853 92.9873 173.971 92.262L174.147 91.206C174.168 91.0567 174.184 90.918 174.195 90.79C174.216 90.662 174.227 90.55 174.227 90.454C174.227 89.846 174.067 89.398 173.747 89.11C173.437 88.8113 173.011 88.662 172.467 88.662C171.795 88.662 171.256 88.87 170.851 89.286C170.445 89.6913 170.184 90.2567 170.067 90.982L169.891 92.038C169.869 92.1873 169.848 92.326 169.827 92.454C169.816 92.582 169.811 92.694 169.811 92.79C169.811 93.398 169.965 93.8513 170.275 94.15C170.595 94.438 171.027 94.582 171.571 94.582Z" fill="#282828"/>
<path d="M161.865 95.942C161.321 95.942 160.841 95.8567 160.425 95.686C160.009 95.5153 159.657 95.2807 159.369 94.982C159.092 94.6727 158.878 94.3047 158.729 93.878C158.58 93.4407 158.505 92.9553 158.505 92.422C158.505 91.6327 158.617 90.9233 158.841 90.294C159.065 89.6647 159.374 89.1313 159.769 88.694C160.174 88.246 160.649 87.9047 161.193 87.67C161.748 87.4247 162.345 87.302 162.985 87.302C163.529 87.302 164.009 87.3873 164.425 87.558C164.841 87.7287 165.188 87.9687 165.465 88.278C165.753 88.5767 165.972 88.9447 166.121 89.382C166.27 89.8193 166.345 90.2993 166.345 90.822C166.345 91.6113 166.233 92.3207 166.009 92.95C165.785 93.5793 165.47 94.118 165.065 94.566C164.67 95.0033 164.196 95.3447 163.641 95.59C163.097 95.8247 162.505 95.942 161.865 95.942ZM161.977 94.582C162.649 94.582 163.188 94.3793 163.593 93.974C163.998 93.558 164.26 92.9873 164.377 92.262L164.553 91.206C164.574 91.0567 164.59 90.918 164.601 90.79C164.622 90.662 164.633 90.55 164.633 90.454C164.633 89.846 164.473 89.398 164.153 89.11C163.844 88.8113 163.417 88.662 162.873 88.662C162.201 88.662 161.662 88.87 161.257 89.286C160.852 89.6913 160.59 90.2567 160.473 90.982L160.297 92.038C160.276 92.1873 160.254 92.326 160.233 92.454C160.222 92.582 160.217 92.694 160.217 92.79C160.217 93.398 160.372 93.8513 160.681 94.15C161.001 94.438 161.433 94.582 161.977 94.582Z" fill="#282828"/>
<path d="M148.719 95.75L150.575 84.582H154.591C155.071 84.582 155.487 84.6514 155.839 84.79C156.202 84.918 156.501 85.1047 156.735 85.35C156.981 85.5954 157.162 85.8887 157.279 86.23C157.397 86.5714 157.455 86.9447 157.455 87.35C157.455 88.5767 157.119 89.5367 156.447 90.23C155.786 90.9234 154.858 91.27 153.663 91.27H151.231L150.479 95.75H148.719ZM151.471 89.798H153.583C154.703 89.798 155.343 89.318 155.503 88.358L155.599 87.782C155.61 87.7287 155.621 87.6487 155.631 87.542C155.642 87.4354 155.647 87.334 155.647 87.238C155.647 86.4487 155.162 86.054 154.191 86.054H152.095L151.471 89.798Z" fill="#282828"/>
<path d="M132.22 99.1421C131.505 99.1421 130.892 99.0515 130.38 98.8701C129.878 98.6888 129.457 98.3901 129.116 97.9741L130.204 96.8861C130.662 97.4621 131.34 97.7501 132.236 97.7501C132.918 97.7501 133.468 97.5688 133.884 97.2061C134.31 96.8435 134.598 96.1928 134.748 95.2541L135.02 93.5421H134.956C134.646 94.2035 134.284 94.7261 133.868 95.1101C133.452 95.4941 132.908 95.6861 132.236 95.6861C131.5 95.6861 130.94 95.4675 130.556 95.0301C130.182 94.5821 129.996 94.0061 129.996 93.3021C129.996 93.1101 130.001 92.9128 130.012 92.7101C130.033 92.4968 130.07 92.2515 130.124 91.9741L130.86 87.4941H132.572L131.82 92.0381C131.798 92.1875 131.777 92.3475 131.756 92.5181C131.734 92.6781 131.724 92.8275 131.724 92.9661C131.724 93.3395 131.814 93.6541 131.996 93.9101C132.188 94.1661 132.497 94.2941 132.924 94.2941C133.244 94.2941 133.526 94.2195 133.772 94.0701C134.028 93.9208 134.262 93.7181 134.476 93.4621C134.582 93.3341 134.732 93.1101 134.924 92.7901C135.126 92.4701 135.265 92.0915 135.34 91.6541L136.028 87.4941H137.74L136.396 95.5261C136.182 96.7955 135.713 97.7128 134.988 98.2781C134.262 98.8541 133.34 99.1421 132.22 99.1421Z" fill="#282828"/>
<path d="M123.33 95.942C122.818 95.942 122.434 95.8034 122.178 95.526C121.922 95.2487 121.794 94.87 121.794 94.39C121.794 94.294 121.805 94.182 121.826 94.054C121.847 93.9154 121.869 93.7714 121.89 93.622L122.674 88.886H120.402L120.626 87.494H122.162C122.471 87.494 122.701 87.4354 122.85 87.318C122.999 87.19 123.101 86.9714 123.154 86.662L123.506 84.582H125.106L124.626 87.494H127.954L127.73 88.886H124.386L123.474 94.358L123.794 94.518L126.93 92.294L127.778 93.318L126.322 94.406C125.959 94.6834 125.639 94.918 125.362 95.11C125.095 95.302 124.845 95.462 124.61 95.59C124.375 95.7074 124.157 95.7927 123.954 95.846C123.751 95.91 123.543 95.942 123.33 95.942Z" fill="#282828"/>
<path d="M115.096 85.9741C114.691 85.9741 114.408 85.8994 114.248 85.7501C114.088 85.5901 114.008 85.4034 114.008 85.1901C114.008 85.1261 114.013 85.0514 114.024 84.9661C114.035 84.8808 114.051 84.7901 114.072 84.6941C114.125 84.4061 114.243 84.1821 114.424 84.0221C114.616 83.8514 114.915 83.7661 115.32 83.7661C115.725 83.7661 116.008 83.8461 116.168 84.0061C116.328 84.1554 116.408 84.3368 116.408 84.5501C116.408 84.6141 116.403 84.6888 116.392 84.7741C116.381 84.8594 116.365 84.9501 116.344 85.0461C116.291 85.3341 116.168 85.5634 115.976 85.7341C115.795 85.8941 115.501 85.9741 115.096 85.9741ZM114.168 95.9421C113.656 95.9421 113.272 95.8088 113.016 95.5421C112.76 95.2754 112.632 94.9288 112.632 94.5021C112.632 94.3634 112.643 94.2248 112.664 94.0861C112.685 93.9474 112.712 93.7821 112.744 93.5901L113.656 88.8861H110.872L111.096 87.4941H115.624L114.28 94.4221L114.6 94.5501L117.368 92.0061L118.344 92.8861L117.096 94.1341C116.765 94.4648 116.467 94.7474 116.2 94.9821C115.933 95.2061 115.688 95.3928 115.464 95.5421C115.24 95.6808 115.021 95.7821 114.808 95.8461C114.605 95.9101 114.392 95.9421 114.168 95.9421Z" fill="#282828"/>
<path d="M106.254 93.7982H106.19C105.881 94.4382 105.507 94.9555 105.07 95.3502C104.633 95.7448 104.057 95.9422 103.342 95.9422C102.489 95.9422 101.854 95.6648 101.438 95.1102C101.033 94.5555 100.83 93.7662 100.83 92.7422C100.83 92.0808 100.905 91.4248 101.054 90.7742C101.214 90.1235 101.454 89.5422 101.774 89.0302C102.094 88.5182 102.494 88.1022 102.974 87.7822C103.465 87.4622 104.041 87.3022 104.702 87.3022C105.331 87.3022 105.833 87.4462 106.206 87.7342C106.579 88.0222 106.841 88.4382 106.99 88.9822H107.07L107.902 83.9102H109.614L107.646 95.7502H105.934L106.254 93.7982ZM104.03 94.5502C104.659 94.5502 105.225 94.2622 105.726 93.6862C105.907 93.4835 106.078 93.2328 106.238 92.9342C106.398 92.6355 106.51 92.2942 106.574 91.9102L106.846 90.2622C106.931 89.7822 106.825 89.4035 106.526 89.1262C106.238 88.8382 105.806 88.6942 105.23 88.6942C104.515 88.6942 103.961 88.9128 103.566 89.3502C103.182 89.7768 102.931 90.3262 102.814 90.9982L102.622 92.1342C102.601 92.2302 102.585 92.3422 102.574 92.4702C102.563 92.5875 102.558 92.7048 102.558 92.8222C102.558 93.3448 102.675 93.7662 102.91 94.0862C103.145 94.3955 103.518 94.5502 104.03 94.5502Z" fill="#282828"/>
<path d="M95.9086 85.9741C95.5032 85.9741 95.2206 85.8994 95.0606 85.7501C94.9006 85.5901 94.8206 85.4034 94.8206 85.1901C94.8206 85.1261 94.8259 85.0514 94.8366 84.9661C94.8472 84.8808 94.8632 84.7901 94.8846 84.6941C94.9379 84.4061 95.0552 84.1821 95.2366 84.0221C95.4286 83.8514 95.7272 83.7661 96.1326 83.7661C96.5379 83.7661 96.8206 83.8461 96.9806 84.0061C97.1406 84.1554 97.2206 84.3368 97.2206 84.5501C97.2206 84.6141 97.2152 84.6888 97.2046 84.7741C97.1939 84.8594 97.1779 84.9501 97.1566 85.0461C97.1032 85.3341 96.9806 85.5634 96.7886 85.7341C96.6072 85.8941 96.3139 85.9741 95.9086 85.9741ZM94.9806 95.9421C94.4686 95.9421 94.0846 95.8088 93.8286 95.5421C93.5726 95.2754 93.4446 94.9288 93.4446 94.5021C93.4446 94.3634 93.4552 94.2248 93.4766 94.0861C93.4979 93.9474 93.5246 93.7821 93.5566 93.5901L94.4686 88.8861H91.6846L91.9086 87.4941H96.4366L95.0926 94.4221L95.4126 94.5501L98.1806 92.0061L99.1566 92.8861L97.9086 94.1341C97.5779 94.4648 97.2792 94.7474 97.0126 94.9821C96.7459 95.2061 96.5006 95.3928 96.2766 95.5421C96.0526 95.6808 95.8339 95.7821 95.6206 95.8461C95.4179 95.9101 95.2046 95.9421 94.9806 95.9421Z" fill="#282828"/>
<path d="M87.019 93.7981H86.939C86.6297 94.4595 86.267 94.9821 85.851 95.3661C85.435 95.7501 84.891 95.9421 84.219 95.9421C83.483 95.9421 82.923 95.7235 82.539 95.2861C82.1657 94.8381 81.979 94.2621 81.979 93.5581C81.979 93.3661 81.9843 93.1688 81.995 92.9661C82.0163 92.7528 82.0537 92.5075 82.107 92.2301L82.891 87.4941H84.603L83.803 92.2941C83.7817 92.4435 83.7603 92.6035 83.739 92.7741C83.7177 92.9341 83.707 93.0835 83.707 93.2221C83.707 93.5955 83.7977 93.9101 83.979 94.1661C84.171 94.4221 84.4803 94.5501 84.907 94.5501C85.227 94.5501 85.5097 94.4755 85.755 94.3261C86.011 94.1768 86.2457 93.9741 86.459 93.7181C86.5657 93.5901 86.715 93.3661 86.907 93.0461C87.1097 92.7261 87.2483 92.3475 87.323 91.9101L88.059 87.4941H89.771L88.395 95.7501H86.683L87.019 93.7981Z" fill="#282828"/>
<path d="M77.4728 93.798H77.4088C77.0995 94.438 76.7262 94.9553 76.2888 95.35C75.8515 95.7447 75.2755 95.942 74.5608 95.942C73.7075 95.942 73.0728 95.6647 72.6568 95.11C72.2515 94.5553 72.0488 93.766 72.0488 92.742C72.0488 92.0807 72.1235 91.4247 72.2728 90.774C72.4328 90.1233 72.6728 89.542 72.9928 89.03C73.3128 88.518 73.7128 88.102 74.1928 87.782C74.6835 87.462 75.2595 87.302 75.9208 87.302C76.5502 87.302 77.0515 87.446 77.4248 87.734C77.7982 88.022 78.0595 88.438 78.2088 88.982H78.2888L78.5288 87.494H80.2408L78.3208 98.95H76.6088L77.4728 93.798ZM75.2488 94.55C75.8782 94.55 76.4435 94.262 76.9448 93.686C77.1262 93.4833 77.2968 93.2327 77.4568 92.934C77.6168 92.6353 77.7288 92.294 77.7928 91.91L78.0648 90.262C78.1502 89.782 78.0435 89.4033 77.7448 89.126C77.4568 88.838 77.0248 88.694 76.4488 88.694C75.7342 88.694 75.1795 88.9127 74.7848 89.35C74.4008 89.7767 74.1502 90.326 74.0328 90.998L73.8408 92.134C73.8195 92.23 73.8035 92.342 73.7928 92.47C73.7822 92.5873 73.7768 92.7047 73.7768 92.822C73.7768 93.3447 73.8942 93.766 74.1288 94.086C74.3635 94.3953 74.7368 94.55 75.2488 94.55Z" fill="#282828"/>
<path d="M67.1273 85.9741C66.722 85.9741 66.4393 85.8994 66.2793 85.7501C66.1193 85.5901 66.0393 85.4034 66.0393 85.1901C66.0393 85.1261 66.0447 85.0514 66.0553 84.9661C66.066 84.8808 66.082 84.7901 66.1033 84.6941C66.1567 84.4061 66.274 84.1821 66.4553 84.0221C66.6473 83.8514 66.946 83.7661 67.3513 83.7661C67.7567 83.7661 68.0393 83.8461 68.1993 84.0061C68.3593 84.1554 68.4393 84.3368 68.4393 84.5501C68.4393 84.6141 68.434 84.6888 68.4233 84.7741C68.4127 84.8594 68.3967 84.9501 68.3753 85.0461C68.322 85.3341 68.1993 85.5634 68.0073 85.7341C67.826 85.8941 67.5327 85.9741 67.1273 85.9741ZM66.1993 95.9421C65.6873 95.9421 65.3033 95.8088 65.0473 95.5421C64.7913 95.2754 64.6633 94.9288 64.6633 94.5021C64.6633 94.3634 64.674 94.2248 64.6953 94.0861C64.7167 93.9474 64.7433 93.7821 64.7753 93.5901L65.6873 88.8861H62.9033L63.1273 87.4941H67.6553L66.3113 94.4221L66.6313 94.5501L69.3993 92.0061L70.3753 92.8861L69.1273 94.1341C68.7967 94.4648 68.498 94.7474 68.2313 94.9821C67.9647 95.2061 67.7193 95.3928 67.4953 95.5421C67.2713 95.6808 67.0527 95.7821 66.8393 95.8461C66.6367 95.9101 66.4233 95.9421 66.1993 95.9421Z" fill="#282828"/>
<path d="M53.1655 95.75L55.0215 84.582H56.7815L55.1655 94.262H60.2695L60.0135 95.75H53.1655Z" fill="#282828"/>
<path d="M369.199 95.942C368.068 95.942 367.215 95.6433 366.639 95.046C366.073 94.4487 365.791 93.5687 365.791 92.406C365.791 91.6487 365.903 90.9607 366.127 90.342C366.361 89.7127 366.681 89.174 367.087 88.726C367.503 88.278 367.993 87.9313 368.559 87.686C369.135 87.43 369.769 87.302 370.463 87.302C370.879 87.302 371.263 87.35 371.615 87.446C371.967 87.542 372.271 87.686 372.527 87.878C372.793 88.0593 373.001 88.294 373.151 88.582C373.3 88.8593 373.375 89.1793 373.375 89.542C373.375 89.8513 373.305 90.166 373.167 90.486C373.039 90.806 372.767 91.0993 372.351 91.366C371.935 91.6327 371.343 91.8567 370.575 92.038C369.807 92.2193 368.793 92.3313 367.535 92.374C367.524 92.4487 367.519 92.518 367.519 92.582C367.519 92.6353 367.519 92.6727 367.519 92.694C367.519 92.95 367.545 93.1953 367.599 93.43C367.663 93.654 367.764 93.8513 367.903 94.022C368.041 94.1927 368.228 94.326 368.463 94.422C368.708 94.518 369.017 94.566 369.391 94.566C369.657 94.566 369.897 94.5393 370.111 94.486C370.335 94.422 370.543 94.326 370.735 94.198C370.937 94.07 371.135 93.9047 371.327 93.702C371.529 93.4887 371.743 93.2273 371.967 92.918L373.087 93.638C372.863 93.99 372.623 94.31 372.367 94.598C372.111 94.8753 371.823 95.1153 371.503 95.318C371.193 95.51 370.847 95.6593 370.463 95.766C370.089 95.8833 369.668 95.942 369.199 95.942ZM370.303 88.598C369.599 88.598 369.023 88.806 368.575 89.222C368.127 89.638 367.833 90.2727 367.695 91.126L367.663 91.302C368.559 91.27 369.268 91.2007 369.791 91.094C370.324 90.9767 370.729 90.8433 371.007 90.694C371.295 90.534 371.476 90.3633 371.551 90.182C371.636 90.0007 371.679 89.8247 371.679 89.654C371.679 89.3447 371.572 89.094 371.359 88.902C371.156 88.6993 370.804 88.598 370.303 88.598Z" fill="#282828"/>
<path d="M359.269 95.9419C358.735 95.9419 358.346 95.8086 358.101 95.5419C357.866 95.2752 357.749 94.9179 357.749 94.4699C357.749 94.2566 357.781 93.9792 357.845 93.6379L359.445 85.3019H356.725L356.965 83.9099H361.429L359.397 94.4379L359.733 94.5499L362.581 91.9739L363.541 92.8539L362.165 94.1979C361.823 94.5286 361.519 94.8059 361.253 95.0299C360.986 95.2539 360.741 95.4352 360.517 95.5739C360.293 95.7019 360.079 95.7926 359.877 95.8459C359.674 95.9099 359.471 95.9419 359.269 95.9419Z" fill="#282828"/>
<path d="M348.731 95.942C347.91 95.942 347.302 95.6647 346.907 95.11C346.512 94.5553 346.315 93.766 346.315 92.742C346.315 92.0807 346.39 91.4247 346.539 90.774C346.688 90.1233 346.918 89.542 347.227 89.03C347.536 88.518 347.926 88.102 348.395 87.782C348.875 87.462 349.44 87.302 350.091 87.302C350.699 87.302 351.184 87.446 351.547 87.734C351.92 88.022 352.182 88.438 352.331 88.982H352.411L352.651 87.494H354.363L353.227 94.374H354.235L353.995 95.75H352.955C352.4 95.75 352 95.6113 351.755 95.334C351.52 95.0567 351.446 94.6833 351.531 94.214L351.595 93.798H351.531C351.222 94.438 350.854 94.9553 350.427 95.35C350 95.7447 349.435 95.942 348.731 95.942ZM349.419 94.55C350.048 94.55 350.603 94.262 351.083 93.686C351.254 93.4833 351.419 93.2327 351.579 92.934C351.739 92.6353 351.851 92.294 351.915 91.91L352.187 90.262C352.272 89.782 352.171 89.4033 351.883 89.126C351.606 88.838 351.184 88.694 350.619 88.694C349.926 88.694 349.392 88.9127 349.019 89.35C348.656 89.7767 348.416 90.326 348.299 90.998L348.107 92.134C348.086 92.23 348.07 92.342 348.059 92.47C348.048 92.5873 348.043 92.7047 348.043 92.822C348.043 93.3447 348.15 93.766 348.363 94.086C348.587 94.3953 348.939 94.55 349.419 94.55Z" fill="#282828"/>
<path d="M340.177 95.942C339.367 95.942 338.663 95.8193 338.065 95.574C337.468 95.318 337.004 94.95 336.673 94.47L337.761 93.51C338.348 94.2567 339.196 94.63 340.305 94.63C340.935 94.63 341.425 94.518 341.777 94.294C342.14 94.07 342.321 93.75 342.321 93.334C342.321 93.014 342.22 92.7953 342.017 92.678C341.825 92.55 341.58 92.4593 341.281 92.406L340.081 92.198C339.772 92.1447 339.473 92.07 339.185 91.974C338.908 91.878 338.663 91.75 338.449 91.59C338.236 91.4193 338.06 91.206 337.921 90.95C337.793 90.694 337.729 90.3793 337.729 90.006C337.729 89.558 337.82 89.1687 338.001 88.838C338.193 88.4967 338.449 88.214 338.769 87.99C339.1 87.7553 339.484 87.5847 339.921 87.478C340.359 87.3607 340.833 87.302 341.345 87.302C342.081 87.302 342.716 87.414 343.249 87.638C343.793 87.8513 344.22 88.1447 344.529 88.518L343.473 89.526C343.313 89.302 343.052 89.094 342.689 88.902C342.327 88.71 341.847 88.614 341.249 88.614C340.652 88.614 340.193 88.7207 339.873 88.934C339.564 89.1473 339.409 89.446 339.409 89.83C339.409 90.1607 339.511 90.3847 339.713 90.502C339.927 90.6193 340.183 90.7047 340.481 90.758L341.681 90.982C341.98 91.0353 342.268 91.11 342.545 91.206C342.823 91.2913 343.068 91.414 343.281 91.574C343.505 91.7233 343.681 91.926 343.809 92.182C343.948 92.4273 344.017 92.7367 344.017 93.11C344.017 93.5473 343.927 93.942 343.745 94.294C343.564 94.646 343.303 94.9447 342.961 95.19C342.631 95.4353 342.225 95.622 341.745 95.75C341.276 95.878 340.753 95.942 340.177 95.942Z" fill="#282828"/>
<path d="M330.824 95.942C329.693 95.942 328.84 95.6433 328.264 95.046C327.698 94.4487 327.416 93.5687 327.416 92.406C327.416 91.6487 327.528 90.9607 327.752 90.342C327.986 89.7127 328.306 89.174 328.712 88.726C329.128 88.278 329.618 87.9313 330.184 87.686C330.76 87.43 331.394 87.302 332.088 87.302C332.504 87.302 332.888 87.35 333.24 87.446C333.592 87.542 333.896 87.686 334.152 87.878C334.418 88.0593 334.626 88.294 334.776 88.582C334.925 88.8593 335 89.1793 335 89.542C335 89.8513 334.93 90.166 334.792 90.486C334.664 90.806 334.392 91.0993 333.976 91.366C333.56 91.6327 332.968 91.8567 332.2 92.038C331.432 92.2193 330.418 92.3313 329.16 92.374C329.149 92.4487 329.144 92.518 329.144 92.582C329.144 92.6353 329.144 92.6727 329.144 92.694C329.144 92.95 329.17 93.1953 329.224 93.43C329.288 93.654 329.389 93.8513 329.528 94.022C329.666 94.1927 329.853 94.326 330.088 94.422C330.333 94.518 330.642 94.566 331.016 94.566C331.282 94.566 331.522 94.5393 331.736 94.486C331.96 94.422 332.168 94.326 332.36 94.198C332.562 94.07 332.76 93.9047 332.952 93.702C333.154 93.4887 333.368 93.2273 333.592 92.918L334.712 93.638C334.488 93.99 334.248 94.31 333.992 94.598C333.736 94.8753 333.448 95.1153 333.128 95.318C332.818 95.51 332.472 95.6593 332.088 95.766C331.714 95.8833 331.293 95.942 330.824 95.942ZM331.928 88.598C331.224 88.598 330.648 88.806 330.2 89.222C329.752 89.638 329.458 90.2727 329.32 91.126L329.288 91.302C330.184 91.27 330.893 91.2007 331.416 91.094C331.949 90.9767 332.354 90.8433 332.632 90.694C332.92 90.534 333.101 90.3633 333.176 90.182C333.261 90.0007 333.304 89.8247 333.304 89.654C333.304 89.3447 333.197 89.094 332.984 88.902C332.781 88.6993 332.429 88.598 331.928 88.598Z" fill="#282828"/>
<path d="M319.406 95.7499L320.542 88.8859H318.414L318.654 87.4939H322.494L322.094 89.8299H322.19C322.499 89.1152 322.894 88.5499 323.374 88.1339C323.854 87.7072 324.494 87.4939 325.294 87.4939H326.254L325.966 89.2059H324.526C324.067 89.2059 323.688 89.2699 323.39 89.3979C323.102 89.5152 322.846 89.7126 322.622 89.9899C322.515 90.1179 322.366 90.3259 322.174 90.6139C321.992 90.9019 321.87 91.2379 321.806 91.6219L321.118 95.7499H319.406Z" fill="#282828"/>
<path d="M307.86 95.75L309.716 84.582H313.732C314.212 84.582 314.628 84.6514 314.98 84.79C315.343 84.918 315.641 85.1047 315.876 85.35C316.121 85.5954 316.303 85.8887 316.42 86.23C316.537 86.5714 316.596 86.9447 316.596 87.35C316.596 88.5767 316.26 89.5367 315.588 90.23C314.927 90.9234 313.999 91.27 312.804 91.27H310.372L309.62 95.75H307.86ZM310.612 89.798H312.724C313.844 89.798 314.484 89.318 314.644 88.358L314.74 87.782C314.751 87.7287 314.761 87.6487 314.772 87.542C314.783 87.4354 314.788 87.334 314.788 87.238C314.788 86.4487 314.303 86.054 313.332 86.054H311.236L310.612 89.798Z" fill="#282828"/>
<path d="M469.876 95.75L471.252 87.494H472.708L472.484 88.854H472.564C472.756 88.406 472.991 88.038 473.268 87.75C473.556 87.4513 473.924 87.302 474.372 87.302C474.82 87.302 475.151 87.446 475.364 87.734C475.588 88.022 475.679 88.4113 475.636 88.902H475.7C475.903 88.422 476.159 88.038 476.468 87.75C476.788 87.4513 477.193 87.302 477.684 87.302C478.153 87.302 478.505 87.4353 478.74 87.702C478.985 87.9687 479.108 88.358 479.108 88.87C479.108 89.03 479.097 89.2273 479.076 89.462C479.055 89.686 479.028 89.894 478.996 90.086L478.052 95.75H476.596L477.508 90.294C477.529 90.1447 477.551 89.9847 477.572 89.814C477.593 89.6433 477.604 89.5047 477.604 89.398C477.604 88.8753 477.396 88.614 476.98 88.614C476.617 88.614 476.313 88.8113 476.068 89.206C475.951 89.398 475.844 89.6113 475.748 89.846C475.652 90.07 475.583 90.3047 475.54 90.55L474.676 95.75H473.22L474.148 90.214C474.169 90.0647 474.185 89.926 474.196 89.798C474.217 89.6593 474.228 89.5313 474.228 89.414C474.228 88.8807 474.036 88.614 473.652 88.614C473.289 88.614 472.975 88.8113 472.708 89.206C472.569 89.4087 472.463 89.622 472.388 89.846C472.313 90.0593 472.255 90.2673 472.212 90.47L471.332 95.75H469.876Z" fill="#282828"/>
<path d="M463.434 95.942C462.613 95.942 462.005 95.6647 461.61 95.11C461.215 94.5553 461.018 93.766 461.018 92.742C461.018 92.0807 461.093 91.4247 461.242 90.774C461.391 90.1233 461.621 89.542 461.93 89.03C462.239 88.518 462.629 88.102 463.098 87.782C463.578 87.462 464.143 87.302 464.794 87.302C465.402 87.302 465.887 87.446 466.25 87.734C466.623 88.022 466.885 88.438 467.034 88.982H467.114L467.354 87.494H469.066L467.93 94.374H468.938L468.698 95.75H467.658C467.103 95.75 466.703 95.6113 466.458 95.334C466.223 95.0567 466.149 94.6833 466.234 94.214L466.298 93.798H466.234C465.925 94.438 465.557 94.9553 465.13 95.35C464.703 95.7447 464.138 95.942 463.434 95.942ZM464.122 94.55C464.751 94.55 465.306 94.262 465.786 93.686C465.957 93.4833 466.122 93.2327 466.282 92.934C466.442 92.6353 466.554 92.294 466.618 91.91L466.89 90.262C466.975 89.782 466.874 89.4033 466.586 89.126C466.309 88.838 465.887 88.694 465.322 88.694C464.629 88.694 464.095 88.9127 463.722 89.35C463.359 89.7767 463.119 90.326 463.002 90.998L462.81 92.134C462.789 92.23 462.773 92.342 462.762 92.47C462.751 92.5873 462.746 92.7047 462.746 92.822C462.746 93.3447 462.853 93.766 463.066 94.086C463.29 94.3953 463.642 94.55 464.122 94.55Z" fill="#282828"/>
<path d="M455.12 95.942C453.99 95.942 453.136 95.6433 452.56 95.046C451.995 94.4487 451.712 93.5687 451.712 92.406C451.712 91.6487 451.824 90.9607 452.048 90.342C452.283 89.7127 452.603 89.174 453.008 88.726C453.424 88.278 453.915 87.9313 454.48 87.686C455.056 87.43 455.691 87.302 456.384 87.302C456.8 87.302 457.184 87.35 457.536 87.446C457.888 87.542 458.192 87.686 458.448 87.878C458.715 88.0593 458.923 88.294 459.072 88.582C459.222 88.8593 459.296 89.1793 459.296 89.542C459.296 89.8513 459.227 90.166 459.088 90.486C458.96 90.806 458.688 91.0993 458.272 91.366C457.856 91.6327 457.264 91.8567 456.496 92.038C455.728 92.2193 454.715 92.3313 453.456 92.374C453.446 92.4487 453.44 92.518 453.44 92.582C453.44 92.6353 453.44 92.6727 453.44 92.694C453.44 92.95 453.467 93.1953 453.52 93.43C453.584 93.654 453.686 93.8513 453.824 94.022C453.963 94.1927 454.15 94.326 454.384 94.422C454.63 94.518 454.939 94.566 455.312 94.566C455.579 94.566 455.819 94.5393 456.032 94.486C456.256 94.422 456.464 94.326 456.656 94.198C456.859 94.07 457.056 93.9047 457.248 93.702C457.451 93.4887 457.664 93.2273 457.888 92.918L459.008 93.638C458.784 93.99 458.544 94.31 458.288 94.598C458.032 94.8753 457.744 95.1153 457.424 95.318C457.115 95.51 456.768 95.6593 456.384 95.766C456.011 95.8833 455.59 95.942 455.12 95.942ZM456.224 88.598C455.52 88.598 454.944 88.806 454.496 89.222C454.048 89.638 453.755 90.2727 453.616 91.126L453.584 91.302C454.48 91.27 455.19 91.2007 455.712 91.094C456.246 90.9767 456.651 90.8433 456.928 90.694C457.216 90.534 457.398 90.3633 457.472 90.182C457.558 90.0007 457.6 89.8247 457.6 89.654C457.6 89.3447 457.494 89.094 457.28 88.902C457.078 88.6993 456.726 88.598 456.224 88.598Z" fill="#282828"/>
<path d="M447.671 86.07L446.055 95.75H444.295L445.911 86.07H442.391L442.647 84.582H451.447L451.191 86.07H447.671Z" fill="#282828"/>
<path d="M0.75 8.75C0.75 4.33172 4.33172 0.75 8.75 0.75H235.75V67.75H8.75C4.33172 67.75 0.75 64.1683 0.75 59.75V8.75Z" fill="#60B157"/>
<path fill-rule="evenodd" clip-rule="evenodd" d="M0 8.75C0 3.91751 3.91751 0 8.75 0H236.5V68.5H8.75C3.9175 68.5 0 64.5825 0 59.75V8.75ZM8.75 1.5C4.74594 1.5 1.5 4.74594 1.5 8.75V59.75C1.5 63.7541 4.74593 67 8.75 67H235V1.5H8.75Z" fill="#303030"/>
<path d="M235.75 0.75H447.75V67.75H235.75V0.75Z" fill="#FF5D00"/>
<path fill-rule="evenodd" clip-rule="evenodd" d="M235 0H448.5V68.5H235V0ZM236.5 1.5V67H447V1.5H236.5Z" fill="#303030"/>
<path d="M447.75 0.75H462.75C467.168 0.75 470.75 4.33172 470.75 8.75V59.75C470.75 64.1683 467.168 67.75 462.75 67.75H447.75V0.75Z" fill="white"/>
<path fill-rule="evenodd" clip-rule="evenodd" d="M447 0H462.75C467.582 0 471.5 3.91751 471.5 8.75V59.75C471.5 64.5825 467.582 68.5 462.75 68.5H447V0ZM448.5 1.5V67H462.75C466.754 67 470 63.7541 470 59.75V8.75C470 4.74594 466.754 1.5 462.75 1.5H448.5Z" fill="#303030"/>
<path d="M126.087 35.1659C125.426 35.1659 124.908 34.9686 124.535 34.5739C124.162 34.1792 123.975 33.6032 123.975 32.8459C123.975 32.3339 124.044 31.8699 124.183 31.4539C124.332 31.0272 124.53 30.6646 124.775 30.3659C125.031 30.0566 125.335 29.8166 125.687 29.6459C126.039 29.4752 126.423 29.3899 126.839 29.3899C127.5 29.3899 128.018 29.5872 128.391 29.9819C128.764 30.3766 128.951 30.9526 128.951 31.7099C128.951 32.2219 128.876 32.6912 128.727 33.1179C128.588 33.5446 128.391 33.9126 128.135 34.2219C127.89 34.5206 127.591 34.7552 127.239 34.9259C126.887 35.0859 126.503 35.1659 126.087 35.1659ZM126.151 34.0939C126.578 34.0939 126.892 33.9606 127.095 33.6939C127.298 33.4166 127.431 33.0859 127.495 32.7019C127.548 32.3606 127.591 32.1046 127.623 31.9339C127.655 31.7526 127.671 31.6032 127.671 31.4859C127.671 30.8032 127.372 30.4619 126.775 30.4619C126.348 30.4619 126.034 30.6006 125.831 30.8779C125.628 31.1446 125.495 31.4699 125.431 31.8539C125.378 32.1952 125.335 32.4566 125.303 32.6379C125.271 32.8086 125.255 32.9526 125.255 33.0699C125.255 33.7526 125.554 34.0939 126.151 34.0939ZM132.247 29.5819H133.655L130.359 34.3819H128.951L132.247 29.5819ZM125.863 35.9499H127.271L123.975 40.7499H122.567L125.863 35.9499ZM129.383 40.9419C128.722 40.9419 128.204 40.7446 127.831 40.3499C127.458 39.9552 127.271 39.3792 127.271 38.6219C127.271 38.1099 127.34 37.6459 127.479 37.2299C127.628 36.8032 127.826 36.4406 128.071 36.1419C128.327 35.8326 128.631 35.5926 128.983 35.4219C129.335 35.2512 129.719 35.1659 130.135 35.1659C130.796 35.1659 131.314 35.3632 131.687 35.7579C132.06 36.1526 132.247 36.7286 132.247 37.4859C132.247 37.9979 132.172 38.4672 132.023 38.8939C131.884 39.3206 131.687 39.6886 131.431 39.9979C131.186 40.2966 130.887 40.5312 130.535 40.7019C130.183 40.8619 129.799 40.9419 129.383 40.9419ZM129.447 39.8699C129.874 39.8699 130.188 39.7366 130.391 39.4699C130.594 39.1926 130.727 38.8619 130.791 38.4779C130.844 38.1366 130.887 37.8806 130.919 37.7099C130.951 37.5286 130.967 37.3792 130.967 37.2619C130.967 36.5792 130.668 36.2379 130.071 36.2379C129.644 36.2379 129.33 36.3766 129.127 36.6539C128.924 36.9206 128.791 37.2459 128.727 37.6299C128.674 37.9712 128.631 38.2326 128.599 38.4139C128.567 38.5846 128.551 38.7286 128.551 38.8459C128.551 39.5286 128.85 39.8699 129.447 39.8699Z" fill="#282828"/>
<path d="M117.741 40.9419C116.536 40.9419 115.656 40.5952 115.101 39.9019C114.546 39.1979 114.269 38.2112 114.269 36.9419C114.269 36.4086 114.301 35.8539 114.365 35.2779C114.44 34.7019 114.557 34.1366 114.717 33.5819C114.877 33.0166 115.08 32.4832 115.325 31.9819C115.581 31.4699 115.896 31.0219 116.269 30.6379C116.642 30.2539 117.074 29.9499 117.565 29.7259C118.056 29.5019 118.616 29.3899 119.245 29.3899C120.45 29.3899 121.33 29.7419 121.885 30.4459C122.44 31.1392 122.717 32.1206 122.717 33.3899C122.717 33.9232 122.68 34.4779 122.605 35.0539C122.541 35.6299 122.429 36.2006 122.269 36.7659C122.109 37.3206 121.901 37.8539 121.645 38.3659C121.4 38.8672 121.09 39.3099 120.717 39.6939C120.344 40.0779 119.912 40.3819 119.421 40.6059C118.93 40.8299 118.37 40.9419 117.741 40.9419ZM117.789 39.5019C118.194 39.5019 118.552 39.4272 118.861 39.2779C119.17 39.1179 119.437 38.8939 119.661 38.6059C119.896 38.3072 120.088 37.9499 120.237 37.5339C120.386 37.1072 120.504 36.6326 120.589 36.1099L120.893 34.2859C120.936 34.0406 120.968 33.8112 120.989 33.5979C121.01 33.3739 121.021 33.1659 121.021 32.9739C121.021 32.3019 120.877 31.7792 120.589 31.4059C120.301 31.0219 119.837 30.8299 119.197 30.8299C118.792 30.8299 118.434 30.9099 118.125 31.0699C117.816 31.2192 117.544 31.4432 117.309 31.7419C117.085 32.0299 116.898 32.3872 116.749 32.8139C116.6 33.2299 116.482 33.6992 116.397 34.2219L116.093 36.0459C116.05 36.2912 116.018 36.5259 115.997 36.7499C115.976 36.9632 115.965 37.1659 115.965 37.3579C115.965 38.0299 116.109 38.5579 116.397 38.9419C116.685 39.3152 117.149 39.5019 117.789 39.5019ZM118.365 36.0939C118.034 36.0939 117.8 36.0352 117.661 35.9179C117.522 35.8006 117.453 35.6512 117.453 35.4699C117.453 35.3739 117.469 35.2299 117.501 35.0379C117.544 34.7926 117.645 34.6006 117.805 34.4619C117.976 34.3126 118.248 34.2379 118.621 34.2379C118.952 34.2379 119.186 34.2966 119.325 34.4139C119.464 34.5312 119.533 34.6806 119.533 34.8619C119.533 34.9579 119.517 35.1019 119.485 35.2939C119.442 35.5392 119.336 35.7366 119.165 35.8859C119.005 36.0246 118.738 36.0939 118.365 36.0939Z" fill="#282828"/>
<path d="M112.883 31.1018H107.843L106.899 35.1018H106.995C107.155 34.8778 107.321 34.6805 107.491 34.5098C107.662 34.3285 107.849 34.1738 108.051 34.0458C108.254 33.9178 108.478 33.8218 108.723 33.7578C108.969 33.6938 109.246 33.6618 109.555 33.6618C109.993 33.6618 110.393 33.7311 110.755 33.8698C111.129 34.0085 111.443 34.2058 111.699 34.4618C111.966 34.7178 112.174 35.0325 112.323 35.4058C112.473 35.7685 112.547 36.1845 112.547 36.6538C112.547 37.1978 112.451 37.7311 112.259 38.2538C112.067 38.7658 111.785 39.2245 111.411 39.6298C111.038 40.0245 110.569 40.3445 110.003 40.5898C109.438 40.8245 108.782 40.9418 108.035 40.9418C107.534 40.9418 107.086 40.8831 106.691 40.7658C106.307 40.6591 105.966 40.5098 105.667 40.3178C105.379 40.1258 105.129 39.9125 104.915 39.6778C104.713 39.4325 104.547 39.1818 104.419 38.9258L105.859 37.9978C106.062 38.4245 106.334 38.7765 106.675 39.0538C107.027 39.3205 107.518 39.4538 108.147 39.4538C108.841 39.4538 109.395 39.2778 109.811 38.9258C110.227 38.5631 110.489 38.0671 110.595 37.4378C110.617 37.2885 110.633 37.1711 110.643 37.0858C110.654 37.0005 110.659 36.8938 110.659 36.7658C110.659 36.2431 110.499 35.8378 110.179 35.5498C109.87 35.2618 109.411 35.1178 108.803 35.1178C108.313 35.1178 107.902 35.2085 107.571 35.3898C107.251 35.5711 106.969 35.7738 106.723 35.9978L105.299 35.8058L106.739 29.5818H113.139L112.883 31.1018Z" fill="#282828"/>
<path d="M349.086 35.1659C348.425 35.1659 347.908 34.9686 347.534 34.5739C347.161 34.1792 346.974 33.6032 346.974 32.8459C346.974 32.3339 347.044 31.8699 347.182 31.4539C347.332 31.0272 347.529 30.6646 347.774 30.3659C348.03 30.0566 348.334 29.8166 348.686 29.6459C349.038 29.4752 349.422 29.3899 349.838 29.3899C350.5 29.3899 351.017 29.5872 351.39 29.9819C351.764 30.3766 351.95 30.9526 351.95 31.7099C351.95 32.2219 351.876 32.6912 351.726 33.1179C351.588 33.5446 351.39 33.9126 351.134 34.2219C350.889 34.5206 350.59 34.7552 350.238 34.9259C349.886 35.0859 349.502 35.1659 349.086 35.1659ZM349.15 34.0939C349.577 34.0939 349.892 33.9606 350.094 33.6939C350.297 33.4166 350.43 33.0859 350.494 32.7019C350.548 32.3606 350.59 32.1046 350.622 31.9339C350.654 31.7526 350.67 31.6032 350.67 31.4859C350.67 30.8032 350.372 30.4619 349.774 30.4619C349.348 30.4619 349.033 30.6006 348.83 30.8779C348.628 31.1446 348.494 31.4699 348.43 31.8539C348.377 32.1952 348.334 32.4566 348.302 32.6379C348.27 32.8086 348.254 32.9526 348.254 33.0699C348.254 33.7526 348.553 34.0939 349.15 34.0939ZM355.246 29.5819H356.654L353.358 34.3819H351.95L355.246 29.5819ZM348.862 35.9499H350.27L346.974 40.7499H345.566L348.862 35.9499ZM352.382 40.9419C351.721 40.9419 351.204 40.7446 350.83 40.3499C350.457 39.9552 350.27 39.3792 350.27 38.6219C350.27 38.1099 350.34 37.6459 350.478 37.2299C350.628 36.8032 350.825 36.4406 351.07 36.1419C351.326 35.8326 351.63 35.5926 351.982 35.4219C352.334 35.2512 352.718 35.1659 353.134 35.1659C353.796 35.1659 354.313 35.3632 354.686 35.7579C355.06 36.1526 355.246 36.7286 355.246 37.4859C355.246 37.9979 355.172 38.4672 355.022 38.8939C354.884 39.3206 354.686 39.6886 354.43 39.9979C354.185 40.2966 353.886 40.5312 353.534 40.7019C353.182 40.8619 352.798 40.9419 352.382 40.9419ZM352.446 39.8699C352.873 39.8699 353.188 39.7366 353.39 39.4699C353.593 39.1926 353.726 38.8619 353.79 38.4779C353.844 38.1366 353.886 37.8806 353.918 37.7099C353.95 37.5286 353.966 37.3792 353.966 37.2619C353.966 36.5792 353.668 36.2379 353.07 36.2379C352.644 36.2379 352.329 36.3766 352.126 36.6539C351.924 36.9206 351.79 37.2459 351.726 37.6299C351.673 37.9712 351.63 38.2326 351.598 38.4139C351.566 38.5846 351.55 38.7286 351.55 38.8459C351.55 39.5286 351.849 39.8699 352.446 39.8699Z" fill="#282828"/>
<path d="M345.477 31.1018H340.437L339.493 35.1018H339.589C339.749 34.8778 339.914 34.6805 340.085 34.5098C340.255 34.3285 340.442 34.1738 340.645 34.0458C340.847 33.9178 341.071 33.8218 341.317 33.7578C341.562 33.6938 341.839 33.6618 342.149 33.6618C342.586 33.6618 342.986 33.7311 343.349 33.8698C343.722 34.0085 344.037 34.2058 344.293 34.4618C344.559 34.7178 344.767 35.0325 344.917 35.4058C345.066 35.7685 345.141 36.1845 345.141 36.6538C345.141 37.1978 345.045 37.7311 344.853 38.2538C344.661 38.7658 344.378 39.2245 344.005 39.6298C343.631 40.0245 343.162 40.3445 342.597 40.5898C342.031 40.8245 341.375 40.9418 340.629 40.9418C340.127 40.9418 339.679 40.8831 339.285 40.7658C338.901 40.6591 338.559 40.5098 338.261 40.3178C337.973 40.1258 337.722 39.9125 337.509 39.6778C337.306 39.4325 337.141 39.1818 337.013 38.9258L338.453 37.9978C338.655 38.4245 338.927 38.7765 339.269 39.0538C339.621 39.3205 340.111 39.4538 340.741 39.4538C341.434 39.4538 341.989 39.2778 342.405 38.9258C342.821 38.5631 343.082 38.0671 343.189 37.4378C343.21 37.2885 343.226 37.1711 343.237 37.0858C343.247 37.0005 343.253 36.8938 343.253 36.7658C343.253 36.2431 343.093 35.8378 342.773 35.5498C342.463 35.2618 342.005 35.1178 341.397 35.1178C340.906 35.1178 340.495 35.2085 340.165 35.3898C339.845 35.5711 339.562 35.7738 339.317 35.9978L337.893 35.8058L339.333 29.5818H345.733L345.477 31.1018Z" fill="#282828"/>
<path d="M331.995 40.7498L332.363 38.5738H327.035L327.307 36.9898L333.307 29.5818H335.547L334.267 37.1818H335.851L335.611 38.5738H334.043L333.675 40.7498H331.995ZM328.827 37.1818H332.587L333.547 31.4858H333.451L328.827 37.1818Z" fill="#282828"/>
<path d="M461.79 35.1659C461.129 35.1659 460.611 34.9686 460.238 34.5739C459.865 34.1792 459.678 33.6032 459.678 32.8459C459.678 32.3339 459.747 31.8699 459.886 31.4539C460.035 31.0272 460.233 30.6646 460.478 30.3659C460.734 30.0566 461.038 29.8166 461.39 29.6459C461.742 29.4752 462.126 29.3899 462.542 29.3899C463.203 29.3899 463.721 29.5872 464.094 29.9819C464.467 30.3766 464.654 30.9526 464.654 31.7099C464.654 32.2219 464.579 32.6912 464.43 33.1179C464.291 33.5446 464.094 33.9126 463.838 34.2219C463.593 34.5206 463.294 34.7552 462.942 34.9259C462.59 35.0859 462.206 35.1659 461.79 35.1659ZM461.854 34.0939C462.281 34.0939 462.595 33.9606 462.798 33.6939C463.001 33.4166 463.134 33.0859 463.198 32.7019C463.251 32.3606 463.294 32.1046 463.326 31.9339C463.358 31.7526 463.374 31.6032 463.374 31.4859C463.374 30.8032 463.075 30.4619 462.478 30.4619C462.051 30.4619 461.737 30.6006 461.534 30.8779C461.331 31.1446 461.198 31.4699 461.134 31.8539C461.081 32.1952 461.038 32.4566 461.006 32.6379C460.974 32.8086 460.958 32.9526 460.958 33.0699C460.958 33.7526 461.257 34.0939 461.854 34.0939ZM467.95 29.5819H469.358L466.062 34.3819H464.654L467.95 29.5819ZM461.566 35.9499H462.974L459.678 40.7499H458.27L461.566 35.9499ZM465.086 40.9419C464.425 40.9419 463.907 40.7446 463.534 40.3499C463.161 39.9552 462.974 39.3792 462.974 38.6219C462.974 38.1099 463.043 37.6459 463.182 37.2299C463.331 36.8032 463.529 36.4406 463.774 36.1419C464.03 35.8326 464.334 35.5926 464.686 35.4219C465.038 35.2512 465.422 35.1659 465.838 35.1659C466.499 35.1659 467.017 35.3632 467.39 35.7579C467.763 36.1526 467.95 36.7286 467.95 37.4859C467.95 37.9979 467.875 38.4672 467.726 38.8939C467.587 39.3206 467.39 39.6886 467.134 39.9979C466.889 40.2966 466.59 40.5312 466.238 40.7019C465.886 40.8619 465.502 40.9419 465.086 40.9419ZM465.15 39.8699C465.577 39.8699 465.891 39.7366 466.094 39.4699C466.297 39.1926 466.43 38.8619 466.494 38.4779C466.547 38.1366 466.59 37.8806 466.622 37.7099C466.654 37.5286 466.67 37.3792 466.67 37.2619C466.67 36.5792 466.371 36.2379 465.774 36.2379C465.347 36.2379 465.033 36.3766 464.83 36.6539C464.627 36.9206 464.494 37.2459 464.43 37.6299C464.377 37.9712 464.334 38.2326 464.302 38.4139C464.27 38.5846 464.254 38.7286 464.254 38.8459C464.254 39.5286 464.553 39.8699 465.15 39.8699Z" fill="#282828"/>
<path d="M458.18 31.1018H453.14L452.196 35.1018H452.292C452.452 34.8778 452.618 34.6805 452.788 34.5098C452.959 34.3285 453.146 34.1738 453.348 34.0458C453.551 33.9178 453.775 33.8218 454.02 33.7578C454.266 33.6938 454.543 33.6618 454.852 33.6618C455.29 33.6618 455.69 33.7311 456.052 33.8698C456.426 34.0085 456.74 34.2058 456.996 34.4618C457.263 34.7178 457.471 35.0325 457.62 35.4058C457.77 35.7685 457.844 36.1845 457.844 36.6538C457.844 37.1978 457.748 37.7311 457.556 38.2538C457.364 38.7658 457.082 39.2245 456.708 39.6298C456.335 40.0245 455.866 40.3445 455.3 40.5898C454.735 40.8245 454.079 40.9418 453.332 40.9418C452.831 40.9418 452.383 40.8831 451.988 40.7658C451.604 40.6591 451.263 40.5098 450.964 40.3178C450.676 40.1258 450.426 39.9125 450.212 39.6778C450.01 39.4325 449.844 39.1818 449.716 38.9258L451.156 37.9978C451.359 38.4245 451.631 38.7765 451.972 39.0538C452.324 39.3205 452.815 39.4538 453.444 39.4538C454.138 39.4538 454.692 39.2778 455.108 38.9258C455.524 38.5631 455.786 38.0671 455.892 37.4378C455.914 37.2885 455.93 37.1711 455.94 37.0858C455.951 37.0005 455.956 36.8938 455.956 36.7658C455.956 36.2431 455.796 35.8378 455.476 35.5498C455.167 35.2618 454.708 35.1178 454.1 35.1178C453.61 35.1178 453.199 35.2085 452.868 35.3898C452.548 35.5711 452.266 35.7738 452.02 35.9978L450.596 35.8058L452.036 29.5818H458.436L458.18 31.1018Z" fill="#282828"/>
</svg>
