<?xml version="1.0" encoding="UTF-8"?>
<svg id="Layer_1" data-name="Layer 1" xmlns="http://www.w3.org/2000/svg" viewBox="0 0 1377.46 925.68">
  <defs>
    <style>
      .cls-1 {
        fill: #a39080;
      }

      .cls-1, .cls-2, .cls-3, .cls-4, .cls-5, .cls-6, .cls-7 {
        stroke-width: 0px;
      }

      .cls-2 {
        fill: #cda479;
      }

      .cls-3 {
        fill: #976c41;
      }

      .cls-4, .cls-5 {
        fill: #000;
      }

      .cls-5 {
        opacity: .1;
      }

      .cls-6 {
        fill: #29abe2;
      }

      .cls-7 {
        fill: #fff;
      }
    </style>
  </defs>
  <g>
    <path class="cls-3" d="M411.32,336.21c-14.34-29.36-34.61,33.58-47.02,3.36-19.31-47.02-46.18-71.37-106.63-101.59-51.12-25.56-93.27-38.99-150.19-44.09,88.2-46.17,196.31-52.53,289.32-17.03l131.81,19.36-94.62,160.09-22.67-20.1Z"/>
    <path class="cls-4" d="M415.63,333.69c-3.43-6.77-9.5-12.36-17.54-9.82-6.67,2.1-11.69,8.08-16.55,12.79-2.21,2.14-4.36,4.39-7.08,5.78-1.65.85-1.8,1.06-2.88-.16-3.23-3.62-4.58-9.22-6.57-13.57-2.56-5.58-5.36-11.06-8.48-16.36-12.63-21.48-30.35-38.7-50.85-52.69-26.98-18.41-57.26-32.94-87.54-45.02-35.53-14.17-72.62-22.29-110.66-25.77.84,3.11,1.68,6.21,2.52,9.32,73.22-38.1,159.94-48.75,240.33-30.24,9.86,2.27,19.61,4.97,29.23,8.1,5.47,1.78,11,4.5,16.6,5.72,5.33,1.16,10.93,1.6,16.32,2.4,22.16,3.26,44.33,6.51,66.49,9.77,16.1,2.36,32.2,4.73,48.3,7.09l-2.99-7.34c-10.68,18.07-21.36,36.14-32.04,54.21-16.94,28.66-33.88,57.32-50.81,85.97-3.92,6.64-7.84,13.27-11.77,19.91,2.62-.34,5.24-.67,7.85-1.01-7.56-6.7-15.11-13.4-22.67-20.1-4.8-4.26-11.9,2.79-7.07,7.07,7.56,6.7,15.11,13.4,22.67,20.1,2.4,2.12,6.14,1.89,7.85-1.01,10.68-18.07,21.36-36.14,32.04-54.21,16.94-28.66,33.88-57.32,50.81-85.97,3.92-6.64,7.84-13.27,11.77-19.91,1.48-2.5.27-6.87-2.99-7.34-36.7-5.39-73.4-10.78-110.09-16.17-6.58-.97-13.16-1.93-19.74-2.9-2.93-.43-5.51-1.63-8.31-2.63-9.79-3.51-19.74-6.57-29.8-9.17-40.14-10.38-82.16-13.67-123.44-9.89-46.59,4.27-92.09,17.34-133.61,38.94-4.77,2.48-2.02,8.9,2.52,9.32,65.84,6.02,129.12,28.88,185.03,64.1,20.73,13.06,39.38,29.05,52.6,49.87,6.44,10.14,10.45,21.18,16.01,31.72,3.51,6.65,9.95,10.4,17.2,7.08,6.69-3.07,11.47-9.44,16.85-14.24,1.2-1.07,2.41-2.08,3.78-2.93,1.08-.67,2.61-1.25,2.67-1.26.95-.09,1.35.03,1.69.31,1.69,1.4,2.7,3.28,3.68,5.21,2.91,5.74,11.54.69,8.63-5.05Z"/>
  </g>
  <g>
    <path class="cls-3" d="M233.31,708.16C180.42,457.12,125.84,358.04,4.96,304.9c28.71-5.85,92.34-19.9,164.55-19.9,132.89,0,198.76,10.26,305.95,88.81,52.92,38.78,95.49,89.7,137.51,140.08l85.78,138.51-176.58,129.37s-298.88-79.76-301.34-91.16c-2.46-11.4,12.49,17.55,12.49,17.55Z"/>
    <path class="cls-4" d="M238.14,706.84c-16.61-78.7-35.21-158.29-67.21-232.38-21.27-49.24-50.13-96.03-91.9-130.48-21.65-17.86-45.89-32.08-71.54-43.4l-1.19,9.14c28.65-5.85,57.31-11.4,86.36-14.89,39.36-4.74,78.8-5.36,118.39-4.38,60.02,1.49,119.43,8.53,174.37,34.19,67.04,31.31,124.58,79.39,173.78,134.07,13.27,14.75,26.12,29.88,38.87,45.1,4.58,5.46,9.35,10.6,13.09,16.64,8.4,13.56,16.8,27.13,25.2,40.69,18.97,30.63,37.93,61.25,56.9,91.88.39.64.79,1.27,1.18,1.91.6-2.28,1.2-4.56,1.79-6.84-19.92,14.6-39.85,29.19-59.77,43.79-31.62,23.17-63.24,46.33-94.86,69.5-7.32,5.36-14.63,10.72-21.95,16.08l3.85-.5c-38.31-10.22-76.54-20.73-114.72-31.42-55.47-15.53-111.64-30.3-165.84-49.89-7.16-2.59-12.11-3.87-18.15-7.83-.68-.44.6,1.06.05,0-.34-.66.82,1.51.83,1.54-.17-.49-.01-1.09-.11-.4.04-2.92-2.25-1.77-6.87,3.45-.63-.5-.73-.53-.29-.1.11.41,1.39,2,1.99,2.96,3.12,4.98,5.91,10.21,8.61,15.43,2.96,5.72,11.59.67,8.63-5.05-1.83-3.53-3.72-7.04-5.69-10.5-2.06-3.61-4.52-9.42-8.39-11.48-6.36-3.38-9.57,4.82-7,9.62.84,1.58,2.36,2.66,3.84,3.59,4.42,2.79,9.63,4.56,14.48,6.41,7.95,3.03,16.01,5.74,24.09,8.4,49.51,16.26,99.79,30.25,149.97,44.28,36.41,10.18,72.88,20.18,109.4,29.96,2.65.71,4.79,1.1,7.28-.52,4.37-2.84,8.47-6.21,12.67-9.29,18.37-13.46,36.74-26.92,55.1-40.37,35.27-25.84,70.53-51.68,105.8-77.52.69-.5,1.38-1.01,2.07-1.51,2.13-1.56,3.34-4.35,1.79-6.84-16.91-27.3-33.82-54.61-50.73-81.91-9.74-15.73-19.48-31.46-29.22-47.19-11.21-18.1-25.95-33.71-39.83-49.8-26.41-30.61-54.13-60.33-85.42-86.04-27.62-22.7-57.8-43.14-89.38-59.93-26.04-13.85-53.6-24.76-82.27-31.73-29.38-7.14-59.6-10.36-89.75-11.89-38.53-1.96-77.46-2.45-115.94.64-34.07,2.74-67.85,8.1-101.33,14.87-5.19,1.05-10.37,2.13-15.55,3.19-3.99.81-5.12,7.41-1.19,9.14,44.89,19.8,84.29,48.89,113.77,88.37,37.16,49.76,59.22,109.45,76.83,168.46,14.09,47.21,25.28,95.26,35.45,143.45,1.33,6.29,10.97,3.63,9.64-2.66Z"/>
  </g>
  <g>
    <path class="cls-3" d="M812.17,700.59c-34.45,21.97-75.21,31.35-115.06,40.36-34.08,7.71-68.36,15.44-103.25,17.21-48.14,2.44-96.08-6.52-143.17-16.81-29.98-6.55-59.83-13.65-89.55-21.3-29.31-7.54-58.58-15.65-86.48-27.4-41.44-17.45-79.11-42.61-116.48-67.62-27.54-18.42-55.53-37.25-76.27-63.08,40.74,160.16,144.92,303.26,284.83,391.23,0,0,258.54-11.15,269.8-19.31,11.26-8.16,208.96-132.69,207.44-135.32-1.52-2.62-31.8-97.97-31.8-97.97"/>
    <path class="cls-4" d="M809.65,696.27c-41.4,26.12-91.36,35.18-138.52,45.34-26.11,5.63-52.49,10.46-79.22,11.64-26.86,1.18-53.77-1.11-80.31-5.23-52.07-8.09-103.66-20.94-154.63-34.21-25.01-6.51-49.94-13.57-73.98-23.11-23.68-9.4-46.19-21.56-67.95-34.77-23.82-14.46-47.03-30.02-70.01-45.78-21.78-14.94-42.86-31.11-59.6-51.73-3.31-4.07-9.51.37-8.36,4.86,15.31,59.87,39.31,117.47,70.75,170.67,31.29,52.96,69.93,101.68,114.46,144.11,22.23,21.19,45.97,40.8,70.95,58.66,6.32,4.52,12.72,8.92,19.2,13.2,4,2.64,9.51,7.82,14.36,8.26,1.78.16,3.73-.16,5.51-.24,27.88-1.24,55.75-2.6,83.62-4.07,39.19-2.06,78.39-4.26,117.52-7.24,14.61-1.11,29.23-2.28,43.78-4.02,6.84-.82,15.76-.89,21.91-4.49,6.96-4.07,13.58-8.94,20.36-13.3,13.66-8.79,27.36-17.53,41.05-26.28,33.19-21.22,66.4-42.41,99.43-63.9,11.83-7.69,23.66-15.39,35.31-23.35,3.11-2.13,6.23-4.26,9.22-6.55,3.23-2.47,5.09-4.39,3.71-8.82.63,2.01.1.21-.1-.38-.3-.89-.63-1.78-.93-2.67-.95-2.78-1.87-5.56-2.79-8.35-2.68-8.12-5.31-16.26-7.94-24.4-5.55-17.2-11.05-34.42-16.54-51.64-.98-3.07-1.96-6.14-2.93-9.22-1.94-6.11-11.6-3.5-9.64,2.66,8.93,28.11,17.84,56.23,27.07,84.24,1.42,4.31,2.5,9.16,4.52,13.25,2.37,4.81-.04-4.53,1.01-3.64-.67-.57.99-.07-.25.13-.25.04-.84.68-1.04.85,1.26-1.05-.31.23-.81.59-8.69,6.34-17.75,12.19-26.74,18.1-31.16,20.5-62.61,40.57-94.02,60.67-25.57,16.36-51.26,32.56-76.67,49.17-2.16,1.41-4.33,2.82-6.44,4.3-.8.57-.38.2.15,0-.5.19-1.01.35-1.52.48-1.5.38-3.01.7-4.54.98-10.34,1.88-21.48,2.78-32.78,3.79-36.79,3.28-73.69,5.41-110.56,7.47-32.98,1.84-65.97,3.5-98.96,5.02-4.31.2-8.63.39-12.94.59-1.8.08-4.11.58-5.89.26-.02,0,2.03.95-.29-.97-2.91-2.41-6.61-4.25-9.78-6.34-6.26-4.15-12.45-8.4-18.56-12.77-12.5-8.93-24.66-18.33-36.47-28.17-46.62-38.84-87.81-84.2-122.02-134.31-34.21-50.11-61.61-104.87-80.66-162.49-4.63-14.02-8.76-28.19-12.42-42.49-2.79,1.62-5.57,3.24-8.36,4.86,15.07,18.56,33.72,33.62,53.15,47.39,20.5,14.53,41.58,28.4,62.78,41.9,21.8,13.88,44.17,26.99,67.7,37.73,23.86,10.9,48.78,19.06,74.03,26.04,51.81,14.33,104.54,27.06,157.46,36.51,26.69,4.77,53.72,8.22,80.86,8.47,27.05.26,53.88-3.25,80.4-8.38,28.37-5.49,56.81-11.75,84.71-19.29,26.26-7.09,52.13-16.4,75.23-30.97,5.43-3.43.42-12.08-5.05-8.63h0Z"/>
  </g>
  <g>
    <path class="cls-2" d="M333.6,688.51c.18-53.4-18.54-104.82-37.02-154.92-10.16-27.54-20.37-55.2-34.37-81-17.15-31.61-40.92-60.96-73.06-77.08,35.09-3.37,70.81-2.64,105.18,5.17,34.38,7.81,67.43,22.94,93.93,46.19,0,0,190.1,108.5,189.7,110.93s-100.4,114.86-102.04,116.16c-1.64,1.3-142.33,34.54-142.33,34.54Z"/>
    <path class="cls-4" d="M338.6,688.51c-.04-50.47-16.13-98.75-33.29-145.62-15.97-43.63-31.53-88.82-60.28-125.98-14.47-18.71-32.19-34.93-53.37-45.72-.84,3.11-1.68,6.21-2.52,9.32,52.43-4.92,107.05-.87,154.84,22.9,10.75,5.35,21.07,11.61,30.68,18.81,4.04,3.02,7.66,6.81,11.94,9.46,4.49,2.78,9.2,5.26,13.78,7.88,44.04,25.2,88.07,50.44,131.84,76.11,14.07,8.25,28.46,16.21,41.97,25.37,1.13.76-.06-.77.15.14-3.66-15.89-.6-5.26-.93-5.48,0,0-1.42,1.91,0,.04-1.65,2.18-3.48,4.25-5.25,6.34-6.91,8.15-13.95,16.19-21,24.23-18.15,20.73-36.42,41.35-54.76,61.91-5.74,6.44-11.48,12.89-17.28,19.27-.64.7-1.35,1.38-1.95,2.13-1.61,2.02.67-1.19,1.28-.41-.14-.18-4.8,1.36-5.12,1.44-44.22,11.58-88.88,21.63-133.36,32.15-1.23.29-2.47.58-3.7.87-6.26,1.48-3.61,11.12,2.66,9.64,42.83-10.12,85.7-20.15,128.39-30.83,4.82-1.2,12.16-1.75,16.17-5.03,4.12-3.37,7.55-8.28,11.09-12.22,17.97-20.06,35.83-40.22,53.63-60.44,8.37-9.51,16.73-19.04,25.01-28.63,4.13-4.78,9.77-9.83,12.83-15.43,3-5.47-2.66-8.34-6.49-10.78-6.77-4.32-13.69-8.4-20.59-12.5-45.64-27.12-91.75-53.44-137.82-79.83-6.95-3.98-13.9-7.96-20.85-11.93s-12.69-9.34-19.28-14.1c-42.03-30.29-94.41-42.42-145.58-42.98-14.12-.15-28.23.57-42.28,1.88-4.51.42-7.35,6.86-2.52,9.32,37.8,19.25,62.49,55.39,80.13,92.83,10.34,21.95,18.59,44.81,26.97,67.57,8.28,22.49,16.41,45.07,22.8,68.18,7.23,26.15,12.06,52.9,12.08,80.1,0,6.43,10,6.45,10,0Z"/>
  </g>
  <g>
    <path class="cls-3" d="M408.87,89.48c-21.47-5.56-43.41-11.44-72.75-8.46-30.09,3.06-53.62,13.99-68.49,22.53,20.14,2.56,40.51,5.31,59.36,12.86,27.79,11.13,50.89,32.35,67.12,57.51,21.07,32.65,23.71,57.62,31.44,83.52,21.63,72.48,92.86,157.11,151.17,148.46,49.71-7.38,91.5-82.78,84.8-147.77-8.47-82.2-92.08-124.44-111.67-134.34-21.98-11.1-11-.66-140.98-34.3Z"/>
    <path class="cls-4" d="M410.2,84.66c-26.01-6.74-51.68-11.57-78.64-8.1-23.48,3.01-45.93,10.97-66.46,22.68-4.72,2.69-2.04,8.74,2.52,9.32,24.43,3.11,49.2,6.81,71.02,18.93,19.01,10.55,35.2,25.95,47.63,43.72,12.78,18.28,21.3,38.42,27.07,59.87,4.96,18.41,9.53,36.55,17.17,54.09,15.9,36.56,40.18,71.37,70.92,96.97,24.35,20.28,57.61,37.58,89.56,25.09,33.9-13.25,55.81-48.24,67.07-81.29,12.51-36.71,12.65-77.02-4-112.41-13.59-28.88-36.72-52.27-62.43-70.65-13.94-9.96-29.03-19.08-44.73-26.03-8.09-3.58-16.59-4.91-25.23-6.5-25.8-4.73-51.37-10.66-76.84-16.93-11.56-2.85-23.1-5.78-34.63-8.76-6.23-1.61-8.89,8.03-2.66,9.64,32.78,8.48,65.68,16.74,98.91,23.3,10.27,2.03,21.06,3.11,31.07,6.28.75.24,1.49.49,2.22.76.88.32,2.66,1.08,1.6.62,1.91.83,3.79,1.74,5.66,2.67,7.22,3.61,14.33,7.44,21.26,11.59,23.92,14.31,46.38,32.37,62.87,55.04,21.56,29.64,30.14,65.32,24.14,101.56-5.84,35.19-23.27,73.77-53.72,94.32-12.42,8.38-26.77,12.69-41.76,10.47-16.04-2.38-30.81-10.47-43.74-19.93-31.45-23.01-55.79-56.71-72.62-91.52-8.25-17.06-13.67-34.77-18.36-53.07-5.01-19.52-11.19-38.47-21.22-56.06-10.65-18.68-24.54-35.68-41.51-48.97s-37.16-22.45-58.71-27.13c-11.88-2.58-23.96-4.13-36.01-5.67.84,3.11,1.68,6.21,2.52,9.32,19.47-11.11,40.91-18.85,63.22-21.54,25.48-3.08,49.61,1.61,74.17,7.97,6.23,1.61,8.89-8.03,2.66-9.64Z"/>
  </g>
  <g>
    <path class="cls-3" d="M794.29,122.07c7.78-3.06,16.54-.73,24.55,1.67,38.01,11.35,76.89,24.2,106.93,50.12,29.41,25.37,48.03,61.77,56.33,99.72s6.83,77.49.8,115.86c0,0-143.41,11.4-145.5,8.47-2.09-2.93-38.2-127.87-37.78-131.73s-5.34-144.11-5.34-144.11Z"/>
    <path class="cls-4" d="M795.62,126.89c11.56-3.96,25.31,2.61,36.37,6.08,10.73,3.36,21.4,6.94,31.87,11.04,21.63,8.46,42.74,19.42,60.17,34.96,34.15,30.44,52.27,75.21,57.19,120.01,3.26,29.67,1.42,59.7-3.15,89.13,1.61-1.22,3.21-2.45,4.82-3.67-28.14,2.24-56.29,4.32-84.46,6.18-16.59,1.09-33.2,2.26-49.82,2.69-2.41.06-4.82.13-7.23.07-.71-.02-1.42-.06-2.14-.09-1.35-.05.59.55-.26-.05,1.45,1.03,2.84,1.81,2.88,2.57-.03-.58-.5-1.38-.69-1.94-.73-2.1-1.39-4.22-2.05-6.34-10.71-34.12-20.49-68.59-29.85-103.1-1.49-5.48-3.03-10.97-4.28-16.51-.14-.63-.28-1.27-.4-1.9-.26-1.3.02,1.27.04.13.01-.97.01-1.94,0-2.92-.23-13.64-.86-27.28-1.37-40.91-1.23-32.75-2.54-65.49-3.89-98.23-.03-.68-.06-1.35-.08-2.03-.26-6.41-10.27-6.45-10,0,1.21,29.39,2.39,58.79,3.51,88.18.62,16.11,1.27,32.22,1.72,48.33.2,7.23,1.07,13.24,2.93,20.31,9.29,35.44,19.58,70.68,30.32,105.7,1.38,4.5,2.66,9.09,4.33,13.5,1.54,4.04,4.03,5.04,8.14,5.25,13.66.72,27.69-.83,41.31-1.65,33.14-2.01,66.29-4.33,99.38-7.09.66-.06,1.32-.1,1.98-.16,1.99-.16,4.47-1.43,4.82-3.67,8.18-52.78,8.04-108.01-13.48-157.78-9.22-21.32-22.26-41.18-39.04-57.3-17.47-16.78-38.67-28.83-60.89-38.16-12.96-5.44-26.26-10-39.66-14.2-12.99-4.07-28.07-10.74-41.69-6.08-6.05,2.07-3.45,11.73,2.66,9.64Z"/>
  </g>
  <g>
    <path class="cls-3" d="M656.46,102.33c-5.83-27.29-21.47-52.37-43.42-69.61,12.66.15,24.82,4.57,36.7,8.93,53.89,19.8,110.08,41.14,148.18,84.08,18.81,21.2,32.14,46.58,45.29,71.69l23.59,66.31-86.36,38.53s-118.93-60.93-118.93-65.97-5.06-133.96-5.06-133.96Z"/>
    <path class="cls-4" d="M661.29,101c-6.22-28.2-22.11-53.82-44.7-71.82-1.18,2.85-2.36,5.69-3.54,8.54,16,.44,31.17,7.17,45.97,12.67,13.81,5.13,27.58,10.37,41.11,16.21,26.52,11.44,52.64,25.04,74.82,43.76,24.1,20.35,40.86,46.36,55.67,73.9,3.48,6.48,7.14,12.67,9.6,19.58,2.45,6.87,4.89,13.75,7.34,20.62,4.82,13.54,9.63,27.07,14.45,40.61.77-1.88,1.53-3.76,2.3-5.65-25.16,11.23-50.33,22.45-75.49,33.68-3.62,1.62-7.24,3.23-10.87,4.85h5.05c-34.22-17.53-68.56-35.09-101.83-54.39-3.5-2.03-6.99-4.08-10.4-6.26-1.15-.74-2.29-1.5-3.41-2.27-.58-.4-1.35-1.4-1.59-1.26-.52.29-.15-2.19.2.32.08.61.1,2.88.57,1.89.23-.49-.05-1.75-.06-2.28-.09-2.96-.2-5.91-.3-8.86-.81-22.84-1.71-45.67-2.59-68.51-.7-17.99-1.4-35.99-2.1-53.98-.25-6.41-10.25-6.45-10,0,.98,24.91,1.95,49.82,2.9,74.74.59,15.4,1.18,30.8,1.74,46.21.23,6.45-1.3,14.59,4.28,18.96,9.17,7.19,20.09,12.54,30.24,18.16,15.16,8.39,30.45,16.53,45.78,24.6,11.86,6.24,23.75,12.43,35.66,18.58,1.92.99,3.85,2.21,5.86,3.02,3.67,1.46,7.49-1.09,10.87-2.6,26.17-11.67,52.33-23.35,78.5-35.02.68-.3,1.36-.61,2.04-.91,1.87-.84,2.97-3.74,2.3-5.65-4.27-11.99-8.53-23.98-12.8-35.97-4.74-13.33-8.81-26.86-15.42-39.39-15.04-28.5-31.42-56.55-55.43-78.51-22.05-20.17-48.26-35.09-75.39-47.3-15.21-6.85-30.75-12.95-46.38-18.79-17.14-6.42-34.62-14.21-53.18-14.72-4.03-.11-7,5.77-3.54,8.54,21.39,17.04,36.23,40.68,42.13,67.4,1.39,6.28,11.03,3.62,9.64-2.66Z"/>
  </g>
  <g>
    <path class="cls-2" d="M607.96,325.83c-25.23-83.11-83.39-153.63-153.32-205.14-69.94-51.5-151.34-85.36-234.09-111.74,218.18-23.82,445.58,61.35,594.43,222.64l73.24,155.84h-305.22l24.96-61.6Z"/>
    <path class="cls-4" d="M612.78,324.5c-19.11-62.4-56.24-117.87-102.68-163.29-49.99-48.9-110.46-85.72-174.06-114.16-37.15-16.61-75.42-30.54-114.17-42.92l-1.33,9.82c68.51-7.4,138.01-4.26,205.65,8.88,67.67,13.15,133.45,35.99,194.66,67.71,61.41,31.83,118.24,72.44,167.63,120.91,5.98,5.87,11.85,11.84,17.6,17.93,1.8,1.91,3.78,3.56,5.08,5.79,2.14,3.66,3.69,7.85,5.49,11.68,7.61,16.2,15.23,32.4,22.84,48.6,9.01,19.18,18.03,38.35,27.04,57.53,5.49,11.68,10.42,23.91,16.57,35.26.3.55.54,1.14.8,1.71,1.44-2.51,2.88-5.02,4.32-7.52h-305.22c1.61,2.11,3.21,4.22,4.82,6.33,8.32-20.53,16.64-41.07,24.96-61.6,2.42-5.96-7.25-8.56-9.64-2.66-8.32,20.53-16.64,41.07-24.96,61.6-1.25,3.08,1.88,6.33,4.82,6.33h305.22c4.05,0,5.89-4.18,4.32-7.52-12.7-27.03-25.4-54.05-38.1-81.08-8.49-18.06-16.98-36.12-25.47-54.19-2.53-5.39-5.07-10.79-7.6-16.18-2.36-5.02-5.28-8.07-9.29-12.29-48.02-50.56-103.98-93.57-164.75-127.71-60.61-34.04-126.16-59.43-193.89-75.06C385.73,2.79,315.7-3.21,246.36,1.64c-8.62.6-17.22,1.38-25.81,2.31-5.44.59-6.99,8.01-1.33,9.82,67.37,21.52,133.65,47.82,194.01,85.04,55.47,34.21,105.62,78.02,142.72,131.9,20.41,29.63,36.63,62.01,47.18,96.44,1.88,6.14,11.54,3.52,9.64-2.66Z"/>
  </g>
  <g>
    <path class="cls-3" d="M543.31,344.17c-11.79-8.04-22.32-17.61-33.24-26.78-10.59-8.89-30.23-21.83-39.13-28.2-17.63-12.59-20.15-17.63-40.78-26.56-13.43-5.81-32.07-7.42-40.76,4.35-3.55,4.8-4.45,11.01-5.07,16.94-3,28.84-1.91,57.93-.81,86.9,1.81,47.75,14.14,126.52,26.12,172.78"/>
    <path class="cls-4" d="M545.83,339.85c-14.6-10.08-27.23-22.6-41.43-33.19-11.23-8.38-23.05-15.92-34.32-24.24-10.28-7.59-19.71-15.75-31.31-21.34-12.25-5.9-26.71-10.69-40.25-6.27-16.68,5.45-18.7,21.68-19.91,36.97-1.61,20.37-1.38,40.83-.73,61.24.98,30.85,3.7,61.37,7.99,91.93,4.71,33.55,10.49,67.14,18.95,99.97,1.6,6.23,11.25,3.59,9.64-2.66-7.01-27.21-12.07-54.94-16.39-82.69-4.35-27.98-7.99-56.2-9.37-84.51-.89-18.2-1.47-36.46-1.29-54.68.09-9.55.44-19.09,1.2-28.61.6-7.56.45-17.31,5.96-23.22,9.03-9.69,26.01-4.87,36.26-.21,11.19,5.09,20.38,12.15,30.06,19.57,11.74,8.99,24.24,16.92,36.17,25.66,15.06,11.04,28.34,24.27,43.74,34.9,5.31,3.67,10.31-5,5.05-8.63h0Z"/>
  </g>
  <g>
    <path class="cls-3" d="M767.5,332.93c14.53-39.94,37.32-76.26,59.94-112.23,7.39-11.76,16.99-24.85,30.87-25.34,15.16-.54,25.92,14.16,33.33,27.41,26.73,47.78,47.86,98.69,62.82,151.36"/>
    <path class="cls-4" d="M772.32,334.26c8.77-23.89,20.49-46.51,33.31-68.45,6.22-10.66,12.7-21.16,19.25-31.62,5.88-9.4,11.35-19.77,19.63-27.34,7.34-6.72,16.8-8.62,25.4-3,8.29,5.41,13.61,14.62,18.32,23.06,12.36,22.19,23.51,45.08,33.35,68.49,10.97,26.09,20.3,52.85,28.07,80.07,1.76,6.18,11.42,3.55,9.64-2.66-15.06-52.74-36.1-103.86-62.88-151.75-9.63-17.22-26.5-38.02-48.7-28.21-9.68,4.28-16.51,13.07-22.21,21.66-7.62,11.48-14.76,23.33-21.88,35.13-15.82,26.2-30.37,53.2-40.94,81.98-2.22,6.05,7.44,8.66,9.64,2.66h0Z"/>
  </g>
  <g>
    <path class="cls-2" d="M484.31,388.51c-10.96-17.41-29.93-29.55-50.33-32.2-1.03-.13-2.15-.23-3.04.31-.9.54-1.33,1.59-1.7,2.57-2.5,6.5-5.02,13.09-5.75,20.01-.6,5.68.02,11.41.65,17.08,2.56,23.3,5.17,46.83,12.89,68.96l91.58-13.6-44.29-63.13Z"/>
    <path class="cls-4" d="M488.63,385.99c-7.82-12.12-18.86-22.05-31.99-28.13-6.75-3.13-13.92-5.46-21.33-6.37-8.35-1.03-10.31,4.56-12.75,11.27-2.83,7.8-4.59,15.69-4.26,24.04.36,9.29,1.79,18.68,2.95,27.9,2.22,17.59,5.19,35.06,10.95,51.88.96,2.79,3.33,3.91,6.15,3.49,26.65-3.96,53.3-7.91,79.95-11.87,3.88-.58,7.76-1.15,11.63-1.73,3.07-.46,4.7-4.91,2.99-7.34-14.76-21.04-29.53-42.09-44.29-63.13-3.67-5.23-12.34-.24-8.63,5.05,14.76,21.04,29.53,42.09,44.29,63.13l2.99-7.34c-26.65,3.96-53.3,7.91-79.95,11.87-3.88.58-7.76,1.15-11.63,1.73,2.05,1.16,4.1,2.33,6.15,3.49-4.8-14.02-7.73-28.54-9.79-43.19-1.02-7.21-1.82-14.44-2.62-21.67-.83-7.54-1.96-15.27-.45-22.8.63-3.13,1.58-6.18,2.63-9.19.55-1.59,1.02-3.42,1.82-4.91,1.01-1.88.22-1.32,2.2-.56,2.72,1.05,5.94,1.26,8.76,2.15,2.94.93,5.8,2.05,8.57,3.41,11.03,5.39,20.38,13.57,27.04,23.9,3.48,5.39,12.14.38,8.63-5.05Z"/>
  </g>
  <g>
    <path class="cls-2" d="M904.09,354.92c-11.65-21.79-25.05-42.65-40.02-62.32-2.47-3.25-5.4-6.71-9.45-7.24-4.72-.62-8.9,3.02-11.79,6.8-4.72,6.18-7.92,13.36-11.08,20.47-3.99,9-7.99,18-11.98,27l17.63,40.37,66.68-25.08Z"/>
    <path class="cls-4" d="M908.41,352.4c-9.36-17.42-19.75-34.27-31.23-50.38-4.69-6.59-9.8-16.18-17.19-20.08-7.53-3.97-15.3.11-20.23,6.11-6.02,7.33-9.7,16.16-13.51,24.75-2,4.5-3.99,9-5.99,13.5-1.07,2.4-2.13,4.8-3.2,7.2-.93,2.09-2.51,4.41-2.19,6.79.29,2.21,1.83,4.7,2.72,6.72,1.84,4.21,3.68,8.42,5.51,12.62,3.33,7.63,6.67,15.26,10,22.89.81,1.85,3.77,3,5.65,2.3,22.23-8.36,44.45-16.72,66.68-25.08,5.97-2.24,3.38-11.91-2.66-9.64-22.23,8.36-44.45,16.72-66.68,25.08,1.88.77,3.76,1.53,5.65,2.3-5.88-13.46-11.76-26.91-17.63-40.37v5.05c5.08-11.45,9.92-23.06,15.34-34.36,2.37-4.95,4.98-10.32,8.82-14.32,1.69-1.76,3.88-3.68,6.51-2.96,2.47.68,4.67,4.18,6.11,6.09,14.55,19.21,27.49,39.62,38.9,60.84,3.05,5.67,11.68.63,8.63-5.05Z"/>
  </g>
  <g>
    <path class="cls-3" d="M1127.82,704.86c-2.33,3.38-6.29,5.18-10.12,6.62-.7.26-1.39.51-2.1.76l-10.76-3.23c.64,1.93,1.29,3.92,1.95,5.96,7.07,21.81,15.02,49.18,13.99,70.91-.56,11.65-3.23,23.19-7.84,33.9-2.33,5.4-5.16,10.6-6.88,16.23,0,0-33.96,16.57-35.64,16.57-.4,0-2.41-1.95-5.28-4.97l-8.99,132.59c-78.09,216.62-455.16,119.9-581.86,62.97-18.3-8.23-71.76-45.26-87.32-57.93-36.47-29.72-60.13-83.85-71.39-129.54-13.97-56.72-15.98-121.51,18.71-168.5,11.13-15.09,25.52-27.54,36.64-42.64,23.12-31.39,30.3-71.29,40.38-108.97,17.43-65.14,48.52-130.94,101.83-170.59,6.62-4.93,13.59-9.45,20.92-13.52,66.27-36.79,147.31-29.07,222.55-19.86,57.72,7.06,115.73,14.46,171.35,31.43,34.36,10.48,68.47,25.18,94.88,49.24,2.79,2.54,5.48,5.17,8.09,7.93,32.84,34.68,48.2,87.42,55.17,134.86.1.65.19,1.3.29,1.95l1.1-.3c4.41,5.62,6.99,12.49,6.15,19.53l-14.22-.28c2.62.56,5.23,1.16,7.84,1.79,5.61,1.36,11.34,2.95,15.94,6.44,11.42,8.66,12.02,25.3,11.57,39.61l-2.14.03c15.96,17.77,17.4,43.95,17.74,67.88.07,4.53.03,9.4-2.54,13.12Z"/>
    <path class="cls-4" d="M1124.28,701.32c-1.04,1.32-2.07,2.36-3.48,3.25-1.15.73-3.46,1.24-4.43,2.08-1.3.26-1.4.45-.3.56.85.21,1,.24.44.08-.58-.07-1.29-.39-1.83-.55-2.84-.85-5.67-1.71-8.51-2.56-3.54-1.06-7.34,2.54-6.15,6.15,6.56,19.88,13.29,40.31,15.32,61.26,1.01,10.47.48,20.91-1.99,31.15-2.71,11.24-8.54,21.04-12.1,31.94.77-1,1.53-1.99,2.3-2.99-6.17,3.01-12.36,5.99-18.57,8.94-4.1,1.95-8.2,3.88-12.34,5.74-1,.45-2.19.55-2.73,1.16-1.18,1.31,2.66-.1,2.71.51-.06-.81-3.36-3.36-3.94-3.97-3.18-3.31-8.26-.6-8.54,3.54-2.85,42-5.7,84-8.54,126-.14,2.03.02,4.36-.43,6.35-.85,3.76-4.38,10.51-6.46,14.93-5.98,12.69-13.38,24.8-22.25,35.68-17.13,21.02-39.02,37.39-63.31,49.28-53.4,26.14-115.43,31.39-174.04,29.48-62.4-2.03-124.46-12.81-184.78-28.56-26.17-6.83-52.1-14.68-77.6-23.73-20.43-7.25-41.31-14.69-59.99-25.82-15.19-9.05-29.88-18.98-44.38-29.09-12.96-9.04-26.34-18.02-37.58-29.19-31.26-31.08-49.45-75.02-60.03-117.15-10.92-43.51-15.25-91.69.76-134.53,4.01-10.74,9.48-20.94,16.17-30.25,7.42-10.32,16.53-19.29,25.01-28.71,16.5-18.31,28.02-38.91,36.04-62.18,7.82-22.68,12.6-46.23,19.08-69.29,6.22-22.16,13.9-43.97,23.65-64.84,19.41-41.57,47.29-80.48,86.66-105.16,42.12-26.41,92.39-32.85,141.2-31.67,24.67.59,49.26,3.01,73.76,5.87,26.93,3.15,53.87,6.47,80.68,10.56,52.28,7.97,106.87,18.3,154.4,42.49,21.8,11.09,41.96,25.66,57.24,44.93,14.12,17.8,24,38.82,31.21,60.26,7.12,21.16,11.72,43.05,14.95,65.11.39,2.68,3.8,4.14,6.15,3.49l1.1-.3c-1.88-.77-3.76-1.53-5.65-2.3,3.86,5.17,6,10.48,5.46,17.01,1.67-1.67,3.33-3.33,5-5l-14.22-.28c-5.55-.11-6.91,8.61-1.33,9.82,10.25,2.23,22.22,3.9,27.64,14.05,4.63,8.68,4.31,19.42,4.04,28.97,1.67-1.67,3.33-3.33,5-5l-2.14.03c-4.53.07-6.34,5.32-3.54,8.54,8.68,9.96,12.66,22.74,14.52,35.62.92,6.38,1.3,12.83,1.53,19.27.22,6.23,1.69,14.5-1.63,20.05-3.31,5.54,5.34,10.57,8.63,5.05,3.97-6.65,3.29-14.49,3.09-21.93-.21-7.87-.68-15.73-1.77-23.53-2.13-15.28-7.05-29.82-17.32-41.6-1.18,2.85-2.36,5.69-3.54,8.54l2.14-.03c2.76-.04,4.92-2.26,5-5,.33-11.75.19-24.77-6.06-35.17-7.14-11.87-20.36-14.75-32.97-17.49l-1.33,9.82,14.22.28c2.86.06,4.78-2.35,5-5,.67-8.08-2.03-15.62-6.83-22.05-1.35-1.81-3.33-2.93-5.65-2.3l-1.1.3c2.05,1.16,4.1,2.33,6.15,3.49-6.7-45.72-19.47-93.03-48.73-129.78-32.2-40.45-83.14-60.01-131.6-72.94-53.75-14.35-109.27-21.02-164.4-27.57-49.96-5.93-101.17-10.49-150.99-.93-48.27,9.26-90.86,33.99-122.32,71.82-29.94,36-49.5,79.63-62.79,124.23-7.04,23.64-11.86,47.89-19.44,71.38-3.86,11.97-8.46,23.71-14.53,34.75-6.17,11.22-13.95,21.09-22.56,30.52-8.54,9.36-17.39,18.46-24.8,28.78-6.61,9.2-11.88,19.24-16.07,29.76-8.46,21.25-11.76,44.38-11.84,67.16-.15,46.06,11.53,93.02,30.8,134.72,9.49,20.54,21.37,40.27,36.65,57.05,11.34,12.45,25.03,22.2,38.71,31.88,24.59,17.41,49.46,34.87,77.35,46.54,22.63,9.47,45.83,17.58,69.24,24.85,59.4,18.46,120.69,31.7,182.6,38.07,62.32,6.41,127.62,6.28,188.06-12.03,55.12-16.69,103.77-50.97,128.79-104.02,2.84-6.03,6.87-13.14,7.81-19.77.24-1.72.24-3.5.35-5.23.68-10.1,1.37-20.19,2.05-30.29,1.84-27.09,3.67-54.19,5.51-81.28.36-5.25.71-10.5,1.07-15.75-2.85,1.18-5.69,2.36-8.54,3.54,2.93,3.06,6.06,7.4,10.81,6.07,3.04-.85,6.03-2.55,8.89-3.86,8.13-3.75,16.18-7.64,24.23-11.55,3.26-1.58,4.47-2.38,5.89-6.15,3.06-8.13,7.24-15.73,9.84-24.05,5.08-16.28,5.43-32.96,2.83-49.7-2.88-18.51-8.57-36.49-14.43-54.24-2.05,2.05-4.1,4.1-6.15,6.15,3.44,1.03,6.97,2.5,10.5,3.15,5.79,1.08,13.9-4.25,17.34-8.59,3.95-4.99-3.08-12.12-7.07-7.07Z"/>
  </g>
  <path class="cls-4" d="M543.24,538.5c21.72-.89,43.04.72,64.63,2.78,19.37,1.85,38.75.62,58.11,2.66,22.02,2.32,44.75,5.32,66.13,11.18,8.87,2.43,17.53,5.55,26.38,8.02,11.72,3.27,23.75,5.26,35.58,8.1,25.83,6.21,51.19,15.54,69.63,35.5,1.53,1.66,4.16,1.81,6.06.78,31.95-17.36,68.94-27.36,104.96-31.51,37.81-4.35,77.41-2.64,114.26,7.34,8.61,2.33,15.33,6.47,18.35,15.22,2.78,8.06,2.67,16.82,2.43,25.24,1.67-1.67,3.33-3.33,5-5l-2.14.03c-6.43.1-6.45,10.1,0,10l2.14-.03c2.76-.04,4.92-2.26,5-5,.42-14.98-.21-33.01-13.03-43.15-6.96-5.5-15.95-7.31-24.42-9.17-10.22-2.25-20.55-3.97-30.94-5.24-41.86-5.14-84.81-1.94-125.53,9.01-21.03,5.66-41.98,13.22-61.12,23.62,2.02.26,4.04.52,6.06.78-16.5-17.86-38.54-28.21-61.61-34.82-11.99-3.43-24.2-5.79-36.37-8.46-10-2.2-19.69-5.35-29.46-8.39-21.24-6.63-43.5-9.76-65.52-12.65-11.2-1.47-22.48-2.7-33.78-2.89-9.44-.16-18.79.22-28.23-.48-24.31-1.82-48.1-4.48-72.56-3.47-6.41.26-6.45,10.26,0,10h0Z"/>
  <path class="cls-4" d="M656.91,490.32c15.09,5.69,29.92,12.07,43.87,20.2,8.68,5.06,16.93,10.86,25.72,15.73,11.96,6.63,24.82,11.45,37.83,15.57,18.78,5.94,36.2,14.69,53.96,23.09,18.29,8.66,34.42,21.61,44.21,39.56,3.08,5.65,11.72.61,8.63-5.05-8.77-16.07-22.41-28.88-38.14-38.08-8.38-4.9-17.41-8.71-26.15-12.92-8.46-4.07-16.96-8.05-25.73-11.42-15.18-5.83-30.91-9.72-45.45-17.2-9.18-4.72-17.66-10.61-26.48-15.94-15.68-9.48-32.5-16.75-49.61-23.21-6.03-2.27-8.63,7.39-2.66,9.64h0Z"/>
  <path class="cls-4" d="M843.73,575.62c61.8-30.64,133.2-36.39,201.12-31.27,18.06,1.36,45.7,8.55,43.77,31.9-.53,6.41,9.47,6.38,10,0,1.6-19.37-14.89-33.22-31.88-38.3-16.99-5.07-36.07-4.72-53.67-5.05-37.09-.7-74.51,2.22-110.63,10.99-22.03,5.35-43.44,13.01-63.76,23.08-5.77,2.86-.71,11.49,5.05,8.63h0Z"/>
  <g>
    <path class="cls-1" d="M463.62,942.91c12.63,3.25,25.25,6.49,37.88,9.74,17.27,4.44,36.73,8.6,52.03-.56,12.73-7.63,18.94-22.43,24.34-36.25,4.35-11.13,6.05-27.21,6.01-39.16-.07-18.16-7.6-29.9-17.48-45.14-11.78-18.15-32.88-40.31-49.57-54.08-15.6-12.87-25.44-17.31-44.03-25.27-24.29-10.41-54.29-20.25-75.3-4.22-6.85,5.23-11.7,12.65-15.66,20.31-17.58,33.98-19.41,76.23-2.76,110.67,16.65,34.45,49.43,54.64,84.88,64.47"/>
    <path class="cls-4" d="M462.29,947.73c14.21,3.65,28.38,7.48,42.64,10.93,11.4,2.76,23.31,4.97,35.05,3.27,23.92-3.47,34.92-24.21,42.71-44.77,4.22-11.12,5.68-23.42,6.1-35.25.41-11.5-1.4-22.29-6.26-32.76-9.71-20.93-25.37-39.59-41.38-55.96s-33.19-30.64-53.98-40.14c-20.16-9.2-42.55-19.53-65.24-18.49-10.73.49-20.94,3.94-29.24,10.87-9.23,7.71-15.07,19.06-19.66,29.95-9.49,22.56-12.58,47.52-8.93,71.72,3.87,25.61,16.06,49.54,35.06,67.21,17.83,16.58,40.17,27.36,63.46,33.92,6.2,1.75,8.85-7.9,2.66-9.64-38.75-10.91-73.98-35.16-86.97-74.82-6.89-21.04-7.51-43.87-2.35-65.37,4.6-19.16,13.95-44.89,34.49-51.75,19.61-6.55,41.8,2.2,59.81,9.84,9.07,3.86,18.2,7.76,26.68,12.83,8.75,5.23,16.68,11.66,24.22,18.49,16.08,14.56,30.97,30.8,42.74,49.06,5.34,8.29,10.69,16.77,13.25,26.39,2.72,10.24,1.95,21.39.56,31.8-1.56,11.75-5.38,22.87-10.71,33.44-5.09,10.1-12.19,19.28-23.52,22.51-11.73,3.34-24.33.8-35.89-2-14.26-3.45-28.43-7.28-42.64-10.93-6.24-1.6-8.9,8.04-2.66,9.64h0Z"/>
  </g>
  <path class="cls-4" d="M855.02,707.97c-.3,9.14-3.65,17.99-9.6,24.97-6.7,7.86-15.69,11.91-25.61,14.16-21.79,4.96-44.83,6.09-67.11,5.84-45.42-.51-90.32-9.13-134-21.12-24.97-6.86-49.61-14.85-74.09-23.28-6.1-2.1-8.72,7.56-2.66,9.64,46.49,16.02,93.75,30.53,142.37,38.48,23.53,3.85,47.33,6.21,71.18,6.3,23.21.09,47.93-1.01,70.45-7.07,22.23-5.99,38.3-24.57,39.07-47.91.21-6.44-9.79-6.43-10,0h0Z"/>
  <path class="cls-4" d="M945.04,741.01c55.26,14.25,112.75,17.43,169.26,9.66,6.35-.87,3.65-10.51-2.66-9.64-54.65,7.51-110.55,4.11-163.95-9.66-6.24-1.61-8.9,8.03-2.66,9.64h0Z"/>
  <g>
    <path class="cls-2" d="M1022.83,412.3c-.41-.03-.63-.05-.63-.05-64.34-6.2-131,20.56-173.2,69.53-9.61,11.15-18.23,23.92-20.41,38.47-15.73-37.51-46.67-66.53-79.34-90.75-26.99-20-55.94-37.66-87.28-49.75-47.08-18.17-99.11-23.32-148.83-14.74,6.62-4.93,13.59-9.45,20.92-13.52,66.27-36.79,147.31-29.07,222.55-19.86,57.72,7.06,115.73,14.46,171.35,31.43,34.36,10.48,68.47,25.18,94.88,49.24Z"/>
    <path class="cls-4" d="M1022.83,407.3c-63.21-5.06-127.16,17.79-171.12,64.05-12.7,13.36-24.83,28.93-27.94,47.57,3.05-.4,6.09-.8,9.14-1.19-18.47-43.34-55.74-75.14-93.56-101.47-42.34-29.48-89.39-50.91-140.84-57.73-28.86-3.83-58.01-3.18-86.7,1.67l3.85,9.14c54.96-40.5,124.14-43.63,189.77-38.17,35.1,2.92,70.17,7.48,105.03,12.45,36.34,5.18,72.58,11.68,107.9,21.83,36.28,10.42,72.54,24.81,100.94,50.4,4.77,4.3,11.86-2.75,7.07-7.07-25.38-22.87-56.68-37.43-88.91-47.94-36.12-11.79-73.55-19.18-111.05-24.89-35.87-5.47-71.98-10.06-108.1-13.6-34-3.33-68.45-5.04-102.47-.97-37.86,4.53-74.33,16.56-105.23,39.34-4.61,3.4-1.87,10.11,3.85,9.14,49.55-8.37,101.09-2.99,147.85,15.4,22.48,8.84,43.71,20.72,63.79,34.08,19.32,12.85,38.02,26.96,54.77,43.05,18.07,17.36,33.52,37.25,43.39,60.41,1.64,3.85,8.46,2.88,9.14-1.19,2.68-16.02,12.49-29.21,23.25-40.9,10.03-10.9,21.3-20.64,33.55-28.96,24.69-16.78,52.91-28.03,82.37-32.87,16.69-2.74,33.43-2.9,50.25-1.55,6.42.51,6.38-9.49,0-10Z"/>
  </g>
  <path class="cls-4" d="M823.48,517.87c2.99,9.79,5.98,19.58,8.96,29.37,1.71,5.6,9.34,4.18,9.82-1.33l.14-1.62c.57-6.41-9.44-6.37-10,0l-.14,1.62,9.82-1.33c-2.99-9.79-5.98-19.58-8.96-29.37-1.87-6.14-11.53-3.52-9.64,2.66h0Z"/>
  <g>
    <path class="cls-4" d="M1263.91,868.57c2.22-7.64,5.5-14.98,9.73-21.73,2.31-3.69,4.95-7.26,8.45-9.86,8.3-6.16,19.92-5.69,29.71-2.37,16.56,5.62,30.37,18.85,36.69,35.15,6.32,16.31,5.05,35.38-3.39,50.7-2.46,4.46-5.56,8.68-9.74,11.58-6.5,4.52-14.79,5.37-22.67,6.08-10.35.93-22.23,1.33-29.44-6.16-2.65-2.76-4.33-6.31-5.69-9.89-5.86-15.33-2.26-4.01-6.46-15.77-1.27-3.56-5.25-23.87-7.56-26.87l.37-10.88Z"/>
    <path class="cls-4" d="M1268.73,869.9c3.1-10.28,8.44-24.78,18.46-30.25,9.78-5.34,22.57-1.49,31.65,3.53,19.79,10.96,31.12,33.09,28.18,55.57-1.38,10.55-5.97,23.96-15.51,29.83-4.65,2.86-10.32,3.67-15.65,4.24-5.35.57-10.83,1.09-16.22.67-4.65-.36-9.54-1.57-12.86-5.07-3.79-4-5.13-9.84-7.23-14.8-1.85-4.37-2.43-4.64-3.91-9.5-2.19-7.21-3.26-14.73-5.58-21.92-.41-1.27-.91-3.49-1.76-4.53-1.03-1.26.06,1.71.24,1.5.21-.24.06-1.71.07-2.01.1-2.87.2-5.74.29-8.61.22-6.44-9.78-6.43-10,0-.1,2.99-.26,5.99-.31,8.98-.05,3.02,1.11,5.04,1.96,7.76,2.36,7.55,3.41,15.5,5.95,22.99,1.91,5.64,4.57,11.14,6.83,16.64,5.16,12.58,15.09,18.28,28.47,18.66,11.82.33,26.8-.55,36.68-7.69,10.56-7.63,16.25-21.7,18.13-34.21,3.96-26.2-8.09-52.28-30.8-66.03-11.86-7.18-27.6-11.56-40.93-5.94-14.25,6.01-21.64,23.64-25.81,37.5-1.86,6.18,7.79,8.81,9.64,2.66Z"/>
  </g>
  <path class="cls-7" d="M1289.27,843.28c-4.16,1.38-7.35,4.33-8.88,8.47-1.54,4.17-.96,9.41,3.07,11.92,4.26,2.66,10.14.96,12.87-3.03,2.69-3.93,2.77-10.46-1.75-13.14-8.49-5.03-18.9,9.44-12.41,16.37,3.16,3.37,8.44,2.94,11.68-.08,1.6-1.49,2.54-3.48,2.93-5.61s-.05-4.34.22-6.51c-.23.84-.46,1.68-.68,2.52l.22-.5c-.6.6-1.2,1.2-1.79,1.79l.45-.34c-.84.23-1.68.46-2.52.68l.55-.06c-.84-.23-1.68-.46-2.52-.68l.43.29c2.47,1.66,6.86.12,7.34-2.99.55-3.54-.45-6.28-3.46-8.31-4.67-3.15-10.35,4.11-6.06,7.85.77.67,1.03,1.29.95,2.27-.05.63-.32,1.42-.72,1.93-.29.35.4-.27.42-.26-6.13-2-8.76,7.66-2.66,9.64,11.61,3.78,16.8-13.92,9.08-20.64-2.02,2.62-4.04,5.24-6.06,7.85l-1.04-.95v-2.66l-.1.62,7.34-2.99c-2.95-1.98-6.92-.65-8.48,2.41-.73,1.43-.76,2.91-.69,4.46.02.52-.33,2.61-.05,2.99,0,0,.13-.13.12-.14.33-.31.74-.23,1.23.25,1.04,0,1.63.54,1.75,1.62.11,0,.64-.84.9-1.17.24-.3.5-.59.77-.87l-.41.13c-1.92-2.4-2.96-2.97-3.11-1.72,0,.06-.02.12-.05.18-.03.11-.09.19-.2.25l.24-.19c-.48-.32,1.56,1.46.38-.05l1.29,2.21c-.69-1.7.35-3.61,2.06-4.18,6.08-2.01,3.47-11.67-2.66-9.64h0Z"/>
  <path class="cls-7" d="M21.06,854.27s.09.07.13.12l-.78-1.01s.06.08.07.13l-.5-1.19.02.07-.18-1.33s0,.1,0,.15l.18-1.33c-.01.08-.03.15-.07.23l.5-1.19c-.04.08-.09.14-.14.21l.78-1.01c-.06.07-.12.13-.2.19l1.01-.78c-.08.05-.15.1-.23.14l1.19-.5c-.09.03-.17.06-.26.08l1.33-.18c-.06,0-.12.01-.18,0l1.33.18c-.1-.01-.17-.03-.26-.07l1.19.5c-.07-.03-.13-.07-.19-.11l1.01.78c-.12-.09-.21-.19-.31-.3l.78,1.01c-.09-.12-.16-.25-.22-.38.17.4.34.8.5,1.19-.17-.4-.25-.82-.31-1.24l.18,1.33v-.11c-2.12,1.61-4.23,3.21-6.34,4.82.53.12,1.06.23,1.58.35,1.31.29,2.67.19,3.85-.5,1.04-.61,2.03-1.8,2.3-2.99.29-1.28.23-2.72-.5-3.85-.69-1.06-1.71-2.02-2.99-2.3-.53-.12-1.06-.23-1.58-.35-1.59-.35-3.06-.11-4.36.89-.54.35-.97.82-1.29,1.4-.45.78-.68,1.62-.68,2.52.19,1.49.33,2.75,1.1,4.08,1.08,1.87,3.1,3.15,5.28,3.15s4.03-1.25,5.19-3.03c.53-.82.8-2.01.78-2.97-.02-1.34-.59-2.98-1.68-3.85-.45-.49-.99-.83-1.61-1.03-.6-.31-1.24-.46-1.93-.43-1.23,0-2.69.54-3.54,1.46s-1.52,2.2-1.46,3.54c.06,1.24.45,2.73,1.46,3.54h0Z"/>
  <path class="cls-6" d="M1031.5,724.97c-.94,8.37,2.13,16.25,8.05,22.15,1.52,1.52,3.47,2.86,3.81,5.14.31,2.1-.9,4.64-1.42,6.64-1.15,4.44-1.36,8.55-.23,13.02,1.1,4.35,2.94,8.22,2.68,12.8-.25,4.51-.21,8.33,1.46,12.61,3.67,9.36,5.79,18.04,3.69,28.12-1.31,6.28,8.33,8.96,9.64,2.66,1.88-9.04,1.72-18.41-1.23-27.22-1.56-4.67-3.99-8.62-3.76-13.68.21-4.77.02-8.71-1.42-13.33-1.49-4.75-2.3-8.21-.96-13.13,1.15-4.22,2.27-8.59.75-12.88-1.34-3.79-4.4-6-6.99-8.86-3.59-3.97-4.65-8.84-4.07-14.04.72-6.38-9.29-6.33-10,0h0Z"/>
  <path class="cls-6" d="M526.55,693.59c38.95,17.55,80.63,27.08,122.67,33.74,43.69,6.92,88.26,13.33,132.59,12.5,22.31-.42,45.24-2.77,64.88-14.21,5.56-3.24.53-11.88-5.05-8.63-16.95,9.87-36.63,12.18-55.91,12.75-21.87.65-43.75-.72-65.5-2.97-40.97-4.25-82.31-9.89-122.37-19.62-22.67-5.5-44.98-12.59-66.26-22.18-5.82-2.62-10.91,5.99-5.05,8.63h0Z"/>
  <path class="cls-6" d="M960.52,729.08c24.57-.53,49.17-1.07,73.73.18,11.28.57,22.54,1.62,33.84,1.42,11.93-.22,23.82-1.77,35.46-4.4,5.4-1.22,4.35-10.36-1.33-9.82-53.65,5.04-107.61,1.62-161.31-.75-6.43-.28-6.42,9.72,0,10,53.7,2.37,107.66,5.79,161.31.75l-1.33-9.82c-22.98,5.2-45.35,3.63-68.63,2.53-23.9-1.13-47.83-.6-71.74-.08-6.43.14-6.45,10.14,0,10h0Z"/>
  <g>
    <path class="cls-3" d="M1130.35,691.73c.07,4.54.04,9.4-2.53,13.13-2.33,3.37-6.29,5.18-10.12,6.61-.7.26-1.39.52-2.1.77-2.9,1.02-5.84,1.93-8.81,2.73-24.68,6.69-51.09,6.04-76.83,5.29-.98-.03-1.97-.06-2.95-.09-17.95-.52-35.9-1.04-53.86-1.57-12.69-.37-27.17-1.59-39.22-6.42-7.6-3.04-14.23-7.51-18.84-14.09l-19.85-29.59c6.46-3.38,40.4-3.91,56.14-3.99h.68c2.79,0,4.95,0,6.18,0,27.88,0,16.48-1.01,39.46-1.12,5.87-.03,13.97,0,25.54.12,5.86.06,12.3.04,18.94-.02,21.06-.19,44.13-.74,57.06.02.15,0,28.91-1.11,29-1,5,16,1.77,5.31,2.11,29.23Z"/>
    <path class="cls-4" d="M1125.35,691.73c.05,4.55.24,9.41-3.82,12.35-3.78,2.73-9.01,4.03-13.4,5.32-10.37,3.04-21.05,4.73-31.82,5.56-21.69,1.65-43.54.39-65.25-.24-11.3-.33-22.61-.66-33.91-.99-10.46-.31-20.94-.71-31.18-3.07-9.02-2.08-18.18-5.6-24.54-12.61-2.22-2.45-3.93-5.32-5.76-8.05-5.37-8-10.74-16.01-16.11-24.01-.6,2.28-1.2,4.56-1.79,6.84,3.59-1.71,11.95-1.93,16.97-2.26,8.61-.56,17.24-.8,25.87-.94,13.48-.22,26.99.25,40.45-.74,16.12-1.18,32.4-.38,48.54-.35,22.85.03,45.67-.69,68.51-.1,4.88.13,9.79-.26,14.67-.44,4.99-.18,10.49-1.06,15.46-.5-1.61-1.22-3.21-2.45-4.82-3.67.81,2.6,1.61,5.2,2.36,7.82.47,1.65.41.7.25,2.69-.46,5.81-.74,11.55-.68,17.39.07,6.43,10.07,6.45,10,0-.06-5.97.6-11.84.7-17.77.07-4.37-1.71-8.69-2.99-12.79-.72-2.31-2.54-3.41-4.82-3.67-4.34-.49-9.14.27-13.49.43-5.02.18-10.07.54-15.09.56-21.12.07-42.26-.07-63.38.04-17.93.09-36.02-.94-53.94.27-13.1.89-26.22.62-39.34.8-9.83.13-19.68.37-29.49,1.05-6.78.47-14.54.56-20.79,3.54-2.34,1.11-3.2,4.74-1.79,6.84,5.29,7.89,10.59,15.78,15.88,23.67,2.38,3.55,4.65,7.25,7.55,10.41,6.51,7.11,15.59,11.47,24.73,14.1,10.48,3.01,21.54,3.94,32.4,4.34,12.52.46,25.05.74,37.57,1.1,24.22.7,48.71,2.3,72.87-.2,12.59-1.3,25.23-3.62,37.1-8.16,4.98-1.9,10.1-4.26,13.11-8.91,3.01-4.67,3.27-10.27,3.21-15.65-.07-6.43-10.07-6.45-10,0Z"/>
  </g>
  <g>
    <path class="cls-3" d="M739.95,1047.78c104-45,98.73-39.42,236.15-35.86,13.07.34,27.22.63,42.64.92,23.19.42,46.27-3.98,69.03-8.45,24.91-4.89,49.19-12.53,73.4-20.15,43.49-13.69,87.77-27.77,125.08-53.99l-10.22-62.39c-43.06,2.37-86.47-2.15-128.11-13.34-59.5-15.99-114.97-45.48-163.66-83.22-13.93-10.79-27.41-22.34-38.56-35.99-17.78-21.76-12.47-12.8-24.47-29.8"/>
    <path class="cls-4" d="M742.48,1052.09c26.21-11.34,52.62-23.5,80.3-30.86,21.51-5.72,43.5-6.79,65.67-6.63,38.44.27,76.87,2.16,115.29,2.94,12.43.25,24.79.54,37.19-.63,12.35-1.16,24.59-3.2,36.77-5.5,23.84-4.49,47.1-10.63,70.27-17.8,48.5-15.03,98.7-29.7,140.81-59.05,2.01-1.4,2.68-3.28,2.3-5.65-3.41-20.8-6.81-41.6-10.22-62.39-.33-2.04-2.81-3.78-4.82-3.67-59.08,3.11-118.08-6.69-173.04-28.56-25.51-10.15-50.02-22.84-73.3-37.38-23.74-14.82-47.27-31.34-67.34-50.92-9.03-8.81-16.53-18.89-25.01-28.2-4.3-4.73-8.09-9.59-11.79-14.83-3.69-5.21-12.36-.22-8.63,5.05,9.29,13.14,20.17,25.61,31.01,37.47,19.09,20.88,42.89,37.96,66.43,53.46,48.01,31.61,101.67,55.17,158.15,66.44,34.04,6.79,68.86,9.28,103.51,7.46-1.61-1.22-3.21-2.45-4.82-3.67,3.41,20.8,6.81,41.6,10.22,62.39.77-1.88,1.53-3.76,2.3-5.65-37.33,26.02-80.89,39.95-123.88,53.48-46.69,14.7-95.5,29.28-144.93,28.35-39.97-.75-79.93-2.49-119.9-3.08-22.97-.34-46.06.14-68.54,5.34-30.84,7.13-60.12,20.94-89.04,33.45-5.89,2.55-.8,11.17,5.05,8.63h0Z"/>
  </g>
  <path class="cls-6" d="M599.03,708.35c-10.48,10.91-5.61,25.79.03,37.74,3.78,8.02,5.67,15.07,5.6,23.97-.06,8.14.02,15.81,2.49,23.65,1.13,3.59,2.52,7.13,3.25,10.83.88,4.47-.28,8.4-1.26,12.72-1.9,8.39.29,15.22,2.14,23.36,3.62,15.93-.81,32.5,1.75,48.6,1.24,7.8,4.19,14.38,8.76,20.76,2.72,3.8.17,9.54-.71,13.86-1.04,5.12-2.09,10.23-3.13,15.35-.78,3.84,3.51,8.41,7.34,5.65,2.03-1.46,4.06-2.93,6.08-4.39,5.17-3.73.19-12.41-5.05-8.63-2.03,1.46-4.06,2.93-6.08,4.39l7.34,5.65c1.69-8.31,3.54-16.6,5.08-24.94.59-3.18.88-6.21-.49-9.23-1.37-3.01-3.93-5.37-5.52-8.3-7.39-13.55-3.98-30.27-4.05-44.93-.04-8.1-1.56-15.54-3.52-23.35-2.11-8.44,2.01-15.32,1.65-23.66-.33-7.51-3.83-14.19-5.36-21.43-1.73-8.23-.15-16.75-1.09-25.07-.95-8.37-4.7-15.5-8.1-23.06-3.05-6.8-6.02-16.3-.11-22.45,4.46-4.64-2.6-11.72-7.07-7.07h0Z"/>
  <path class="cls-6" d="M661.15,716.28c1.76,16.76-2.82,33.62,1.73,50.16,2.17,7.89,4.95,15.39,5.77,23.6.86,8.59.21,17.18-1.74,25.57-1.45,6.26,8.18,8.93,9.64,2.66,3.86-16.6,2.69-32.94-2.39-49.12-2.77-8.84-3.78-17.15-3.37-26.41.4-8.85,1.28-17.62.35-26.46-.67-6.34-10.67-6.4-10,0h0Z"/>
  <g>
    <path class="cls-3" d="M859.81,708.34c-3.08,2.87-7.17,4.36-11.17,5.67-24.02,7.85-48.89,11.58-74.06,12.51-30.47,1.13-61.39-1.83-91.81-6.53-4.6-.71-9.18-1.46-13.75-2.25-2.71-.45-5.41-.93-8.11-1.41-25.33-4.54-50.99-8.43-75.99-14.51-12.7-3.09-25.23-6.75-37.46-11.34-4.32-1.63-14.4-7.5-18.6-12.54l-.25.14c13.95-11.45,28.83-24.8,46.75-26.99,8.82-1.08,17.08-1.74,24.97-2.09,21.16-.93,39.68.4,59.27,1.99,14.18,1.16,28.93,2.45,45.64,3.13.1,0,.2,0,.3,0,4.11.16,8.33.29,12.7.37,8.44.15,18.54.54,29.34,1.23,17.72,1.13,37.32,3.09,54.64,6.14,4.52.8,8.89,1.68,13.02,2.63,26,6,41,3,49.54,18.63,4.3,7.86,1.59,19.11-4.97,25.21Z"/>
    <path class="cls-4" d="M856.28,704.8c-3.97,3.36-9.51,4.62-14.38,6.08-5.42,1.62-10.9,3.05-16.41,4.29-10.88,2.45-21.92,4.15-33.02,5.19-22.51,2.1-45.21,1.68-67.72-.24-22.27-1.9-44.31-5.4-66.3-9.29-22.23-3.93-44.55-7.44-66.55-12.5-12.18-2.8-24.25-6.08-36.08-10.15-8.57-2.95-17.27-6.86-23.41-13.78-1.48-1.67-4.2-1.82-6.06-.78l-.25.14c2.02,2.62,4.04,5.24,6.06,7.85,9.25-7.61,18.41-15.66,29.23-21.02,11.18-5.54,24.16-5.83,36.41-6.47,26.26-1.38,52.36,1.19,78.51,3.22,24.93,1.93,49.92,1.9,74.85,3.62,13.37.93,26.75,2.2,40.01,4.16,12.36,1.83,24.46,4.89,36.78,6.89,8.46,1.37,18.86,1.64,26.23,6.51,9.31,6.15,9.87,18.53,2.1,26.28-4.56,4.55,2.51,11.62,7.07,7.07,7.67-7.65,11.07-19.96,6.34-30.07-3.68-7.87-10.6-13.05-18.76-15.59-10.01-3.12-20.79-3.65-31.03-5.8-14.27-3-28.5-5.49-42.99-7.13-28.21-3.18-56.47-3.12-84.76-4.83-28.64-1.73-57.19-5.38-85.93-4.66-15.03.38-31.79.39-45.81,6.32-13.31,5.62-24.29,15.35-35.33,24.43-4.49,3.69,1.25,10.55,6.06,7.85l.25-.14c-2.02-.26-4.04-.52-6.06-.78,12.87,14.48,34.97,19.2,52.83,23.81,23.05,5.94,46.57,9.79,70,13.86,47.06,8.17,94.51,15.57,142.42,11.39,12.93-1.13,25.82-3.03,38.47-5.92,11.37-2.6,25.15-5.01,34.29-12.73,4.92-4.16-2.18-11.2-7.07-7.07Z"/>
  </g>
  <path class="cls-5" d="M23.63,320.07c28.98-5.92,57.97-11.45,87.35-15.05,39.91-4.89,79.9-5.58,120.06-4.58,31.55.78,63.19,2.76,94.28,8.41,8.64,1.57,17.2,3.47,25.67,5.68-8.78-9.73-18.81-18.31-29.8-25.86-26.38-18.11-56.04-32.56-85.71-44.39-34.67-13.83-70.86-22.01-108-25.41-4.54-.42-7.3-6.83-2.52-9.32,73.94-38.47,160.8-49.83,242.28-32.52,10.17,2.16,20.24,4.77,30.17,7.84,1.85.57,3.71,1.24,5.57,1.94-19.46-25.46-46.17-44.52-78.39-52.14-12.16-2.88-24.56-4.55-36.95-6.13-4.56-.58-7.25-6.62-2.52-9.32,20.53-11.72,42.98-19.67,66.46-22.68,15-1.93,29.6-1.28,44.08.83-14.38-7.6-29.02-14.7-43.84-21.34-36.6-16.41-74.39-30.07-112.59-42.27-5.62-1.8-4.15-9.23,1.33-9.82,69.16-7.47,139.26-4.11,207.54,9.09,68.27,13.19,134.62,36.29,196.42,68.15,8.33,4.29,16.57,8.76,24.73,13.38-7.01-22.97-20.8-43.23-39.73-58.31-3.46-2.75-.52-8.65,3.54-8.54,16.5.45,31.85,6.8,47.12,12.46,14.12,5.23,28.17,10.61,42.03,16.5,27.48,11.68,54.19,25.58,77.38,44.57,5.81,4.75,11.21,9.84,16.3,15.18,11.62-2.62,23.72,2.25,34.76,5.65,11.82,3.64,23.58,7.5,35.11,11.98,22.86,8.88,44.92,20.14,63.57,36.26,36.59,31.6,55.88,78.64,61.6,125.82,3.48,28.73,1.99,57.73-1.97,86.33,10.39,5.67,20.34,12.17,29.53,19.6,2.69,2.15,5.32,4.38,7.9,6.7.25.22.45.45.64.68,6.21,5.74,11.98,11.96,17.19,18.69,14.08,18.22,24.09,39.23,31.54,60.94,7.11,20.74,11.76,42.21,15.05,63.87,5.07,5.83,8.19,13.05,7.93,21.61-.01.5-.04,1.01-.08,1.51.8.33,1.6.66,2.38,1.03,4.02,1.91,7.2,4.47,9.72,7.49.08.09.16.2.24.29.2.25.4.49.59.74.76.95,1.48,1.94,2.14,3.04,6.25,10.4,6.39,23.42,6.06,35.17,0,.31-.05.6-.11.9,7.92,10.91,11.95,23.77,13.82,37.2.04.28.07.56.11.83,1.2,3.62,2.54,7.39,2.48,11.21-.09,5.23-.62,10.42-.7,15.67.16,6.14.01,12.34-3.22,17.75-.24.4-.51.75-.81,1.04-2.86,3.59-8.89,7.83-14.16,8.58-1.32.48-2.66.94-4,1.37,8.94,27.78,16.72,57.22,10.03,86.13-1.96,8.48-5.26,16.34-8.87,24.22-1.24,2.7-1.96,5.94-3.43,8.54,20.86,7.86,42.33,14.11,64.28,18.49,28.03,5.59,56.58,8.06,85.13,7.62,3.85-11.57,9.87-24.3,19.88-31.14,10.65-7.29,25.07-5.74,36.43-1.11,24.35,9.91,40.85,33.9,40.83,60.28,0,13.05-3.82,26.76-11.72,37.27-8.51,11.31-21.15,13.5-34.47,14.59-9.51.77-20.2.58-28.11-4.9-35.74,23.42-76.79,36.87-117.3,49.64-23.5,7.41-47.03,14.93-71.15,20.06-16.55,3.52-33.41,6.86-50.35,8.58-4.53,7.46-9.58,14.6-15.12,21.36-17.76,21.67-40.75,38.71-65.9,50.89-55.19,26.74-118.81,32.47-179.33,30.39-64.07-2.2-127.89-13.39-189.78-29.78-26.62-7.05-52.98-15.14-78.88-24.52-22.23-8.05-44.08-16.62-64.21-29.13-15.6-9.69-30.82-20.05-45.78-30.71-13.44-9.57-26.71-19.26-37.77-31.62-7.55-8.43-14.33-17.55-20.41-27.17-4.89-3.3-9.75-6.65-14.55-10.09-12.55-8.99-24.78-18.44-36.67-28.29-47.38-39.28-89.09-85.31-123.9-136.05-34.95-50.94-62.83-106.79-82.3-165.43-4.73-14.26-8.94-28.68-12.66-43.23-1.15-4.49,5.04-8.94,8.36-4.86,14.91,18.36,33.27,33.26,52.53,46.82,20.08,14.14,40.65,27.71,61.37,40.91,5.86,3.73,11.76,7.4,17.72,10.99-13.76-60.31-30.14-120.43-54.55-177.1-20.94-48.62-49.06-94.63-90.22-128.71-21.04-17.42-44.92-31.11-69.86-42.11-3.91-1.72-2.82-8.32,1.19-9.14Z"/>
</svg>